SplineFontDB: 3.0
FontName: CMUSerif-Italic
FullName: CMU Serif Italic
FamilyName: CMU Serif
Weight: Medium
Copyright: Converted by Andrey V. Panov from TeX fonts. Some glyphs are copied from Blue Sky fonts released by AMS.
UComments: "2009-6-18: Created." 
Version: 0.7.0
ItalicAngle: -14.04
UnderlinePosition: -100
UnderlineWidth: 50
Ascent: 800
Descent: 200
LayerCount: 2
Layer: 0 0 "+BBcEMAQ0BD0EOAQ5 +BD8EOwQwBD0A"  1
Layer: 1 0 "+BB8ENQRABDUENAQ9BDgEOQAA +BD8EOwQwBD0A"  0
NeedsXUIDChange: 1
XUID: [1067 14343902]
FSType: 0
OS2Version: 0
OS2_WeightWidthSlopeOnly: 0
OS2_UseTypoMetrics: 1
CreationTime: 1245312225
ModificationTime: 1245312751
PfmFamily: 17
TTFWeight: 500
TTFWidth: 5
LineGap: 200
VLineGap: 90
OS2TypoAscent: 0
OS2TypoAOffset: 1
OS2TypoDescent: 0
OS2TypoDOffset: 1
OS2TypoLinegap: 200
OS2WinAscent: 930
OS2WinAOffset: 0
OS2WinDescent: 250
OS2WinDOffset: 0
HheadAscent: 930
HheadAOffset: 0
HheadDescent: -250
HheadDOffset: 0
Lookup: 1 0 0 "Case substitutions"  {"Case substitutions subtable"  } ['case' ('cyrl' <'dflt' > 'grek' <'dflt' > 'latn' <'dflt' > ) ]
Lookup: 1 0 0 "Italic substitutions"  {"Italic substitutions cyr"  } ['locl' ('cyrl' <'MKD ' 'SRB ' > ) ]
Lookup: 3 0 0 "Greek alternatives"  {"Greek alternatives subtable"  } ['salt' ('grek' <'dflt' > ) ]
Lookup: 1 0 0 "Greek substitutions"  {"Greek substitutions subtable"  } ['locl' ('grek' <'dflt' > ) ]
Lookup: 4 0 1 "Latin Dutch ligatures"  {"Latin Dutch ligatures subtable"  } ['liga' ('latn' <'NLD ' > ) ]
Lookup: 4 0 1 "Latin ligatures excepting Turkic"  {"Latin ligatures excepting Turkic subtable"  } ['liga' ('latn' <'dflt' 'NLD ' 'VIT ' > ) ]
Lookup: 4 0 1 "Latin ligatures"  {"Latin ligatures subtable"  } ['liga' ('latn' <'dflt' 'NLD ' 'VIT ' 'TRK ' 'AZE ' > ) ]
Lookup: 4 0 1 "Cyrillic ligatures"  {"Cyrillic ligatures subtable"  } ['liga' ('cyrl' <'dflt' 'MKD ' 'SRB ' > ) ]
Lookup: 3 0 0 "Latin alternatives"  {"Latin alternatives subtable"  } ['salt' ('latn' <'dflt' > ) ]

StartChar: .notdef
Encoding: 0 0 0
Width: 760
Flags: HW
HStem: 10 60<105 655> 705 60<105 655>
VStem: 10 60<112 663> 690 60<112 663>
DStem2: 105 705 70 663 0.702289 -0.711892<5.31938 389.612 448.699 832.991> 70 112 105 70 0.702289 0.711892<0 384.292 443.379 827.672>
LayerCount: 2
Fore
SplineSet
10 10 m 1
 10 765 l 1
 750 765 l 1
 750 10 l 1
 10 10 l 1
70 112 m 1
 346 388 l 1
 70 663 l 1
 70 112 l 1
105 70 m 1
 655 70 l 1
 380 346 l 1
 105 70 l 1
105 705 m 1
 380 429 l 1
 655 705 l 1
 105 705 l 1
414 388 m 1
 690 112 l 1
 690 663 l 1
 414 388 l 1
EndSplineSet
EndChar

StartChar: uni262D
Encoding: 9773 9773 1
Width: 700
Flags: HW
TeX: 117 0
HStem: -1 21G<56 93 593.5 601> 39 76<321.786 462.78> 102 51<140.549 177.987>
VStem: 129 54<101.776 137.734> 556 82<197.341 366.709>
DStem2: 123 357 178 301 0.707107 0.707107<0 86.9741 130.108 182.434>
LayerCount: 2
Fore
SplineSet
40 18 m 0
 40 64 129 102 129 128 c 0
 129 148 134 153 148 153 c 0xb8
 162 153 164 157 182 180 c 1
 229 156 307 115 390 115 c 0
 438 115 463 128 463 129 c 0
 463 135 406 186 240 363 c 1
 178 301 l 1
 123 357 l 1
 252 486 l 1
 347 470 l 1
 271 393 l 1
 484 190 l 1
 513 165 l 1
 519 165 556 218 556 295 c 0
 556 473 346 588 346 593 c 1
 394 593 638 478 638 267 c 0
 638 167 592 118 580 100 c 1
 636 44 637 42 637 38 c 0xd8
 637 17 605 -1 597 -1 c 2
 596 -1 l 2
 591 -1 590 1 529 62 c 1
 500 51 474 39 428 39 c 0xd8
 297 39 201 138 188 138 c 0
 183 138 182 134 182 130 c 0
 182 126 183 123 183 118 c 0
 183 108 178 102 168 102 c 0
 131 102 122 0 64 -0 c 0
 48 0 40 7 40 18 c 0
EndSplineSet
EndChar

StartChar: longs
Encoding: 383 383 2
Width: 306
Flags: HW
TeX: 108 0
HStem: -205 22<21.8309 79.3019> -165 81<15 50.1904> 400 31<126.285 213> 584 81<376.81 412> 683 22<345.442 404.188>
VStem: -25 84<-154.756 -93.5671> 368 84<593.567 655.946>
DStem2: 140 27 207 41 0.19191 0.981413<-146.993 380.076 411.652 637.971>
AnchorPoint: "above" 350 694 basechar 0
AnchorPoint: "below" 81 -194 basechar 0
LayerCount: 2
Fore
SplineSet
-25 -139 m 0
 -25 -104 0 -84 25 -84 c 0
 41 -84 59 -94 59 -116 c 0
 59 -136 45 -160 15 -165 c 1
 26 -180 45 -183 55 -183 c 0
 89 -183 106 -148 140 27 c 2
 213 400 l 1
 151 400 l 2
 136 400 126 400 126 411 c 0
 126 431 137 431 153 431 c 2
 219 431 l 1
 242 551 257 705 370 705 c 0
 411 705 452 682 452 639 c 0
 452 604 427 584 402 584 c 0
 386 584 368 594 368 616 c 0
 368 636 382 660 412 665 c 1
 399 681 378 683 370 683 c 0
 331 683 323 638 283 431 c 2
 207 41 l 2
 200 5 159 -205 55 -205 c 0
 18 -205 -25 -184 -25 -139 c 0
EndSplineSet
EndChar

StartChar: uni03F5
Encoding: 1013 1013 3
Width: 430
Flags: HW
TeX: 117 0
HStem: -11 25<287.627 364> 209 38<172 395> 215 25<172 395> 417 25<379.703 470>
VStem: 82 75<101.225 233.873>
LayerCount: 2
Fore
SplineSet
82 174 m 0xd8
 82 230 110 281 138 314 c 0
 208 394 338 442 476 442 c 1
 470 417 l 1
 349 416 224 359 172 247 c 1xd8
 401 240 l 1
 395 215 l 1xb8
 160 209 l 1
 158 198 157 186 157 175 c 0
 157 84 242 16 370 14 c 1
 364 -11 l 1
 204 -11 82 60 82 174 c 0xd8
EndSplineSet
EndChar

StartChar: circumflex.cap
Encoding: 65536 -1 4
Width: 511
Flags: HW
HStem: 741 159
VStem: 318 254<748 763>
AnchorPoint: "above" 432 705 mark 0
LayerCount: 2
Fore
SplineSet
318 757 m 0
 318 764 321 765 439 871 c 0
 464 893 470 900 478 900 c 0
 489 900 499 880 506 869 c 0
 570 764 572 763 572 756 c 0
 572 748 563 741 555 741 c 0
 543 741 503 801 470 847 c 1
 406 799 345 741 332 741 c 0
 328 741 318 744 318 757 c 0
EndSplineSet
EndChar

StartChar: dieresis.cap
Encoding: 65537 -1 5
Width: 511
Flags: HW
HStem: 786 106<340.161 410.839 519.161 589.839>
VStem: 322 107<804.045 873.955> 501 107<804.045 873.955>
AnchorPoint: "above" 431 705 mark 0
LayerCount: 2
Back
SplineSet
501 829 m 0
 501 859 531 892 565 892 c 0
 591 892 608 872 608 849 c 0
 608 819 578 786 544 786 c 0
 520 786 501 803 501 829 c 0
322 829 m 0
 322 859 351 891 386 891 c 0
 408 891 430 875 430 848 c 0
 430 814 396 786 365 786 c 0xf4
 341 786 322 803 322 829 c 0
EndSplineSet
Fore
Refer: 6 -1 S 1 0 0 1 96 26 2
Refer: 6 -1 S 1 0 0 1 -83 26 2
EndChar

StartChar: dotaccent.cap
Encoding: 65538 -1 6
Width: 511
Flags: HW
HStem: 760 106<423.161 493.839>
VStem: 405 107<778.045 847.955>
AnchorPoint: "above" 431 705 mark 0
LayerCount: 2
Fore
SplineSet
405 803 m 0
 405 833 435 866 469 866 c 0
 495 866 512 846 512 823 c 0
 512 793 482 760 448 760 c 0
 424 760 405 777 405 803 c 0
EndSplineSet
EndChar

StartChar: caron.cap
Encoding: 65539 -1 7
Width: 511
Flags: HW
HStem: 770 62<424.086 486.696>
VStem: 338 280<883 895>
AnchorPoint: "above" 432 705 mark 0
LayerCount: 2
Fore
SplineSet
338 890 m 0
 338 895 342 900 348 900 c 0
 365 900 446 832 460 832 c 0
 480 832 591 900 608 900 c 0
 613 900 618 896 618 891 c 0
 618 880 607 875 468 778 c 0
 465 776 458 770 451 770 c 0
 441 770 430 785 422 793 c 0
 341 880 338 883 338 890 c 0
EndSplineSet
EndChar

StartChar: ring.cap
Encoding: 65540 -1 8
Width: 511
Flags: HW
HStem: 730 23<408.204 485.046> 891 22<439.172 513.962>
VStem: 367 29<762.212 849.199> 526 30<792.537 882.261>
AnchorPoint: "above" 432 705 mark 0
LayerCount: 2
Fore
SplineSet
367 800 m 0
 367 855 422 913 484 913 c 0
 525 913 556 885 556 843 c 0
 556 788 500 730 439 730 c 0
 397 730 367 758 367 800 c 0
396 794 m 0
 396 769 412 753 444 753 c 0
 520 753 526 838 526 849 c 0
 526 875 511 891 479 891 c 0
 404 891 396 809 396 794 c 0
EndSplineSet
EndChar

StartChar: breve.cap
Encoding: 65541 -1 9
Width: 511
Flags: HW
HStem: 753 36<386.1 521.786>
VStem: 333 24<823.797 888.411> 590 23<855.324 888.858>
AnchorPoint: "above" 432 705 mark 0
LayerCount: 2
Fore
SplineSet
333 854 m 0
 333 872 337 889 348 889 c 0
 356 889 358 882 358 874 c 0
 358 867 357 866 357 859 c 0
 357 819 394 789 451 789 c 0
 505 789 567 818 590 875 c 0
 592 881 596 889 603 889 c 0
 607 889 613 887 613 878 c 0
 613 848 552 753 447 753 c 0
 386 753 333 791 333 854 c 0
EndSplineSet
EndChar

StartChar: uni0283
Encoding: 643 643 10
Width: 333
Flags: HW
HStem: -205 23<-15.2207 58.8328> -171 91<-16 22.194> 583 91<435.453 469> 683 22<398.45 468.689>
VStem: -60 95<-156.679 -92.9> 423 94<596.467 660.801>
DStem2: 81.4862 -205 148.737 -205 0.242599 0.970127<75.7232 880.305>
AnchorPoint: "affricate-below" 284 -194 basechar 0
AnchorPoint: "affricate-above" 507 694 basechar 0
AnchorPoint: "above" 339 694 basechar 0
LayerCount: 2
Back
SplineSet
-25 -139 m 0
 -25 -104 0 -84 25 -84 c 0
 41 -84 59 -94 59 -116 c 0
 59 -136 45 -160 15 -165 c 1
 26 -180 45 -183 55 -183 c 0
 91 -183 104 -131 112 -97 c 0
 118 -76 128 -35 140 27 c 2
 213 400 l 1
 151 400 l 2
 136 400 126 400 126 411 c 0
 126 431 137 431 153 431 c 2
 219 431 l 1
 240 541 l 2
 247 575 272 705 370 705 c 0
 411 705 452 682 452 639 c 0
 452 604 427 584 402 584 c 0
 386 584 368 594 368 616 c 0
 368 636 382 660 412 665 c 1
 399 681 378 683 370 683 c 0
 334 683 323 630 315 593 c 0
 300 523 297 505 283 431 c 1
 361 431 l 2
 378 431 386 431 386 418 c 0
 386 400 376 400 359 400 c 2
 277 400 l 1
 207 41 l 2
 200 5 159 -205 55 -205 c 0
 18 -205 -25 -184 -25 -139 c 0
EndSplineSet
Fore
SplineSet
-60 -139 m 0
 -60 -102 -31 -80 -2 -80 c 0
 17 -80 35 -92 35 -115 c 0
 35 -137 22 -161 -16 -171 c 1
 -2 -178 12 -182 26 -182 c 0
 90 -182 112 -84 131 -7 c 2
 262 520 l 2
 271 556 279 600 316 644 c 0
 343 677 384 705 431 705 c 0
 480 705 517 680 517 643 c 0
 517 609 489 583 461 583 c 0
 435 583 423 600 423 619 c 0
 423 641 437 663 469 674 c 1
 457 679 445 683 432 683 c 0
 368 683 346 588 325 505 c 2
 195 -20 l 2
 191 -39 187 -59 180 -77 c 0
 160 -132 106 -205 25 -205 c 0
 -21 -205 -60 -179 -60 -139 c 0
EndSplineSet
EndChar

StartChar: uni028C
Encoding: 652 652 11
Width: 528
Flags: HW
HStem: 0 31<15.2126 89.5891 148.851 195.771 300.213 363.532 456.308 515.771> 420 20G<364 377.5>
DStem2: 159 134 167 104 0.543623 0.83933<-71.5519 274.007>
AnchorPoint: "affricate-below" 479 -194 basechar 0
AnchorPoint: "affricate-above" 702 694 basechar 0
AnchorPoint: "below" 262 0 basechar 0
AnchorPoint: "above" 372 442 basechar 0
LayerCount: 2
Fore
SplineSet
15 12 m 0
 15 31 27 31 36 31 c 0
 83 31 100 42 159 134 c 2
 341 415 l 2
 348 426 357 440 371 440 c 0
 384 440 388 432 390 415 c 2
 442 86 l 2
 447 51 457 31 503 31 c 0
 508 31 516 31 516 19 c 0
 516 0 503 0 497 0 c 0
 472 0 439 3 410 3 c 0
 385 3 334 1 312 0 c 0
 305 0 300 5 300 12 c 0
 300 31 312 31 321 31 c 0
 357 31 371 49 371 67 c 0
 371 75 341 246 328 351 c 1
 322 343 220 186 167 104 c 0
 154 84 147 67 147 56 c 0
 147 41 158 31 183 31 c 0
 188 31 196 31 196 19 c 0
 196 0 183 0 177 0 c 0
 152 0 123 3 94 3 c 0
 69 3 49 1 27 0 c 0
 20 0 15 5 15 12 c 0
EndSplineSet
EndChar

StartChar: grave
Encoding: 96 96 12
Width: 511
Flags: HW
TeX: 641 0
HStem: 499 152
VStem: 274 147
LayerCount: 2
Fore
SplineSet
274 614 m 0
 274 635 297 651 312 651 c 0
 331 651 340 632 347 623 c 0
 408 538 421 524 421 515 c 0
 421 505 411 499 404 499 c 2
 403 499 l 2
 396 499 395 501 290 587 c 0
 283 594 274 601 274 614 c 0
EndSplineSet
EndChar

StartChar: acute
Encoding: 180 180 13
Width: 511
Flags: HW
TeX: 641 0
ItalicCorrection: 83
HStem: 499 152
VStem: 346 199
LayerCount: 2
Fore
SplineSet
346 514 m 0
 346 525 343 519 490 639 c 0
 497 645 506 651 517 651 c 0
 532 651 545 638 545 623 c 0
 545 600 520 589 515 586 c 0
 370 502 367 499 360 499 c 0
 352 499 346 507 346 514 c 0
EndSplineSet
EndChar

StartChar: circumflex
Encoding: 710 710 14
Width: 460
Flags: HW
TeX: 641 0
HStem: 481 167
VStem: 226 255
LayerCount: 2
Fore
SplineSet
226 496 m 0
 226 505 223 500 346 614 c 0
 373 639 380 648 389 648 c 0
 400 648 407 629 416 614 c 0
 479 504 481 504 481 497 c 0
 481 489 472 481 464 481 c 0
 454 481 455 482 380 594 c 1
 255 488 250 481 241 481 c 0
 234 481 226 488 226 496 c 0
EndSplineSet
EndChar

StartChar: tilde
Encoding: 732 732 15
Width: 511
Flags: HW
TeX: 641 0
ItalicCorrection: 108
HStem: 567 37<431.104 492.821> 631 36<326.713 386.896>
VStem: 248 322
LayerCount: 2
Fore
SplineSet
248 578 m 0
 248 591 330 667 374 667 c 0
 425 667 422 604 459 604 c 0
 497 604 545 666 560 666 c 0
 566 666 570 661 570 656 c 0
 570 644 489 567 444 567 c 0
 393 567 396 631 359 631 c 0
 321 631 273 569 258 569 c 0
 252 569 248 573 248 578 c 0
EndSplineSet
EndChar

StartChar: dieresis
Encoding: 168 168 16
Width: 511
Flags: HW
TeX: 661 0
ItalicCorrection: 102
HStem: 553 105<460.128 532.197> 553 106<282.161 353.031>
VStem: 264 107<571.047 640.955> 443 107<570.592 640.408>
LayerCount: 2
Fore
SplineSet
264 596 m 0
 264 626 294 659 328 659 c 0
 354 659 371 640 371 616 c 0
 371 583 339 553 307 553 c 0x70
 283 553 264 570 264 596 c 0
EndSplineSet
Refer: 22 729 S 1 0 0 1 177 -10 2
EndChar

StartChar: ring
Encoding: 730 730 18
Width: 813
Flags: HW
TeX: 641 0
HStem: 500 22<497.212 577.708> 638 23<521.303 603.947>
VStem: 456 30<530.082 607.747> 614 30<552.098 630.101>
LayerCount: 2
Fore
SplineSet
456 563 m 0
 456 616 515 661 570 661 c 0
 611 661 644 635 644 597 c 0
 644 547 589 500 530 500 c 0
 489 500 456 525 456 563 c 0
486 560 m 0
 486 532 506 522 535 522 c 0
 607 522 614 584 614 601 c 0
 614 628 594 638 565 638 c 0
 499 638 486 585 486 560 c 0
EndSplineSet
EndChar

StartChar: caron
Encoding: 711 711 19
Width: 460
Flags: HW
TeX: 641 0
HStem: 488 149
VStem: 246 280
LayerCount: 2
Fore
SplineSet
246 627 m 0
 246 632 250 637 256 637 c 2
 257 637 l 2
 267 637 365 553 365 553 c 1
 507 634 508 637 516 637 c 0
 522 637 526 633 526 628 c 0
 526 618 529 622 392 513 c 0
 368 494 362 488 354 488 c 0
 343 488 331 508 323 519 c 0
 252 613 246 619 246 627 c 0
EndSplineSet
EndChar

StartChar: breve
Encoding: 728 728 20
Width: 511
Flags: HW
TeX: 641 0
ItalicCorrection: 94
HStem: 504 37<321.291 460.396>
VStem: 270 24<574.369 636.697> 525 24<602.067 636.693>
LayerCount: 2
Fore
SplineSet
270 603 m 0
 270 620 273 637 284 637 c 0
 292 637 294 630 294 621 c 2
 294 610 l 2
 294 554 353 541 388 541 c 0
 444 541 505 572 525 622 c 0
 527 628 532 637 539 637 c 0
 543 637 549 634 549 625 c 0
 549 593 486 504 384 504 c 0
 319 504 270 544 270 603 c 0
EndSplineSet
EndChar

StartChar: macron
Encoding: 175 175 21
Width: 511
Flags: HW
TeX: 661 0
ItalicCorrection: 126
HStem: 650 31<256.078 585.834>
VStem: 256 330<650 681>
LayerCount: 2
Fore
SplineSet
256 664 m 0
 256 670 258 681 277 681 c 2
 564 681 l 2
 577 681 586 679 586 668 c 0
 586 661 583 650 564 650 c 2
 277 650 l 2
 268 650 256 652 256 664 c 0
EndSplineSet
EndChar

StartChar: dotaccent
Encoding: 729 729 22
Width: 307
Flags: HW
TeX: 661 0
ItalicCorrection: 117
HStem: 563 105<283.128 355.197>
VStem: 266 107<580.592 650.408>
LayerCount: 2
Fore
SplineSet
266 606 m 0
 266 636 295 668 329 668 c 0
 353 668 373 651 373 625 c 0
 373 595 343 563 309 563 c 0
 283 563 266 582 266 606 c 0
EndSplineSet
EndChar

StartChar: cedilla
Encoding: 184 184 23
Width: 460
Flags: HW
TeX: 0 170
HStem: -192 22<77.0102 194.612>
VStem: 183 79<-51.5556 18.25> 244 65<-147.358 -77.989>
LayerCount: 2
Fore
SplineSet
77 -181 m 0
 77 -170 91 -170 103 -170 c 2
 105 -170 l 2
 170 -170 244 -161 244 -109 c 0xa0
 244 -62 183 -82 183 -57 c 0
 183 -50 185 -48 196 -2 c 0
 201 20 204 22 227 22 c 2xc0
 238 22 l 2
 256 22 262 19 262 8 c 0xc0
 262 -3 256 -22 248 -53 c 1
 276 -59 309 -73 309 -109 c 0
 309 -179 215 -192 99 -192 c 2
 95 -192 l 2
 79 -192 77 -185 77 -181 c 0
EndSplineSet
EndChar

StartChar: ogonek
Encoding: 731 731 24
Width: 307
Flags: HW
TeX: 0 194
HStem: -179 40<61.6429 149.801>
VStem: 12 68<-137.086 -88.2913>
LayerCount: 2
Fore
SplineSet
12 -123 m 0
 12 -49 138 -20 185 10 c 0
 193 15 200 20 206 20 c 0
 211 20 215 17 215 12 c 0
 215 -9 80 -90 80 -116 c 0
 80 -130 96 -139 113 -139 c 0
 162 -139 190 -88 205 -88 c 0
 215 -88 216 -99 208 -110 c 0
 191 -132 141 -179 82 -179 c 0
 43 -179 12 -157 12 -123 c 0
EndSplineSet
EndChar

StartChar: guilsinglleft
Encoding: 8249 8249 26
Width: 460
Flags: HW
TeX: 483 0
ItalicCorrection: 69
VStem: 309 24<2.19882 60.6801>
LayerCount: 2
Fore
SplineSet
190 241 m 0
 190 259 279 290 389 426 c 0
 423 468 431 481 439 481 c 0
 442 481 448 479 448 472 c 0
 448 458 368 333 256 240 c 1
 331 119 333 23 333 17 c 0
 333 9 331 2 322 2 c 0
 313 3 311 13 309 21 c 0
 276 171 190 224 190 241 c 0
EndSplineSet
EndChar

StartChar: guilsinglright
Encoding: 8250 8250 27
Width: 460
Flags: HW
TeX: 483 0
ItalicCorrection: 69
VStem: 247 24<422.089 480.726> 324 66<227.068 270.145>
LayerCount: 2
Fore
SplineSet
132 11 m 0
 132 28 223 161 324 243 c 1
 324 244 l 1
 268 323 247 432 247 467 c 0
 247 473 249 481 257 481 c 0
 266 481 270 469 271 462 c 0
 304 311 390 259 390 242 c 0
 390 225 293 186 191 57 c 0
 157 14 151 2 141 2 c 0
 138 2 132 4 132 11 c 0
EndSplineSet
EndChar

StartChar: quotedblright
Encoding: 8221 8221 29
Width: 361
Flags: HW
TeX: 688 0
ItalicCorrection: 69
HStem: 589 105<401.128 470.344> 590 105<204.072 273.345>
VStem: 187 113<611.398 677.751> 384 113<611.222 676.929>
LayerCount: 2
Fore
SplineSet
346 405 m 0
 346 409 347 413 351 417 c 0
 362 428 451 495 471 606 c 1
 457 595 444 589 427 589 c 0
 401 589 384 605 384 630 c 0
 384 661 411 694 448 694 c 0
 467 694 497 683 497 632 c 0xb0
 497 522 380 396 355 396 c 0
 349 396 346 400 346 405 c 0
EndSplineSet
Refer: 50 8217 S 1 0 0 1 -72 1 2
EndChar

StartChar: quotedblbase
Encoding: 8222 8222 30
Width: 361
Flags: HW
TeX: 105 194
ItalicCorrection: 69
HStem: 0 106<58.7981 127.345 255.798 324.345>
VStem: 41 112<17.9802 88.1979> 238 112<17.9802 88.1979>
LayerCount: 2
Fore
SplineSet
2 -183 m 0
 2 -166 102 -113 128 17 c 1
 114 6 102 0 84 0 c 0
 58 0 41 17 41 42 c 0
 41 74 70 106 105 106 c 0
 144 106 153 70 153 45 c 0
 153 -70 36 -192 12 -192 c 0
 7 -192 2 -188 2 -183 c 0
199 -183 m 0
 199 -163 298 -116 325 17 c 1
 311 6 299 0 281 0 c 0
 255 0 238 17 238 42 c 0
 238 74 267 106 302 106 c 0
 341 106 350 70 350 45 c 0
 350 -70 233 -192 209 -192 c 0
 204 -192 199 -188 199 -183 c 0
EndSplineSet
EndChar

StartChar: endash
Encoding: 8211 8211 33
Width: 511
Flags: HW
TeX: 430 0
ItalicCorrection: 91
HStem: 255 22<110.5 526 118 526>
VStem: 93 458<260.5 271.5>
LayerCount: 2
Fore
SplineSet
93 266 m 0
 93 277 103 277 118 277 c 2
 526 277 l 2
 541 277 551 277 551 266 c 0
 551 255 541 255 526 255 c 2
 118 255 l 2
 103 255 93 255 93 266 c 0
EndSplineSet
EndChar

StartChar: emdash
Encoding: 8212 8212 34
Width: 1022
Flags: HW
TeX: 430 0
ItalicCorrection: 91
HStem: 255 22<136.5 1011 144 1011>
VStem: 119 917<260.5 271.5>
LayerCount: 2
Fore
SplineSet
119 266 m 0
 119 277 129 277 144 277 c 2
 1011 277 l 2
 1026 277 1036 277 1036 266 c 0
 1036 255 1026 255 1011 255 c 2
 144 255 l 2
 129 255 119 255 119 266 c 0
EndSplineSet
Substitution2: "Cyrillic substitutions subtable" emdash.cyr
AlternateSubs2: "Cyrillic alternatives subtable" emdash.cyr
EndChar

StartChar: dotlessi
Encoding: 305 305 36
Width: 306
Flags: HW
TeX: 430 0
ItalicCorrection: 76
HStem: -11 22<202 235 202 251> 420 22<180 214.5>
VStem: 128 56<49.5 52 25.5 79> 231 55<380 389.5 352.5 403.5>
AnchorPoint: "below" 154 0 basechar 0
AnchorPoint: "above" 264 442 basechar 0
LayerCount: 2
Fore
SplineSet
83 288 m 0
 83 293 117 442 211 442 c 0
 248 442 286 417 286 362 c 0
 286 343 284 335 274 306 c 0
 253 249 232 192 210 135 c 1
 197 98 184 65 184 39 c 0
 184 12 198 11 206 11 c 0
 264 11 291 107 299 136 c 0
 303 151 303 153 316 153 c 0
 323 153 331 153 331 143 c 0
 331 139 298 -11 204 -11 c 0
 152 -11 128 30 128 69 c 0
 128 89 132 100 146 138 c 0
 158 171 170 204 183 237 c 0
 191 260 202 289 213 320 c 0
 220 339 231 368 231 392 c 0
 231 415 220 420 209 420 c 0
 151 420 125 327 116 294 c 0
 112 280 111 278 98 278 c 0
 93 278 83 278 83 288 c 0
EndSplineSet
EndChar

StartChar: dotlessj
Encoding: 567 567 37
Width: 332
Flags: HW
TeX: 430 194
ItalicCorrection: 37
HStem: -205 22<50.5 89.5 50.5 93.5> 420 22<208 246.5>
VStem: -35 84<-168.5 -119.5> 261 60<372 375.5 345 389>
AnchorPoint: "below" 90 -194 basechar 0
AnchorPoint: "above" 314 442 basechar 0
LayerCount: 2
Fore
SplineSet
-35 -146 m 0
 -35 -111 -6 -94 14 -94 c 0
 40 -94 49 -113 49 -126 c 0
 49 -128 48 -162 13 -173 c 1
 31 -183 48 -183 53 -183 c 0
 126 -183 157 -62 158 -56 c 2
 254 329 l 2
 258 345 261 364 261 380 c 0
 261 398 259 420 234 420 c 0
 182 420 142 358 117 295 c 0
 111 279 111 278 98 278 c 0
 93 278 83 278 83 288 c 0
 83 295 136 442 235 442 c 0
 291 442 321 399 321 352 c 0
 321 338 317 322 316 319 c 2
 223 -55 l 2
 204 -130 135 -205 52 -205 c 0
 16 -205 -35 -191 -35 -146 c 0
EndSplineSet
EndChar

StartChar: ff
Encoding: 64256 64256 38
Width: 613
Flags: HW
TeX: 688 194
ItalicCorrection: 211
HStem: -205 22<22.5443 78.0072 265.002 342.751> -165 80<14 49.75 252 284.055> 400 30<127.1 212 283 508 579 680.84> 585 79<453.574 485 683.039 717> 683 23<372.75 471.577 645.335 708.105>
VStem: -25 83<-155.923 -94.6108> 210 83<-153.983 -94.4562> 445 83<593.913 654.068> 675 82<594.56 654.799>
DStem2: 118 -70 206 38 0.196116 0.980581<-50.8281 479.308 522.65 734.574>
LayerCount: 2
Fore
SplineSet
-25 -139 m 0
 -25 -103 3 -85 25 -85 c 0
 47 -85 58 -101 58 -118 c 0
 58 -137 45 -159 14 -165 c 1
 24 -174 36 -183 53 -183 c 0
 92 -183 105 -125 118 -70 c 0
 146 46 212 400 212 400 c 1
 198 400 184 399 170 399 c 2
 154 399 l 2
 139 399 129 400 127 409 c 0
 125 416 128 429 142 430 c 0
 151 431 161 430 170 430 c 2
 218 430 l 1
 244 565 253 706 422 706 c 2
 423 706 l 1
 488 705 528 678 528 638 c 0
 528 611 509 585 479 585 c 0
 459 585 445 599 445 617 c 0
 445 631 453 654 485 664 c 1
 469 675 451 683 422 683 c 0
 391 683 351 668 334 640 c 0
 313 605 296 492 283 430 c 1
 515 430 l 1
 542 596 563 637 582 660 c 0
 598 679 630 706 671 706 c 0
 710 706 757 684 757 639 c 0
 757 607 732 585 708 585 c 0
 689 585 675 597 675 617 c 0
 675 636 689 659 717 665 c 1
 702 678 688 683 675 683 c 0
 652 683 633 664 625 645 c 0
 616 624 588 480 579 430 c 1
 659 430 l 2
 669 430 681 430 681 417 c 0
 681 409 675 401 661 400 c 1
 573 400 l 1
 499 14 487 -89 414 -157 c 0
 393 -176 355 -206 305 -206 c 0
 265 -206 210 -188 210 -139 c 0
 210 -113 229 -85 259 -85 c 0
 279 -85 293 -99 293 -117 c 0
 293 -136 280 -157 252 -164 c 1
 266 -174 284 -183 306 -183 c 0
 346 -183 388 -144 406 -91 c 0
 435 -5 491 316 508 400 c 1
 277 400 l 1
 277 399 l 1
 271 363 214 74 206 38 c 0
 184 -58 145 -205 54 -205 c 0
 17 -205 -25 -183 -25 -139 c 0
EndSplineSet
Ligature2: "Latin ligatures subtable" f f
EndChar

StartChar: fi
Encoding: 64257 64257 39
Width: 562
Flags: HW
TeX: 688 194
ItalicCorrection: 103
HStem: -205 22<22.5443 78.3431> -165 80<14 49.75> -11 23<465.219 507.319> 400 30<126.009 212 283 476> 574 80<520.879 556> 683 23<387.532 527.971>
VStem: -25 83<-155.923 -94.6108> 218 65<430 541.224> 400 60<16.5792 161.977> 513 83<583.545 644.998>
DStem2: 156 109 208 44 0.188973 0.981982<-227.647 296.339> 324.476 -205 389.228 -205 0.242599 0.970127<294.749 623.686>
LayerCount: 2
Fore
SplineSet
-25 -139 m 0
 -25 -103 3 -85 25 -85 c 0
 47 -85 58 -101 58 -118 c 0
 58 -137 45 -159 14 -165 c 1
 24 -174 36 -183 53 -183 c 0
 94 -183 108 -134 156 109 c 2
 204 357 l 2
 207 371 209 386 212 400 c 1
 198 400 184 399 170 399 c 2
 156 399 l 2
 139 399 126 400 126 415 c 0
 126 424 133 430 154 430 c 2
 218 430 l 1
 218 431 l 1
 249 622 280 706 456 706 c 0
 574 706 596 660 596 630 c 0
 596 599 575 574 547 574 c 0
 527 574 513 588 513 607 c 0
 513 626 526 649 556 654 c 1
 541 667 520 683 454 683 c 0
 345 683 328 621 323 608 c 0
 304 558 283 432 283 430 c 1
 523 430 l 2
 540 430 544 426 544 418 c 0
 544 413 542 406 540 398 c 2
 470 118 l 2
 467 106 460 76 460 51 c 0
 460 30 465 12 485 12 c 0
 529 12 550 124 556 141 c 0
 559 150 566 153 572 153 c 0
 577 153 586 151 586 141 c 0
 586 133 582 116 570 78 c 0
 557 40 535 -11 483 -11 c 0
 433 -11 400 29 400 79 c 0
 400 99 406 120 409 133 c 2
 476 400 l 1
 277 400 l 1
 277 399 l 1
 271 363 216 79 208 44 c 0
 186 -56 146 -205 54 -205 c 0
 17 -205 -25 -183 -25 -139 c 0
EndSplineSet
Ligature2: "Latin ligatures excepting Turkic subtable" f i
EndChar

StartChar: fl
Encoding: 64258 64258 40
Width: 588
Flags: HW
TeX: 688 194
ItalicCorrection: 103
HStem: -205 22<22.982 78.3301> -165 80<14 49.75> -11 23<491.717 534.898> 400 30<126.009 212 283 502> 585 79<484.608 515> 674 20G<584 620.5> 683 23<379.738 500.76>
VStem: -25 83<-155.011 -94.5571> 425 60<15.9117 158.422> 589 22<128.375 151.57>
DStem2: 158 118 229 151 0.188265 0.982118<-182.839 287.124 329.954 531.652> 349.975 -205 415.476 -205 0.242599 0.970127<294.628 623.808 654.61 843.302 863.918 928.694>
LayerCount: 2
Fore
SplineSet
-25 -139 m 0
 -25 -112 -5 -85 25 -85 c 0
 47 -85 58 -101 58 -118 c 0
 58 -137 45 -159 14 -165 c 1
 24 -174 36 -183 53 -183 c 0
 97 -183 112 -119 158 118 c 0
 201 343 206 372 212 400 c 1
 198 400 184 399 170 399 c 2
 156 399 l 2
 139 399 126 400 126 415 c 0
 126 424 135 430 154 430 c 2
 218 430 l 1
 218 431 l 1
 246 601 271 705 435 706 c 1
 436 706 l 2xfbc0
 560 706 559 650 560 633 c 1
 573 693 575 694 593 694 c 2xfdc0
 616 694 l 2xfdc0
 625 694 636 693 636 681 c 0
 636 676 634 671 633 666 c 2
 500 133 l 2
 496 115 485 81 485 50 c 0
 485 32 491 12 511 12 c 0
 563 12 573 143 589 151 c 0
 596 155 609 153 611 144 c 0
 612 138 610 132 609 126 c 0
 588 47 566 -11 509 -11 c 0
 480 -11 425 8 425 79 c 0
 425 99 432 120 438 147 c 2
 502 400 l 1
 277 400 l 1
 229 151 l 2
 190 -54 166 -120 126 -167 c 0
 106 -190 83 -205 54 -205 c 0
 11 -205 -25 -179 -25 -139 c 0
283 430 m 1
 509 430 l 1
 555 613 l 1
 545 597 531 585 510 585 c 0xfbc0
 492 585 477 598 477 617 c 0
 477 636 489 656 515 664 c 1
 495 677 472 683 438 683 c 0
 396 683 361 669 341 646 c 0
 315 616 291 481 283 430 c 1
EndSplineSet
Ligature2: "Latin ligatures subtable" f l
EndChar

StartChar: ffi
Encoding: 64259 64259 41
Width: 881
Flags: HW
TeX: 688 194
ItalicCorrection: 103
HStem: -205 22<22.5443 78.2479 266.338 348.08> -165 80<14 49.75> -11 23<784.052 826.233> 400 30<127.1 212 283 518 589 795> 574 80<840.216 875> 683 23<378.651 495.516 693.255 845.557>
VStem: -25 83<-155.923 -94.5001> 210 83<-155.277 -94.3867> 471 83<594.536 654.317> 719 60<16.5861 159.469> 832 83<583.926 644.998>
DStem2: 118 -70 208 48 0.196116 0.980581<-53.42 479.308 522.65 729.313> 518 400 526 103 0.189182 0.981942<-220.054 0 42.8902 240.82> 643.226 -206 709.227 -206 0.242599 0.970127<295.78 624.717>
LayerCount: 2
Fore
SplineSet
-25 -139 m 0
 -25 -105 0 -85 25 -85 c 0
 47 -85 58 -101 58 -118 c 0
 58 -137 45 -159 14 -165 c 1
 24 -174 36 -183 53 -183 c 0
 92 -183 105 -125 118 -70 c 0
 146 46 212 400 212 400 c 1
 198 400 183 399 169 399 c 2
 154 399 l 2
 139 399 129 400 127 409 c 0
 125 415 127 428 142 430 c 0
 151 431 161 430 170 430 c 2
 218 430 l 1
 246 577 255 706 433 706 c 0
 487 706 554 692 554 638 c 0
 554 603 527 585 504 585 c 0
 486 585 471 595 471 617 c 0
 471 642 492 659 509 664 c 1
 490 677 468 683 435 683 c 0
 393 683 358 668 339 644 c 0
 314 613 301 516 283 430 c 1
 525 430 l 1
 556 591 563 706 768 706 c 0
 896 706 915 660 915 630 c 0
 915 588 883 574 866 574 c 0
 847 574 832 587 832 607 c 0
 832 626 845 648 875 654 c 1
 860 667 837 683 768 683 c 0
 617 683 624 595 589 430 c 1
 842 430 l 2
 858 430 863 427 863 418 c 0
 863 413 862 407 860 398 c 2
 790 117 l 2
 783 90 779 68 779 50 c 0
 779 26 786 12 804 12 c 0
 848 12 867 120 875 141 c 0
 878 150 885 153 891 153 c 0
 896 153 905 151 905 141 c 0
 905 133 901 116 889 78 c 0
 876 40 854 -11 802 -11 c 0
 752 -11 719 29 719 79 c 0
 719 99 725 120 728 133 c 2
 795 400 l 1
 583 400 l 1
 578 370 560 281 526 103 c 0
 495 -54 471 -110 428 -152 c 0
 376 -202 328 -206 311 -206 c 0
 269 -206 210 -188 210 -138 c 0
 210 -110 231 -85 260 -85 c 0
 285 -85 293 -106 293 -116 c 0
 293 -145 271 -159 253 -164 c 1
 262 -171 281 -183 310 -183 c 0
 359 -183 402 -130 414 -94 c 1
 444 -12 518 400 518 400 c 1
 277 400 l 1
 271 365 216 83 208 48 c 0
 185 -55 147 -205 54 -205 c 0
 17 -205 -25 -183 -25 -139 c 0
EndSplineSet
Ligature2: "Latin ligatures excepting Turkic subtable" ff i
Ligature2: "Latin ligatures excepting Turkic subtable" f f i
EndChar

StartChar: ffl
Encoding: 64260 64260 42
Width: 894
Flags: HW
TeX: 688 194
ItalicCorrection: 103
HStem: -205 22<22.5443 78.1351 265.803 349.319> -165 80<14 49.75 253 284.245> -11 23<798.267 839.972> 400 30<127.1 212 283 519 590 808> 585 79<454.051 485 791.015 822> 674 20G<890 927.5> 683 23<374.389 471.577 686.613 808.282>
VStem: -25 83<-155.923 -94.6108> 210 83<-155.277 -94.5749> 446 82<593.913 655.748> 519 65<300.535 400 430 512.478> 732 60<16.3443 161.312> 896 22<130.752 151.57>
DStem2: 118 -70 207 42 0.196116 0.980581<-49.5706 479.308 522.65 735.574> 656.227 -206 721.226 -206 0.242599 0.970127<295.639 624.717 655.761 844.454 865.07 929.846>
LayerCount: 2
Fore
SplineSet
-25 -139 m 0
 -25 -103 3 -85 25 -85 c 0
 47 -85 58 -101 58 -118 c 0
 58 -137 45 -159 14 -165 c 1
 24 -174 36 -183 53 -183 c 0
 92 -183 105 -125 118 -70 c 0
 146 46 212 400 212 400 c 1
 198 400 183 399 169 399 c 2
 154 399 l 2
 139 399 129 400 127 409 c 0
 125 416 128 429 142 430 c 0
 151 431 161 430 170 430 c 2
 218 430 l 1
 243 562 252 616 292 657 c 0
 321 687 365 706 421 706 c 2
 423 706 l 1
 488 705 528 678 528 638 c 0
 528 611 509 585 479 585 c 0
 459 585 446 599 446 617 c 0
 446 631 453 654 485 664 c 1
 480 667 460 683 423 683 c 0
 392 683 351 668 334 640 c 0
 313 605 296 492 283 430 c 1
 525 430 l 1
 552 602 578 706 744 706 c 0xfbd8
 851 706 866 662 866 633 c 1
 867 633 l 1
 880 693 881 694 899 694 c 0xfdd8
 907 694 915 694 923 694 c 0
 932 694 943 693 943 681 c 0
 943 676 941 672 940 667 c 2
 806 133 l 2
 802 115 792 81 792 50 c 0
 792 32 797 12 817 12 c 0
 868 12 880 143 896 151 c 0
 903 155 916 153 918 144 c 0
 919 138 916 132 915 126 c 0
 894 45 872 -11 816 -11 c 0
 786 -11 732 9 732 79 c 0
 732 96 735 109 738 121 c 2
 808 400 l 1
 584 400 l 1
 531 122 504 -54 451 -126 c 0
 429 -157 377 -206 311 -206 c 0
 267 -206 210 -188 210 -138 c 0
 210 -108 233 -85 259 -85 c 0
 278 -85 293 -98 293 -117 c 0
 293 -136 280 -157 253 -164 c 1
 268 -175 286 -183 310 -183 c 0
 323 -183 344 -181 373 -155 c 0
 439 -94 435 -3 519 400 c 1xfdb8
 277 400 l 1
 277 399 l 1
 271 363 215 78 207 42 c 0
 185 -56 146 -205 54 -205 c 0
 17 -205 -25 -183 -25 -139 c 0
590 430 m 1
 816 430 l 1
 862 613 l 1
 861 613 l 1
 851 597 838 585 817 585 c 0xfb98
 799 585 783 598 783 617 c 0
 783 636 796 656 822 664 c 1
 802 677 779 683 745 683 c 0
 703 683 668 669 648 646 c 0
 622 616 598 481 590 430 c 1
EndSplineSet
Ligature2: "Latin ligatures subtable" ff l
Ligature2: "Latin ligatures subtable" f f l
EndChar

StartChar: uni2423
Encoding: 9251 9251 43
Width: 511
Flags: HW
TeX: 430 97
ItalicCorrection: 47
HStem: -97 63<121.899 377.221>
LayerCount: 2
Fore
SplineSet
77 47 m 0
 77 57 83 63 92 63 c 0
 120 63 101 11 125 -17 c 0
 138 -32 163 -34 187 -34 c 2
 213 -34 l 2
 237 -34 261 -33 285 -33 c 0
 290 -33 294 -34 299 -34 c 0
 362 -34 379 -22 420 44 c 0
 425 53 432 63 443 63 c 0
 451 63 457 58 457 52 c 0
 457 45 455 42 379 -82 c 0
 372 -93 369 -97 352 -97 c 2
 113 -97 l 2
 90 -97 91 -85 88 -60 c 0
 84 -24 77 43 77 47 c 0
EndSplineSet
EndChar

StartChar: exclam
Encoding: 33 33 44
Width: 307
Flags: HW
TeX: 688 0
ItalicCorrection: 124
HStem: 0 106<129.789 201.839> 696 20G<321.5 340.5>
VStem: 112 108<18.045 88.0312> 188 34<187.279 228.34> 264 109<610.84 698.175>
LayerCount: 2
Fore
SplineSet
112 43 m 0xe8
 112 78 146 106 176 106 c 0
 200 106 220 89 220 63 c 0
 220 33 190 0 156 0 c 0
 130 0 112 19 112 43 c 0xe8
188 201 m 0
 188 204 188 208 189 211 c 2
 264 652 l 2
 274 711 314 716 329 716 c 0
 352 716 373 701 373 676 c 0
 373 666 369 656 366 646 c 2
 222 207 l 2
 219 198 215 187 202 187 c 0xd8
 193 187 188 192 188 201 c 0
EndSplineSet
EndChar

StartChar: quotedbl
Encoding: 34 34 45
Width: 511
Flags: HW
TeX: 688 0
ItalicCorrection: 86
HStem: 685 20G<340.5 359.5 493.5 514>
VStem: 254 24<338.239 353> 409 24<338.228 353>
LayerCount: 2
Fore
SplineSet
254 352 m 0
 254 360 302 665 306 675 c 0
 313 692 331 704 350 705 c 0
 369 705 385 693 385 673 c 0
 385 662 381 650 377 640 c 2
 278 353 l 2
 276 347 272 338 264 338 c 0
 260 338 254 341 254 352 c 0
409 354 m 0
 409 360 455 661 461 675 c 0
 468 692 484 704 503 705 c 1
 504 705 l 2
 524 705 539 691 539 673 c 0
 539 662 534 650 531 640 c 2
 433 353 l 2
 431 347 427 338 419 338 c 0
 412 338 409 344 409 354 c 0
EndSplineSet
EndChar

StartChar: numbersign
Encoding: 35 35 46
Width: 818
Flags: HW
TeX: 688 194
ItalicCorrection: 66
HStem: 142 22<116.01 294 331 512 549 775.989> 336 22<165.011 391 428 610 647 823.991> 672 20G<574.5 581.5 793.5 800.5>
DStem2: 167 -110 170 -157 0.449477 0.893292<-79.8856 282.193 318.476 499.091 535.374 901.003> 386 -110 388 -157 0.448079 0.893994<-80.3401 281.744 317.991 499.091 535.338 900.992>
LayerCount: 2
Fore
SplineSet
116 153 m 0
 116 164 130 164 141 164 c 2
 305 164 l 1
 391 336 l 1
 191 336 l 2
 180 336 165 336 165 347 c 0
 165 358 177 358 188 358 c 2
 403 358 l 1
 403 358 555 663 564 679 c 0
 567 684 571 692 578 692 c 0
 585 692 592 686 584 669 c 2
 428 358 l 1
 622 358 l 1
 622 358 773 663 782 679 c 0
 785 684 790 692 797 692 c 0
 804 692 810 686 802 669 c 2
 647 358 l 1
 801 358 l 2
 812 358 824 357 824 347 c 0
 824 336 811 336 800 336 c 2
 635 336 l 1
 549 164 l 1
 750 164 l 2
 761 164 776 164 776 153 c 0
 776 143 766 142 752 142 c 2
 537 142 l 1
 388 -157 l 2
 380 -173 372 -192 362 -192 c 0
 356 -192 353 -189 353 -184 c 0
 353 -170 370 -141 386 -110 c 2
 512 142 l 1
 319 142 l 1
 170 -157 l 2
 162 -173 154 -192 144 -192 c 0
 138 -192 135 -189 135 -184 c 0
 135 -170 151 -141 167 -110 c 2
 294 142 l 1
 139 142 l 2
 129 142 116 143 116 153 c 0
331 164 m 1
 524 164 l 1
 610 336 l 1
 416 336 l 1
 331 164 l 1
EndSplineSet
EndChar

StartChar: dollar
Encoding: 36 36 47
Width: 511
Flags: HW
TeX: 749 55
ItalicCorrection: 135
HStem: -10 30<192.641 236> 143 79<145.981 194.749> 324 83<291.617 320> 486 79<490.206 539.273>
VStem: 113 32<65.324 142.966> 199 56<442.225 559.594> 432 56<148.607 278.154> 540 31<567.32 629.441>
DStem2: 224.747 -55 255.997 -55 0.242599 0.970127<15.3137 46.3857 86.1636 389.091 476.159 750.467 790.972 823.348>
LayerCount: 2
Fore
SplineSet
113 123 m 0
 113 170 125 222 169 222 c 0
 191 222 202 207 202 189 c 0
 202 167 185 143 151 143 c 2
 145 143 l 1
 145 127 l 2
 145 42 203 24 244 20 c 1
 320 324 l 1
 303 328 199 348 199 468 c 0
 199 575 289 691 415 705 c 1
 422 734 424 749 439 749 c 0
 449 749 453 745 453 737 c 0
 453 729 449 718 446 705 c 1
 520 699 571 657 571 578 c 0
 571 499 539 486 517 486 c 0
 495 486 483 502 483 519 c 0
 483 541 500 565 534 565 c 2
 540 565 l 1
 540 596 539 664 439 674 c 1
 370 398 l 1
 385 394 488 376 488 248 c 0
 488 131 395 5 267 -11 c 1
 261 -40 258 -55 243 -55 c 0
 233 -55 230 -49 230 -41 c 0
 230 -31 234 -18 236 -10 c 1
 156 -3 113 46 113 123 c 0
255 506 m 0
 255 423 329 410 340 407 c 1
 407 673 l 1
 311 656 255 573 255 506 c 0
276 21 m 1
 362 35 432 126 432 211 c 0
 432 300 361 312 349 315 c 1
 276 21 l 1
EndSplineSet
EndChar

StartChar: percent
Encoding: 37 37 48
Width: 817
Flags: HW
TeX: 749 55
ItalicCorrection: 136
HStem: -56 22<588 641.5 588 654.5> 325 22<659.5 721.5> 347 22<282 334 282 344> 621 22<576.5 623> 728 22<352 413 349.5 415>
VStem: 205 51<439 485.5 435 545> 449 30<568 630.5 559.5 652> 513 51<39 79.5 38.5 140.5> 757 31<163.5 245 160.5 254>
LayerCount: 2
Fore
SplineSet
145 -36 m 0
 145 -28 149 -24 156 -16 c 2
 729 649 l 1
 729 650 l 1
 681 628 639 621 607 621 c 0
 546 621 499 645 476 663 c 1
 479 649 479 637 479 624 c 0
 479 495 388 347 300 347 c 0
 245 347 205 398 205 480 c 0
 205 610 304 750 395 750 c 0
 431 750 447 729 455 718 c 0
 469 699 511 643 608 643 c 0
 684 643 759 682 802 732 c 0
 813 745 817 750 827 750 c 0
 837 750 846 741 846 730 c 0
 846 722 842 718 835 709 c 2
 186 -43 l 2
 176 -55 171 -56 165 -56 c 0
 155 -56 145 -47 145 -36 c 0
256 449 m 0
 256 421 262 369 302 369 c 0
 366 369 449 507 449 629 c 0
 449 675 435 728 395 728 c 0
 309 728 256 522 256 449 c 0
513 77 m 0
 513 204 610 347 704 347 c 0
 770 347 788 269 788 221 c 0xdf80
 788 100 701 -56 608 -56 c 0
 550 -56 513 1 513 77 c 0
564 46 m 0
 564 31 566 -34 610 -34 c 0
 673 -34 757 101 757 226 c 0
 757 282 739 325 704 325 c 0
 615 325 564 113 564 46 c 0
EndSplineSet
EndChar

StartChar: ampersand
Encoding: 38 38 49
Width: 766
Flags: HW
TeX: 688 0
ItalicCorrection: 96
HStem: -22 22<343.5 514 343.5 521> 242 78<558.5 567.5> 439 22<352 375> 522 81<470.5 499 470.5 502> 694 22<377.5 439>
VStem: 126 76<124 184 95.5 194.5> 400 30<388 418.5> 490 31<306 339 306 348> 702 32<268 329>
LayerCount: 2
Fore
SplineSet
126 176 m 0
 126 213 147 305 219 383 c 0
 220 385 222 387 222 389 c 0
 222 390 222 391 220 396 c 0
 211 424 211 443 211 456 c 0
 211 582 317 716 424 716 c 0
 493 716 530 662 530 601 c 0
 530 583 527 522 477 522 c 0
 451 522 442 541 442 554 c 0
 442 555 442 603 499 603 c 1
 498 676 454 694 424 694 c 0
 331 694 272 530 269 427 c 1
 302 449 337 461 367 461 c 0
 403 461 430 439 430 401 c 0
 430 355 386 310 334 310 c 0
 287 310 256 339 253 342 c 1
 230 301 202 212 202 156 c 0
 202 35 304 0 383 0 c 0
 645 0 702 228 702 308 c 0
 702 350 692 394 650 448 c 1
 558 391 521 368 521 310 c 0
 521 302 521 296 524 288 c 1
 531 306 548 320 569 320 c 0
 584 320 601 312 601 289 c 0
 601 265 582 242 553 242 c 0
 518 242 490 269 490 313 c 0
 490 383 557 425 606 455 c 0
 654 485 723 529 758 616 c 1
 736 617 724 628 724 647 c 0
 724 677 750 694 771 694 c 0
 787 694 804 684 804 663 c 0
 804 646 773 536 677 467 c 1
 712 421 734 371 734 311 c 0
 734 211 660 -22 382 -22 c 0
 217 -22 126 72 126 176 c 0
276 379 m 1
 286 352 306 332 336 332 c 0
 373 332 400 370 400 406 c 0
 400 431 383 439 367 439 c 0
 324 439 286 392 276 379 c 1
EndSplineSet
EndChar

StartChar: quoteright
Encoding: 8217 8217 50
Width: 307
Flags: HW
TeX: 688 0
ItalicCorrection: 124
HStem: 589 105<276.072 345.345>
VStem: 259 113<610.398 676.751>
LayerCount: 2
Fore
SplineSet
220 406 m 0
 220 414 234 423 241 429 c 0
 291 473 333 537 346 606 c 1
 332 595 320 589 303 589 c 0
 277 589 259 605 259 630 c 0
 259 661 286 694 323 694 c 0
 342 694 372 682 372 631 c 0
 372 522 255 396 230 396 c 0
 225 396 220 401 220 406 c 0
EndSplineSet
EndChar

StartChar: parenleft
Encoding: 40 40 51
Width: 408
Flags: HW
TeX: 749 249
ItalicCorrection: 161
HStem: -250 21<254 264> 730 20<500.5 509>
VStem: 152 50<17.5 79 -24 100.5>
LayerCount: 2
Fore
SplineSet
152 47 m 0
 152 154 183 346 293 527 c 0
 380 669 495 750 506 750 c 0
 512 750 516 747 516 740 c 0
 516 737 515 736 501 722 c 1
 261 518 202 147 202 11 c 0
 202 -59 210 -144 264 -226 c 0
 271 -236 271 -238 271 -240 c 0
 271 -246 267 -250 261 -250 c 0
 247 -250 204 -192 179 -125 c 0
 161 -75 152 -12 152 47 c 0
EndSplineSet
EndChar

StartChar: parenright
Encoding: 41 41 52
Width: 408
Flags: HW
TeX: 749 249
ItalicCorrection: 36
HStem: -250 21<25 33.5> 730 20<270 280>
VStem: 332 50<421 482.5 399.5 524>
LayerCount: 2
Fore
SplineSet
18 -240 m 0
 18 -237 19 -236 33 -222 c 1
 273 -18 332 353 332 489 c 0
 332 559 324 644 270 726 c 0
 263 736 263 738 263 740 c 0
 263 746 267 750 273 750 c 0
 287 750 330 692 355 625 c 0
 373 575 382 512 382 453 c 0
 382 346 351 154 241 -27 c 0
 154 -169 39 -250 28 -250 c 0
 22 -250 18 -247 18 -240 c 0
EndSplineSet
EndChar

StartChar: asterisk
Encoding: 42 42 53
Width: 511
Flags: HW
TeX: 749 0
ItalicCorrection: 149
HStem: 319 21<329.5 349> 730 20<429.5 448>
VStem: 195 388<429 635.5>
LayerCount: 2
Fore
SplineSet
195 435 m 0
 195 444 198 455 219 465 c 2
 369 535 l 1
 256 604 l 2
 245 611 242 613 242 622 c 0
 242 637 257 654 274 654 c 0
 282 654 284 652 293 643 c 2
 383 555 l 1
 410 716 l 2
 411 723 416 750 443 750 c 0
 453 750 463 743 463 732 c 0
 463 728 460 720 459 716 c 2
 406 555 l 1
 546 648 l 2
 549 650 555 654 563 654 c 0
 582 654 583 637 583 634 c 0
 583 617 569 608 559 604 c 2
 409 534 l 1
 522 466 l 2
 530 461 537 457 537 447 c 0
 537 431 520 415 505 415 c 0
 498 415 495 416 485 426 c 2
 395 514 l 1
 368 353 l 2
 367 345 362 319 336 319 c 0
 323 319 315 327 315 337 c 0
 315 342 318 349 319 353 c 2
 373 514 l 1
 232 421 l 2
 227 418 223 415 215 415 c 0
 203 415 195 423 195 435 c 0
EndSplineSet
EndChar

StartChar: plus
Encoding: 43 43 54
Width: 766
Flags: HW
TeX: 556 56
ItalicCorrection: 36
HStem: 239 22<141.009 431 460 749.991>
VStem: 507 22<501 553.931>
DStem2: 357.73 -54 380.998 -54 0.242599 0.970127<114.667 302.022 330.401 619.334>
LayerCount: 2
Fore
SplineSet
141 250 m 0
 141 260 153 262 164 262 c 0
 169 262 173 261 176 261 c 2
 437 261 l 1
 438 267 505 535 507 542 c 0
 509 548 513 554 519 554 c 0
 527 554 529 549 529 542 c 0
 529 533 525 522 524 517 c 2
 460 261 l 1
 715 261 l 2
 718 261 723 262 727 262 c 0
 738 262 750 260 750 250 c 0
 750 239 738 239 715 239 c 2
 454 239 l 1
 389 -22 l 2
 384 -41 382 -54 372 -54 c 0
 364 -54 362 -49 362 -42 c 0
 362 -29 409 144 431 239 c 1
 176 239 l 2
 173 239 167 238 163 238 c 0
 152 238 141 240 141 250 c 0
EndSplineSet
EndChar

StartChar: comma
Encoding: 44 44 55
Width: 306
Flags: HW
TeX: 105 194
HStem: -193 21<79.5 92> 0 106<158 167>
VStem: 113 111<26 56.5>
LayerCount: 2
Fore
SplineSet
73 -183 m 0
 73 -179 74 -178 86 -166 c 1
 133 -126 183 -62 198 15 c 1
 193 11 177 0 157 0 c 0
 136 0 113 10 113 42 c 0
 113 71 138 106 178 106 c 0
 210 106 224 80 224 47 c 0
 224 -72 101 -193 83 -193 c 0
 76 -193 73 -186 73 -183 c 0
EndSplineSet
EndChar

StartChar: hyphen
Encoding: 45 45 56
Width: 358
Flags: HW
TeX: 430 0
ItalicCorrection: 28
HStem: 187 56<90.4148 333.249>
VStem: 86 251<190.3 242.581>
LayerCount: 2
Fore
SplineSet
86 201 m 1
 86 201 90 236 103 241 c 0
 107 243 111 243 116 243 c 2
 315 243 l 2
 326 243 337 242 337 229 c 0
 337 228 334 196 323 190 c 0
 319 188 313 187 308 187 c 2
 108 187 l 2
 96 187 86 188 86 201 c 1
EndSplineSet
EndChar

StartChar: period
Encoding: 46 46 57
Width: 307
Flags: HW
TeX: 105 0
HStem: 0 106<130.161 200.839>
VStem: 112 107<18.045 87.955>
LayerCount: 2
Fore
SplineSet
112 43 m 0
 112 73 142 106 176 106 c 0
 202 106 219 87 219 63 c 0
 219 33 189 0 155 0 c 0
 129 0 112 19 112 43 c 0
EndSplineSet
EndChar

StartChar: slash
Encoding: 47 47 58
Width: 511
Flags: HW
TeX: 749 249
ItalicCorrection: 161
DStem2: 27 -217 66 -196 0.509519 0.860459<-22.3705 1120.78>
LayerCount: 2
Fore
SplineSet
18 -238 m 0
 18 -231 23 -223 27 -217 c 2
 570 700 l 2
 585 725 595 748 606 748 c 0
 612 748 616 742 616 737 c 0
 616 732 612 726 609 721 c 2
 66 -196 l 2
 36 -247 35 -248 27 -248 c 0
 21 -248 18 -244 18 -238 c 0
EndSplineSet
EndChar

StartChar: zero
Encoding: 48 48 59
Width: 511
Flags: HW
TeX: 641 0
ItalicCorrection: 135
HStem: -22 22<240 282 240 284> 644 22<399 436.5>
VStem: 117 64<132.5 139 59 192.5> 493 62<513 516 455.5 582>
LayerCount: 2
Fore
SplineSet
117 148 m 0
 117 237 160 412 209 505 c 0
 269 619 349 666 421 666 c 0
 550 666 555 536 555 496 c 0
 555 415 517 257 476 164 c 0
 411 19 317 -22 251 -22 c 0
 117 -22 117 117 117 148 c 0
181 98 m 0
 181 20 224 0 256 0 c 0
 308 0 358 51 380 98 c 0
 423 193 493 476 493 550 c 0
 493 614 457 644 416 644 c 0
 382 644 328 622 291 547 c 0
 256 475 181 180 181 98 c 0
EndSplineSet
Substitution2: "LGC old numerals subtable" zerooldstyle
EndChar

StartChar: one
Encoding: 49 49 60
Width: 511
Flags: HW
TeX: 641 0
ItalicCorrection: 135
HStem: 0 31<145 153 153 153.5 383 391 391 399> 506 31<254 254> 646 20<446 452>
LayerCount: 2
Fore
SplineSet
117 12 m 0
 117 31 128 31 145 31 c 2
 153 31 l 2
 231 31 239 41 247 73 c 2
 365 547 l 1
 318 512 269 506 254 506 c 0
 250 506 238 506 238 518 c 0
 238 535 249 536 254 537 c 0
 283 540 353 547 430 650 c 0
 442 665 443 666 449 666 c 0
 455 666 461 662 461 654 c 0
 461 652 459 644 458 641 c 2
 315 70 l 2
 314 66 312 57 312 51 c 0
 312 37 318 36 340 33 c 0
 353 32 370 31 383 31 c 2
 391 31 l 2
 407 31 417 31 417 19 c 0
 417 0 404 0 397 0 c 0
 353 0 307 3 263 3 c 0
 220 3 175 0 132 0 c 0
 128 0 117 0 117 12 c 0
EndSplineSet
Substitution2: "LGC old numerals subtable" oneoldstyle
EndChar

StartChar: two
Encoding: 50 50 61
Width: 511
Flags: HW
TeX: 641 0
ItalicCorrection: 135
HStem: -22 70<349 396.5 349 411.5> 55 22<168.5 188> 336 22<211 247.5 211 255.5> 644 22<331 412.5>
VStem: 165 30<389 423.5 377 431.5> 315 22<478.5 499> 480 71<461.5 554.5 432.5 575.5>
LayerCount: 2
Fore
SplineSet
84 -12 m 0
 84 -11 95 59 165 143 c 1
 207 195 249 219 294 246 c 0
 393 305 480 389 480 534 c 0
 480 617 433 644 392 644 c 0
 270 644 195 456 195 391 c 0
 195 363 205 358 217 358 c 0
 278 358 315 464 315 493 c 0
 315 505 311 518 305 530 c 0
 304 532 304 534 304 536 c 0
 304 542 309 547 315 547 c 0
 328 547 337 512 337 494 c 0
 337 456 295 336 216 336 c 0
 171 336 165 379 165 399 c 0
 165 464 247 666 395 666 c 0
 473 666 551 612 551 497 c 0
 551 368 460 306 306 219 c 0
 275 201 202 160 152 74 c 1
 154 75 163 77 174 77 c 0
 205 77 244 68 280 60 c 0
 296 56 335 48 363 48 c 0
 430 48 469 115 483 156 c 1
 487 172 488 173 500 173 c 0
 507 173 515 173 515 163 c 0
 515 152 469 -22 354 -22 c 0
 314 -22 283 0 257 18 c 0
 232 35 204 55 172 55 c 0
 142 55 124 19 116 -9 c 0
 113 -20 111 -22 99 -22 c 0
 94 -22 84 -22 84 -12 c 0
EndSplineSet
Substitution2: "LGC old numerals subtable" twooldstyle
EndChar

StartChar: three
Encoding: 51 51 62
Width: 511
Flags: HW
TeX: 641 0
ItalicCorrection: 135
HStem: -22 22<203 250.5 203 291> 104 80 319 31<294.5 327 304 327 327 331> 412 22<245 269.5 245 273.5> 644 22<368.5 435.5>
VStem: 199 30<462 510.5 462 518.5> 316 22<479 503.5> 408 72<143 276.5> 502 60<546 574.5 494 590>
LayerCount: 2
Fore
SplineSet
95 106 m 0
 95 124 97 184 148 184 c 0
 171 184 182 168 182 152 c 0
 182 137 169 100 126 104 c 1
 128 30 178 0 228 0 c 0
 273 0 319 25 347 59 c 1
 399 119 408 218 408 236 c 0
 408 317 350 319 331 319 c 2
 303 319 l 2
 286 319 278 319 278 329 c 0
 278 350 287 350 304 350 c 2
 327 350 l 2
 492 350 502 538 502 554 c 0
 502 626 454 644 417 644 c 0
 320 644 229 550 229 471 c 0
 229 453 235 434 255 434 c 0
 284 434 316 462 316 496 c 0
 316 511 309 524 308 525 c 0
 305 531 304 533 304 536 c 0
 304 542 309 547 315 547 c 0
 327 547 338 516 338 497 c 0
 338 447 292 412 255 412 c 0
 218 412 199 441 199 476 c 0
 199 561 300 666 419 666 c 0
 497 666 562 617 562 532 c 0
 562 456 504 365 400 330 c 1
 476 295 480 222 480 203 c 0
 480 83 354 -22 228 -22 c 0
 143 -22 95 38 95 106 c 0
EndSplineSet
Substitution2: "LGC old numerals subtable" threeoldstyle
EndChar

StartChar: four
Encoding: 52 52 63
Width: 511
Flags: HW
TeX: 641 194
ItalicCorrection: 135
HStem: -194 21<281 295.5> 36 31<165 177> 646 20<430.5 450>
VStem: 44 430<16 16.5 6 26>
LayerCount: 2
Fore
SplineSet
44 18 m 0
 44 34 76 51 83 54 c 1
 87 57 176 127 255 255 c 0
 326 371 370 491 403 616 c 0
 410 643 416 666 445 666 c 0
 455 666 472 661 472 640 c 0
 472 639 414 316 144 66 c 1
 157 67 159 67 171 67 c 0
 193 67 210 67 247 56 c 1
 276 46 235 59 308 33 c 1
 309 39 347 189 350 199 c 0
 354 216 360 242 390 242 c 0
 393 242 417 241 417 215 c 0
 417 212 417 210 413 195 c 2
 369 17 l 1
 374 16 378 16 385 16 c 0
 402 16 427 20 445 27 c 0
 455 31 457 31 459 31 c 0
 468 31 474 19 474 14 c 0
 474 -2 409 -15 381 -15 c 0
 375 -15 367 -15 361 -14 c 1
 324 -160 l 2
 318 -183 305 -194 286 -194 c 0
 276 -194 259 -189 259 -168 c 0
 259 -164 259 -162 263 -147 c 2
 300 2 l 1
 278 10 254 20 241 25 c 0
 206 36 186 36 168 36 c 0
 109 36 100 29 91 21 c 1
 80 13 65 1 59 1 c 0
 51 1 44 14 44 18 c 0
EndSplineSet
Substitution2: "LGC old numerals subtable" fouroldstyle
EndChar

StartChar: five
Encoding: 53 53 64
Width: 511
Flags: HW
TeX: 641 0
ItalicCorrection: 135
HStem: -22 28<218 254.5 218 300> 122 86<145.5 165> 398 22<350.5 385.5> 558 76<395 424> 645 20<287.5 293 556.5 559.5>
VStem: 426 72<281.5 304.5 189 336>
LayerCount: 2
Fore
SplineSet
107 117 m 0
 107 149 113 208 165 208 c 0
 188 208 201 194 201 174 c 0
 201 151 182 122 148 122 c 0
 143 122 141 122 138 123 c 1
 139 26 200 6 236 6 c 0
 273 6 332 28 376 109 c 0
 397 149 426 254 426 309 c 0
 426 363 406 398 365 398 c 0
 336 398 281 389 230 329 c 0
 223 322 221 319 214 319 c 0
 208 319 201 321 201 331 c 0
 201 333 202 341 203 344 c 2
 279 648 l 2
 282 659 284 665 291 665 c 0
 295 665 299 663 305 660 c 0
 334 644 373 634 417 634 c 0
 456 634 501 642 546 662 c 0
 551 664 555 665 558 665 c 0
 561 665 567 663 567 656 c 0
 567 641 479 558 369 558 c 0
 349 558 326 560 307 567 c 0
 297 570 295 570 294 570 c 0
 293 570 292 569 289 558 c 2
 243 374 l 1
 280 403 321 420 367 420 c 0
 454 420 498 344 498 265 c 0
 498 113 364 -22 236 -22 c 0
 150 -22 107 44 107 117 c 0
EndSplineSet
Substitution2: "LGC old numerals subtable" fiveoldstyle
EndChar

StartChar: six
Encoding: 54 54 65
Width: 511
Flags: HW
TeX: 641 0
ItalicCorrection: 135
HStem: -22 28<226.5 284 226.5 317> 404 22<336.5 371> 521 80<511 533> 641 25<439.5 481>
VStem: 120 65<82.5 193> 435 72<294 295 195 332.5>
LayerCount: 2
Fore
SplineSet
120 158 m 0
 120 228 142 387 227 507 c 0
 299 609 389 666 471 666 c 0
 531 666 568 637 568 587 c 0
 568 549 550 521 516 521 c 0
 490 521 482 539 482 553 c 0
 482 560 487 601 535 601 c 1
 525 637 492 641 470 641 c 0
 409 641 356 593 325 554 c 0
 279 495 255 429 232 339 c 1
 262 383 306 426 367 426 c 0
 480 426 507 320 507 270 c 0
 507 120 380 -22 254 -22 c 0
 120 -22 120 131 120 158 c 0
185 97 m 0
 185 68 197 6 256 6 c 0
 312 6 354 49 380 96 c 1
 400 135 435 271 435 317 c 0
 435 348 426 368 417 380 c 0
 400 404 378 404 364 404 c 0
 231 404 185 176 185 97 c 0
EndSplineSet
Substitution2: "LGC old numerals subtable" sixoldstyle
EndChar

StartChar: seven
Encoding: 55 55 66
Width: 511
Flags: HW
TeX: 641 0
ItalicCorrection: 135
HStem: -22 21<294.5 322.5> 527 22<459.5 476> 596 70<377.5 387.5>
VStem: 144 481<427 661>
LayerCount: 2
Fore
SplineSet
144 432 m 0
 144 433 144 435 150 447 c 2
 246 651 l 2
 253 665 254 666 265 666 c 0
 270 666 280 666 280 656 c 0
 280 655 280 653 257 603 c 1
 315 658 364 666 391 666 c 0
 432 666 436 636 440 598 c 0
 443 564 446 549 468 549 c 0
 509 549 546 589 583 643 c 1
 598 663 l 1
 602 666 606 666 611 666 c 0
 617 666 625 666 625 656 c 0
 625 654 625 652 616 639 c 0
 588 596 542 527 490 415 c 0
 432 291 390 164 359 44 c 0
 351 10 342 -22 303 -22 c 0
 286 -22 268 -11 268 11 c 0
 268 15 287 122 378 304 c 0
 411 370 412 372 513 538 c 1
 499 531 484 527 468 527 c 0
 451 527 435 532 419 561 c 1
 402 589 397 596 378 596 c 0
 342 596 250 575 175 430 c 0
 171 423 170 422 159 422 c 0
 152 422 144 422 144 432 c 0
EndSplineSet
Substitution2: "LGC old numerals subtable" sevenoldstyle
EndChar

StartChar: eight
Encoding: 56 56 67
Width: 511
Flags: HW
TeX: 641 0
ItalicCorrection: 135
HStem: -22 28<223 301 223 315> 641 25<378.5 443.5>
VStem: 97 50<81 137.5> 210 55<497 513> 435 59<150.5 188.5> 509 45<511 579>
LayerCount: 2
Fore
SplineSet
97 115 m 0
 97 160 116 258 286 337 c 1
 241 377 240 378 234 386 c 0
 224 399 210 427 210 463 c 0
 210 563 310 666 420 666 c 0
 490 666 554 624 554 548 c 0
 554 474 496 408 397 360 c 1
 420 340 459 306 465 299 c 0
 485 272 494 240 494 208 c 0
 494 93 378 -22 252 -22 c 0
 167 -22 97 31 97 115 c 0
147 113 m 0
 147 49 191 6 255 6 c 0
 347 6 435 86 435 166 c 0
 435 211 412 230 387 252 c 2
 305 321 l 1
 206 274 147 186 147 113 c 0
265 509 m 0
 265 485 275 463 293 448 c 2
 369 384 l 2
 376 377 377 377 378 377 c 0
 384 377 509 445 509 550 c 0
 509 608 470 641 417 641 c 0
 340 641 265 575 265 509 c 0
EndSplineSet
Substitution2: "LGC old numerals subtable" eightoldstyle
EndChar

StartChar: nine
Encoding: 57 57 68
Width: 511
Flags: HW
TeX: 641 0
ItalicCorrection: 135
HStem: -22 28<200 245 200 260> 43 80 219 22<272.5 335> 641 25<385.5 446.5>
VStem: 165 72<321 450> 488 65<466 571.5>
LayerCount: 2
Fore
SplineSet
104 58 m 0
 104 94 122 123 156 123 c 0
 182 123 190 105 190 91 c 0
 190 86 187 46 139 42 c 1
 152 13 186 6 214 6 c 0
 276 6 324 58 345 84 c 0
 389 140 414 200 440 306 c 1
 409 259 365 219 305 219 c 0
 190 219 165 331 165 376 c 0
 165 524 292 666 423 666 c 0
 553 666 553 515 553 488 c 0
 553 444 539 267 439 126 c 0
 392 59 308 -22 212 -22 c 0
 150 -22 104 5 104 58 c 0
237 328 m 0
 237 314 237 241 308 241 c 0
 445 241 488 478 488 550 c 0
 488 593 472 641 421 641 c 0
 350 641 307 573 295 551 c 0
 267 501 237 366 237 328 c 0
EndSplineSet
Substitution2: "LGC old numerals subtable" nineoldstyle
EndChar

StartChar: colon
Encoding: 58 58 69
Width: 306
Flags: HW
TeX: 430 0
ItalicCorrection: 58
HStem: 0 106<162 174> 325 106<242 255>
VStem: 113 109<48 59.5> 194 109<372.5 383.5>
LayerCount: 2
Fore
SplineSet
113 43 m 0
 113 76 146 106 178 106 c 0
 206 106 222 85 222 63 c 0xe0
 222 33 191 0 157 0 c 0
 131 0 113 17 113 43 c 0
194 368 m 0
 194 399 225 431 259 431 c 0
 287 431 303 411 303 388 c 0xd0
 303 357 272 325 238 325 c 0
 210 325 194 345 194 368 c 0
EndSplineSet
EndChar

StartChar: less
Encoding: 60 60 71
Width: 766
Flags: HW
TeX: 533 39
ItalicCorrection: 83
VStem: 166 35<238.884 256.158>
DStem2: 201 248 192 227 0.868734 -0.495278<0 523.492> 194 271 201 249 0.914273 0.405098<-2.32966 640.151>
LayerCount: 2
Fore
SplineSet
166 250 m 0
 166 260 183 266 194 271 c 2
 765 524 l 2
 774 528 777 529 780 529 c 0
 786 529 791 524 791 519 c 0
 791 509 778 505 765 499 c 2
 261 276 l 2
 241 267 221 257 201 249 c 1
 201 248 l 1
 211 243 220 238 230 232 c 2
 641 -3 l 2
 652 -10 656 -15 656 -20 c 0
 656 -25 651 -29 646 -29 c 0
 639 -29 632 -24 627 -21 c 2
 192 227 l 2
 178 235 166 241 166 250 c 0
EndSplineSet
EndChar

StartChar: equal
Encoding: 61 61 72
Width: 766
Flags: HW
TeX: 366 -133
ItalicCorrection: 66
HStem: 142 22<116.009 721.86> 336 22<165.01 772.99>
LayerCount: 2
Fore
SplineSet
116 153 m 0
 116 163 129 164 141 164 c 2
 699 164 l 2
 706 164 713 165 719 162 c 0
 725 159 727 151 722 146 c 0
 719 143 717 142 697 142 c 2
 138 142 l 2
 128 142 116 143 116 153 c 0
165 347 m 0
 165 356 174 358 185 358 c 2
 754 358 l 2
 762 358 773 357 773 347 c 0
 773 336 759 336 748 336 c 2
 214 336 l 2
 207 336 199 335 192 335 c 2
 189 335 l 2
 179 335 165 336 165 347 c 0
EndSplineSet
EndChar

StartChar: greater
Encoding: 62 62 73
Width: 766
Flags: HW
TeX: 533 39
ItalicCorrection: 11
VStem: 689 35<243.842 261.172>
DStem2: 125 1 138 -18 0.914212 0.405236<-25.5234 616.739> 259 523 249 502 0.869457 -0.494009<-15.8001 507.743>
LayerCount: 2
Fore
SplineSet
99 -19 m 0
 99 -9 112 -5 125 1 c 2
 629 224 l 2
 649 233 669 243 689 251 c 1
 689 252 l 1
 666 264 644 277 621 290 c 2
 249 502 l 2
 237 509 234 515 234 520 c 0
 234 525 239 529 244 529 c 0
 249 529 255 525 259 523 c 2
 698 273 l 2
 712 265 724 259 724 250 c 0
 724 240 707 234 696 229 c 2
 138 -18 l 2
 129 -22 118 -29 110 -29 c 0
 104 -29 99 -24 99 -19 c 0
EndSplineSet
EndChar

StartChar: question
Encoding: 63 63 74
Width: 511
Flags: HW
TeX: 688 0
ItalicCorrection: 122
HStem: 0 106<263.5 276> 187 22<297 321.5 297 339.5> 431 81<239 241> 694 22<390 454>
VStem: 215 109<47.5 60> 246 35<240.5 262.5 235 288.5> 516 35<570.5 627.5 544 635>
LayerCount: 2
Fore
SplineSet
194 463 m 0
 194 506 278 716 431 716 c 0
 504 716 551 663 551 592 c 0
 551 496 482 441 441 409 c 2
 363 346 l 1
 299 296 281 282 281 243 c 0
 281 227 288 209 306 209 c 0
 337 209 372 237 386 277 c 0
 390 290 391 292 403 292 c 0
 408 292 418 292 418 282 c 0
 418 258 373 187 306 187 c 0
 264 187 246 224 246 257 c 0
 246 320 290 354 315 375 c 1xf6
 436 470 l 2
 465 494 516 535 516 606 c 0
 516 664 477 694 431 694 c 0
 349 694 275 612 239 512 c 1
 269 512 277 494 277 480 c 0
 277 454 254 431 228 431 c 0
 215 431 194 437 194 463 c 0
215 43 m 0
 215 77 248 106 279 106 c 0
 309 106 324 83 324 63 c 0xfa
 324 32 293 0 259 0 c 0
 234 0 215 18 215 43 c 0
EndSplineSet
EndChar

StartChar: at
Encoding: 64 64 75
Width: 766
Flags: HW
TeX: 688 0
ItalicCorrection: 95
HStem: -11 22<320 395> 128 22<388.5 450 629 663.5> 544 22<479.5 559> 683 22<466.5 618.5>
VStem: 151 31<182.5 358 182.5 364> 279 61<247 335.5 247 357.5> 759 30<424 514.5>
LayerCount: 2
Fore
SplineSet
151 248 m 0
 151 480 356 705 557 705 c 0
 684 705 789 611 789 445 c 0
 789 354 747 244 746 241 c 0
 731 200 699 128 628 128 c 0
 607 128 556 136 553 193 c 1
 533 174 483 128 417 128 c 0
 341 128 279 188 279 286 c 0
 279 429 403 566 522 566 c 0
 601 566 627 501 635 481 c 1
 661 481 l 2
 677 481 684 481 684 471 c 0
 684 470 683 461 682 458 c 2
 617 195 l 2
 616 189 614 181 614 175 c 0
 614 150 626 150 632 150 c 0
 721 150 759 400 759 448 c 0
 759 581 681 683 556 683 c 0
 377 683 182 470 182 246 c 0
 182 119 251 11 389 11 c 0
 478 11 566 34 647 71 c 0
 663 78 665 78 681 78 c 0
 700 78 706 78 706 68 c 0
 706 52 584 17 558 11 c 0
 471 -11 402 -11 388 -11 c 0
 230 -11 151 113 151 248 c 0
340 270 m 0
 340 224 357 150 420 150 c 0
 488 150 561 232 570 268 c 2
 610 430 l 2
 610 432 613 443 613 444 c 0
 613 458 596 544 522 544 c 0
 437 544 340 401 340 270 c 0
EndSplineSet
EndChar

StartChar: A
Encoding: 65 65 76
Width: 743
Flags: HW
TeX: 688 0
HStem: 0 31<660 678> 230 30<289 517> 696 20G<539.5 558.5>
AnchorPoint: "ogonek" 587 0 basechar 0
AnchorPoint: "below" 370 0 basechar 0
AnchorPoint: "above" 546 705 basechar 0
LayerCount: 2
Fore
SplineSet
59 14 m 0
 59 54 120 -5 190 113 c 2
 517 689 l 2
 523 698 530 716 549 716 c 0
 568 716 567 700 568 688 c 2
 611 67 l 2
 613 36 623 32 663 31 c 0
 675 31 690 32 690 17 c 0
 690 10 686 0 670 0 c 0
 650 0 629 3 567 3 c 0
 490 3 465 0 455 0 c 0
 445 0 440 7 440 14 c 0
 440 44 488 19 520 46 c 0
 527 52 528 61 528 73 c 0
 528 88 523 135 517 230 c 1
 289 230 l 1
 225 118 204 86 204 65 c 0
 204 23 259 40 259 19 c 0
 259 12 257 0 239 0 c 0
 230 0 203 3 150 3 c 0
 117 3 93 0 81 0 c 0
 65 0 59 3 59 14 c 0
307 260 m 1
 515 260 l 1
 493 587 l 1
 307 260 l 1
EndSplineSet
EndChar

StartChar: B
Encoding: 66 66 77
Width: 703
Flags: HW
TeX: 688 0
ItalicCorrection: 102
HStem: 0 31<84 90 90 126 274 398 398 420> 344 22<323 455 455 489 317 455> 652 31<255 270.5 417.5 434 434 552>
VStem: 588 89<183.5 245> 646 88<510.5 568.5>
AnchorPoint: "below" 321 0 basechar 0
AnchorPoint: "above" 497 705 basechar 0
LayerCount: 2
Fore
SplineSet
65 12 m 0
 65 31 76 31 92 31 c 0xf0
 160 31 166 39 174 73 c 2
 309 616 l 2
 313 630 313 632 313 635 c 0
 313 652 286 652 255 652 c 0
 236 652 228 652 228 664 c 0
 228 683 239 683 255 683 c 2
 566 683 l 2
 675 683 734 619 734 547 c 0
 734 470 660 384 538 357 c 1
 610 348 677 302 677 219 c 0
 677 115 562 0 420 0 c 2
 90 0 l 2
 74 0 65 0 65 12 c 0
243 41 m 0
 243 34 243 31 274 31 c 2
 398 31 l 2
 508 31 588 135 588 232 c 0
 588 258 582 344 489 344 c 2
 317 344 l 1
 247 63 l 2
 246 57 243 47 243 41 c 0
323 366 m 1
 455 366 l 2
 569 366 646 468 646 553 c 0
 646 584 636 652 552 652 c 2
 434 652 l 2
 401 652 394 652 385 616 c 2xe8
 323 366 l 1
EndSplineSet
EndChar

StartChar: C
Encoding: 67 67 78
Width: 715
Flags: HW
TeX: 688 0
ItalicCorrection: 145
HStem: -22 31<367 450.5 367 492.5> 674 31<540.5 596 468 632>
VStem: 150 87<163 238 136 362.5>
AnchorPoint: "below" 401 0 basechar 0
AnchorPoint: "above" 571 705 basechar 0
LayerCount: 2
Fore
SplineSet
150 245 m 0
 150 480 365 705 571 705 c 0
 621 705 679 689 722 620 c 1
 785 694 l 2
 794 705 799 705 801 705 c 0
 811 705 812 697 812 695 c 0
 812 691 811 685 810 681 c 2
 749 438 l 2
 745 421 742 420 731 420 c 0
 726 420 716 420 716 430 c 0
 716 433 721 465 721 491 c 0
 721 578 685 674 579 674 c 0
 502 674 410 628 342 536 c 0
 262 426 237 269 237 207 c 0
 237 65 325 9 409 9 c 0
 492 9 617 73 668 242 c 0
 671 250 678 250 684 250 c 0
 689 250 699 250 699 240 c 0
 699 192 590 -22 395 -22 c 0
 257 -22 150 81 150 245 c 0
EndSplineSet
EndChar

StartChar: D
Encoding: 68 68 79
Width: 755
Flags: HW
TeX: 688 0
ItalicCorrection: 94
HStem: 0 31<82 88 88 124 275 378 378 395> 652 31<253 268.5 418.5 435 435 532>
VStem: 692 83<446.5 509.5 325.5 541.5>
AnchorPoint: "below" 346 0 basechar 0
AnchorPoint: "above" 522 705 basechar 0
LayerCount: 2
Fore
SplineSet
63 12 m 0
 63 31 74 31 90 31 c 0
 158 31 164 39 172 73 c 2
 307 616 l 2
 311 630 311 632 311 635 c 0
 311 652 284 652 253 652 c 0
 234 652 226 652 226 664 c 0
 226 683 237 683 253 683 c 2
 565 683 l 2
 694 683 775 581 775 438 c 0
 775 213 584 0 395 0 c 2
 88 0 l 2
 72 0 63 0 63 12 c 0
244 41 m 0
 244 34 244 31 275 31 c 2
 378 31 l 2
 458 31 529 73 578 130 c 0
 663 230 692 417 692 476 c 0
 692 607 613 652 532 652 c 2
 435 652 l 2
 402 652 395 651 386 616 c 2
 248 63 l 2
 247 57 244 47 244 41 c 0
EndSplineSet
EndChar

StartChar: E
Encoding: 69 69 80
Width: 678
Flags: HW
TeX: 688 0
ItalicCorrection: 120
HStem: 0 31<81 87 87 123 277 399 399 478.5> 338 31<327 406 319 408> 649 34
VStem: 62 683
AnchorPoint: "ogonek" 341 0 basechar 0
AnchorPoint: "below" 341 0 basechar 0
AnchorPoint: "above" 518 705 basechar 0
LayerCount: 2
Fore
SplineSet
62 12 m 0
 62 31 73 31 89 31 c 0
 157 31 163 39 171 73 c 2
 305 609 l 2
 309 624 309 631 309 632 c 0
 309 641 309 649 251 649 c 0
 231 649 224 649 224 662 c 0
 224 680 234 680 251 680 c 2
 718 680 l 2
 739 680 745 680 742 654 c 2
 719 477 l 2
 717 459 716 455 702 455 c 0
 698 455 687 455 687 467 c 0
 687 470 688 479 689 484 c 0
 692 508 694 521 694 548 c 0
 694 619 669 649 561 649 c 2
 436 649 l 2
 403 649 396 648 388 615 c 2
 327 369 l 1
 408 369 l 2
 489 369 508 391 527 462 c 0
 533 483 533 486 546 486 c 0
 550 486 562 486 562 474 c 0
 562 472 560 464 559 461 c 2
 504 241 l 2
 500 223 497 221 486 221 c 0
 480 221 470 221 470 233 c 0
 470 236 472 242 472 244 c 0
 480 273 481 288 481 295 c 0
 481 322 474 338 406 338 c 2
 319 338 l 1
 250 63 l 2
 249 57 246 47 246 41 c 0
 246 34 246 31 277 31 c 2
 399 31 l 2
 558 31 593 96 651 234 c 0
 660 257 661 258 672 258 c 0
 675 258 687 258 687 247 c 0
 687 246 684 237 683 235 c 2
 594 16 l 2
 587 1 586 0 566 0 c 2
 87 0 l 2
 71 0 62 0 62 12 c 0
EndSplineSet
EndChar

StartChar: F
Encoding: 70 70 81
Width: 652
Flags: HW
TeX: 688 0
ItalicCorrection: 133
HStem: 0 31<81 96 322 332 332 340> 325 31<316 402 324 399> 649 34
VStem: 62 671
AnchorPoint: "below" 323 0 basechar 0
AnchorPoint: "above" 499 705 basechar 0
LayerCount: 2
Fore
SplineSet
62 12 m 0
 62 31 73 31 89 31 c 0
 157 31 163 39 171 73 c 2
 305 609 l 2
 309 624 309 631 309 632 c 0
 309 641 309 649 251 649 c 0
 231 649 224 649 224 662 c 0
 224 680 234 680 251 680 c 2
 706 680 l 2
 727 680 733 680 730 654 c 2
 707 477 l 2
 705 459 704 455 690 455 c 0
 686 455 675 455 675 467 c 2
 676 483 l 1
 679 506 682 525 682 549 c 0
 682 618 660 649 553 649 c 2
 436 649 l 2
 403 649 396 648 388 615 c 2
 324 356 l 1
 402 356 l 2
 485 356 501 381 519 452 c 0
 524 470 525 473 538 473 c 0
 541 473 553 473 553 462 c 0
 553 457 552 452 551 448 c 2
 496 228 l 2
 491 209 488 208 477 208 c 0
 473 208 462 208 462 220 c 0
 462 223 463 227 465 234 c 0
 469 250 473 266 473 283 c 0
 473 310 464 325 399 325 c 2
 316 325 l 1
 253 73 l 2
 249 58 249 56 249 52 c 0
 249 39 249 31 322 31 c 2
 332 31 l 2
 348 31 357 31 357 19 c 0
 357 0 345 0 336 0 c 0
 291 0 244 3 198 3 c 0
 158 3 116 0 76 0 c 0
 73 0 62 0 62 12 c 0
EndSplineSet
EndChar

StartChar: G
Encoding: 71 71 82
Width: 773
Flags: HW
TeX: 688 0
ItalicCorrection: 87
HStem: -22 31<366.5 433 366.5 442> 242 31<524.5 532 532 540 739.5 750.5> 674 31<540.5 596 468 632>
VStem: 150 87<164.5 237 141.5 362.5>
AnchorPoint: "below" 402 0 basechar 0
AnchorPoint: "above" 571 705 basechar 0
LayerCount: 2
Fore
SplineSet
150 245 m 0
 150 480 365 705 571 705 c 0
 621 705 679 689 722 620 c 1
 785 694 l 2
 794 705 799 705 801 705 c 0
 811 705 812 697 812 695 c 0
 812 691 811 685 810 681 c 2
 749 438 l 2
 745 421 742 420 731 420 c 0
 726 420 716 420 716 430 c 0
 716 433 721 465 721 491 c 0
 721 578 685 674 579 674 c 0
 502 674 410 628 342 536 c 0
 261 425 237 266 237 208 c 0
 237 75 319 9 414 9 c 0
 452 9 507 21 550 60 c 0
 580 88 582 99 604 188 c 1
 612 216 612 218 612 222 c 0
 612 236 604 237 583 240 c 0
 570 241 553 242 540 242 c 2
 532 242 l 2
 517 242 506 242 506 253 c 0
 506 273 519 273 527 273 c 0
 570 273 615 270 658 270 c 0
 690 270 724 273 755 273 c 0
 764 273 768 268 768 260 c 0
 768 242 757 242 744 242 c 0
 700 242 698 232 692 209 c 2
 644 18 l 2
 641 7 639 1 632 1 c 0
 621 1 599 37 590 61 c 1
 561 24 488 -22 396 -22 c 0
 254 -22 150 84 150 245 c 0
EndSplineSet
EndChar

StartChar: H
Encoding: 72 72 83
Width: 743
Flags: HW
TeX: 688 0
ItalicCorrection: 163
HStem: 0 31<81 95 294.5 316 437 451 650.5 672> 340 31<327 593 319 601> 652 31<242.5 263.5 241 267.5 463 476.5 598.5 619.5 819 832.5>
VStem: 62 790<6 675.5>
AnchorPoint: "below" 371 0 basechar 0
AnchorPoint: "above" 547 705 basechar 0
LayerCount: 2
Fore
SplineSet
62 12 m 0
 62 31 73 31 89 31 c 0
 157 31 163 39 171 73 c 2
 306 616 l 2
 310 630 310 632 310 635 c 0
 310 652 283 652 252 652 c 0
 233 652 225 652 225 664 c 0
 225 683 238 683 244 683 c 0
 283 683 324 680 364 680 c 0
 403 680 444 683 482 683 c 0
 489 683 496 681 496 670 c 0
 496 652 487 652 466 652 c 0
 403 652 395 644 387 612 c 2
 327 371 l 1
 601 371 l 1
 662 616 l 2
 666 630 666 632 666 635 c 0
 666 652 639 652 608 652 c 0
 589 652 581 652 581 664 c 0
 581 683 594 683 600 683 c 0
 639 683 680 680 720 680 c 0
 759 680 800 683 838 683 c 0
 845 683 852 681 852 670 c 0
 852 652 843 652 822 652 c 0
 759 652 751 644 743 612 c 2
 608 71 l 2
 604 56 604 49 604 48 c 0
 604 39 604 31 662 31 c 0
 682 31 689 31 689 18 c 0
 689 0 677 0 670 0 c 0
 631 0 590 3 550 3 c 0
 511 3 470 0 432 0 c 0
 429 0 418 0 418 12 c 0
 418 31 429 31 445 31 c 0
 513 31 519 39 527 73 c 2
 593 340 l 1
 319 340 l 1
 252 68 l 2
 248 54 248 52 248 48 c 0
 248 39 248 31 306 31 c 0
 326 31 333 31 333 18 c 0
 333 0 321 0 314 0 c 0
 275 0 234 3 194 3 c 0
 155 3 114 0 76 0 c 0
 73 0 62 0 62 12 c 0
EndSplineSet
EndChar

StartChar: I
Encoding: 73 73 84
Width: 385
Flags: HW
TeX: 688 0
ItalicCorrection: 158
HStem: 0 31<76.5 91 298 320> 652 31<237 259.5 235.5 264 467 480.5>
VStem: 57 444
AnchorPoint: "ogonek" 193 0 basechar 0
AnchorPoint: "below" 193 0 basechar 0
AnchorPoint: "above" 370 705 basechar 0
LayerCount: 2
Fore
SplineSet
57 13 m 0
 57 31 66 31 87 31 c 0
 154 31 163 39 171 72 c 2
 307 616 l 2
 308 619 310 632 310 635 c 0
 310 652 281 652 247 652 c 0
 227 652 220 652 220 665 c 0
 220 683 232 683 239 683 c 0
 280 683 323 680 364 680 c 0
 405 680 447 683 487 683 c 0
 491 683 501 683 501 671 c 0
 501 652 491 652 470 652 c 0
 401 652 395 643 387 611 c 2
 252 71 l 2
 248 56 248 50 248 49 c 0
 248 38 248 31 310 31 c 0
 330 31 338 31 338 19 c 0
 338 0 325 0 318 0 c 0
 278 0 235 3 194 3 c 0
 153 3 111 0 71 0 c 0
 64 0 57 2 57 13 c 0
EndSplineSet
EndChar

StartChar: J
Encoding: 74 74 85
Width: 525
Flags: HW
TeX: 688 0
ItalicCorrection: 140
HStem: -22 22<189.5 237.5 189.5 259> 65 98<154.5 156> 652 31<365 373 373 385 591.5 603.5>
VStem: 94 103<111.5 124.5>
AnchorPoint: "below" 262 0 basechar 0
AnchorPoint: "above" 520 705 basechar 0
LayerCount: 2
Fore
SplineSet
94 86 m 0
 94 163 153 163 156 163 c 0
 177 163 197 150 197 124 c 0
 197 99 175 65 137 65 c 0
 130 65 128 65 126 66 c 1
 134 25 169 0 210 0 c 0
 265 0 322 70 341 145 c 2
 457 611 l 2
 461 625 461 627 461 631 c 0
 461 646 453 647 431 650 c 0
 413 652 402 652 385 652 c 2
 373 652 l 2
 357 652 348 652 348 664 c 0
 348 683 360 683 369 683 c 0
 413 683 460 680 505 680 c 0
 539 680 575 683 608 683 c 0
 616 683 622 680 622 671 c 0
 622 652 611 652 596 652 c 0
 551 652 544 644 537 616 c 2
 420 144 l 2
 398 53 306 -22 212 -22 c 0
 148 -22 94 18 94 86 c 0
EndSplineSet
EndChar

StartChar: K
Encoding: 75 75 86
Width: 768
Flags: HW
TeX: 688 0
ItalicCorrection: 145
HStem: 0 31<81 95 294.5 316 490.5 500.5 691 695.5> 652 31<242.5 263.5 241 267.5 463 476.5>
VStem: 62 797<6 674.5>
AnchorPoint: "below" 382 0 basechar 0
AnchorPoint: "above" 558 705 basechar 0
LayerCount: 2
Fore
SplineSet
62 12 m 0
 62 31 73 31 89 31 c 0
 157 31 163 39 171 73 c 2
 306 616 l 2
 310 630 310 632 310 635 c 0
 310 652 283 652 252 652 c 0
 233 652 225 652 225 664 c 0
 225 683 238 683 244 683 c 0
 283 683 324 680 364 680 c 0
 403 680 444 683 482 683 c 0
 489 683 496 681 496 670 c 0
 496 652 487 652 466 652 c 0
 403 652 395 644 387 612 c 2
 308 293 l 1
 660 586 l 2
 676 599 693 614 693 632 c 0
 693 646 681 651 667 652 c 0
 662 652 653 653 653 664 c 0
 653 683 666 683 672 683 c 0
 706 683 744 680 779 680 c 0
 802 680 827 683 848 683 c 0
 855 683 859 678 859 671 c 0
 859 654 849 653 841 652 c 0
 775 646 707 589 684 570 c 2
 500 417 l 1
 631 70 l 2
 643 39 655 32 691 31 c 0
 700 31 709 31 709 19 c 0
 709 4 701 0 692 0 c 0
 663 0 631 3 601 3 c 0
 564 3 525 0 489 0 c 0
 482 0 475 2 475 13 c 0
 475 31 487 31 494 31 c 0
 507 31 545 32 545 64 c 0
 545 67 545 69 539 84 c 2
 435 363 l 1
 296 248 l 1
 261 104 l 2
 256 86 248 54 248 48 c 0
 248 39 248 31 306 31 c 0
 326 31 333 31 333 18 c 0
 333 0 321 0 314 0 c 0
 275 0 234 3 194 3 c 0
 155 3 114 0 76 0 c 0
 73 0 62 0 62 12 c 0
EndSplineSet
EndChar

StartChar: L
Encoding: 76 76 87
Width: 627
Flags: HW
TeX: 688 0
HStem: 0 31<81 87 87 123 277 358 358 436> 652 31<242.5 264 241 267.5 482.5 492>
VStem: 62 562<6 252>
AnchorPoint: "below" 310 0 basechar 0
AnchorPoint: "above" 486 705 basechar 0
LayerCount: 2
Fore
SplineSet
62 12 m 0
 62 31 73 31 89 31 c 0
 157 31 163 39 171 73 c 2
 306 616 l 2
 310 630 310 632 310 635 c 0
 310 652 283 652 252 652 c 0
 233 652 225 652 225 664 c 0
 225 683 238 683 244 683 c 0
 284 683 326 680 367 680 c 0
 413 680 460 683 505 683 c 0
 509 683 520 683 520 671 c 0
 520 652 509 652 492 652 c 2
 482 652 l 2
 401 652 395 642 386 607 c 2
 250 63 l 2
 249 57 246 47 246 41 c 0
 246 34 246 31 277 31 c 2
 358 31 l 2
 514 31 557 147 589 236 c 0
 596 255 597 258 609 258 c 0
 612 258 624 258 624 246 c 0
 624 245 620 234 620 233 c 2
 544 18 l 2
 538 1 537 0 515 0 c 2
 87 0 l 2
 71 0 62 0 62 12 c 0
EndSplineSet
EndChar

StartChar: M
Encoding: 77 77 88
Width: 896
Flags: HW
TeX: 688 0
ItalicCorrection: 163
HStem: 0 31<81 85 81 94 271 275 595 608.5 801.5 822> 652 31<256 271.5 940.5 977 977 982.5>
VStem: 66 936<7.5 676.5>
AnchorPoint: "below" 448 0 basechar 0
AnchorPoint: "above" 624 705 basechar 0
LayerCount: 2
Fore
SplineSet
66 12 m 0
 66 30 77 31 85 31 c 0
 130 33 168 45 182 101 c 2
 310 616 l 2
 314 630 314 632 314 635 c 0
 314 652 287 652 256 652 c 0
 237 652 229 652 229 664 c 0
 229 683 240 683 256 683 c 2
 389 683 l 2
 413 683 415 683 417 661 c 2
 473 100 l 1
 813 665 l 2
 824 683 827 683 849 683 c 2
 977 683 l 2
 994 683 1002 683 1002 670 c 0
 1002 652 993 652 972 652 c 0
 909 652 901 644 893 612 c 2
 758 71 l 2
 754 56 754 49 754 48 c 0
 754 39 754 31 812 31 c 0
 832 31 839 31 839 18 c 0
 839 0 827 0 820 0 c 0
 783 0 742 3 704 3 c 0
 666 3 627 0 590 0 c 0
 587 0 576 0 576 12 c 0
 576 31 587 31 603 31 c 0
 671 31 677 39 685 73 c 2
 826 639 l 1
 825 639 l 1
 452 18 l 2
 446 7 441 0 428 0 c 0
 413 0 413 7 411 24 c 2
 350 630 l 1
 349 630 l 1
 216 99 l 2
 212 83 212 77 212 74 c 0
 212 59 214 33 271 31 c 0
 283 31 290 30 290 18 c 0
 290 0 278 0 272 0 c 0
 241 0 206 3 174 3 c 0
 143 3 109 0 79 0 c 0
 72 0 66 3 66 12 c 0
EndSplineSet
EndChar

StartChar: N
Encoding: 78 78 89
Width: 743
Flags: HW
TeX: 688 0
ItalicCorrection: 163
HStem: 0 31<77 81 77 90 267 271> 652 31<252 255.5 643.5 646 837 838.5>
VStem: 62 790<7.5 674>
AnchorPoint: "below" 371 0 basechar 0
AnchorPoint: "above" 547 705 basechar 0
LayerCount: 2
Fore
SplineSet
62 12 m 0
 62 30 73 31 81 31 c 0
 127 33 164 46 178 101 c 2
 310 631 l 2
 313 641 313 643 313 644 c 0
 313 652 259 652 252 652 c 0
 233 652 225 652 225 664 c 0
 225 683 236 683 252 683 c 2
 377 683 l 2
 398 683 399 682 405 666 c 2
 592 146 l 1
 702 585 l 2
 704 593 706 600 706 609 c 0
 706 630 698 650 646 652 c 0
 637 652 628 653 628 664 c 0
 628 683 641 683 646 683 c 0
 677 683 711 680 743 680 c 0
 775 680 808 683 839 683 c 0
 848 683 852 678 852 670 c 0
 852 653 840 652 837 652 c 0
 808 651 752 648 736 584 c 2
 596 20 l 2
 591 1 587 0 576 0 c 0
 562 0 561 2 556 17 c 2
 341 614 l 1
 212 99 l 2
 208 83 208 77 208 74 c 0
 208 59 210 33 267 31 c 0
 279 31 286 30 286 18 c 0
 286 0 274 0 268 0 c 0
 237 0 202 3 170 3 c 0
 139 3 105 0 75 0 c 0
 68 0 62 3 62 12 c 0
EndSplineSet
EndChar

StartChar: O
Encoding: 79 79 90
Width: 766
Flags: HW
TeX: 688 0
ItalicCorrection: 94
HStem: -22 26<339.5 422.5 339.5 478> 680 25<509.5 592>
VStem: 148 90<160.5 228 145.5 352> 703 85<442 526 323.5 553>
AnchorPoint: "ogonek" 384 0 basechar 0
AnchorPoint: "below" 384 0 basechar 0
AnchorPoint: "above" 560 705 basechar 0
LayerCount: 2
Fore
SplineSet
148 236 m 0
 148 468 355 705 560 705 c 0
 686 705 788 608 788 444 c 0
 788 203 578 -22 378 -22 c 0
 242 -22 148 85 148 236 c 0
238 205 m 0
 238 86 294 4 385 4 c 0
 460 4 549 63 614 174 c 0
 667 265 703 398 703 486 c 0
 703 620 631 680 553 680 c 0
 466 680 375 607 322 513 c 0
 252 391 238 251 238 205 c 0
EndSplineSet
EndChar

StartChar: P
Encoding: 80 80 91
Width: 678
Flags: HW
TeX: 688 0
ItalicCorrection: 102
HStem: 0 31<82 96 295.5 317> 316 26<314 444 318 444 444 469> 652 31<253 268.5 418.5 435 435 521>
VStem: 642 88<552 577 476.5 594>
AnchorPoint: "below" 307 0 basechar 0
AnchorPoint: "above" 483 705 basechar 0
LayerCount: 2
Fore
SplineSet
63 12 m 0
 63 31 74 31 90 31 c 0
 158 31 164 39 172 73 c 2
 307 616 l 2
 311 630 311 632 311 635 c 0
 311 652 284 652 253 652 c 0
 234 652 226 652 226 664 c 0
 226 683 237 683 253 683 c 2
 553 683 l 2
 662 683 730 619 730 535 c 0
 730 418 595 316 469 316 c 2
 314 316 l 1
 253 68 l 2
 249 54 249 52 249 48 c 0
 249 39 249 31 307 31 c 0
 327 31 334 31 334 18 c 0
 334 0 322 0 315 0 c 0
 276 0 235 3 195 3 c 0
 156 3 115 0 77 0 c 0
 74 0 63 0 63 12 c 0
318 342 m 1
 444 342 l 2
 504 342 554 361 589 400 c 0
 627 444 642 542 642 562 c 0
 642 626 591 652 521 652 c 2
 435 652 l 2
 402 652 395 652 386 616 c 2
 318 342 l 1
EndSplineSet
EndChar

StartChar: Q
Encoding: 81 81 92
Width: 766
Flags: HW
TeX: 688 194
ItalicCorrection: 94
HStem: -194 94<545 580.5 545 596> -22 25<379.5 395.5> 126 22<398 447> 680 25<516 599>
VStem: 148 85<166 234 166 352> 322 22<35 61 23 67> 704 84<436 526 354.5 539.5>
AnchorPoint: "below" 334 -194 basechar 0
AnchorPoint: "above" 560 705 basechar 0
LayerCount: 2
Fore
SplineSet
148 236 m 0
 148 468 355 705 560 705 c 0
 686 705 788 608 788 444 c 0
 788 265 667 78 502 6 c 1
 504 -85 528 -100 562 -100 c 0
 599 -100 649 -72 672 -2 c 0
 674 5 676 11 684 11 c 0
 690 11 695 6 695 -1 c 0
 695 -3 654 -194 538 -194 c 0
 480 -194 459 -157 459 -102 c 0
 459 -88 461 -59 469 -7 c 1
 448 -14 413 -22 378 -22 c 0
 242 -22 148 85 148 236 c 0
233 202 m 0
 233 130 256 48 327 15 c 1
 325 20 322 27 322 43 c 0
 322 91 364 148 419 148 c 0
 491 148 497 74 499 42 c 1
 660 144 704 392 704 480 c 0
 704 599 645 680 553 680 c 0
 479 680 394 625 333 532 c 0
 258 417 233 266 233 202 c 0
344 43 m 0
 344 3 374 3 385 3 c 0
 417 3 449 14 473 26 c 1
 474 34 474 46 474 54 c 0
 474 80 474 126 420 126 c 0
 376 126 344 79 344 43 c 0
EndSplineSet
EndChar

StartChar: R
Encoding: 82 82 93
Width: 729
Flags: HW
TeX: 688 0
ItalicCorrection: 38
HStem: -22 22<598 628.5> 0 31<82 96 292.5 314> 331 22<321 422 422 423 315 422> 652 31<253 268.5 456.5 498>
VStem: 485 109 628 90<555 574.5 498.5 605>
AnchorPoint: "below" 307 0 basechar 0
AnchorPoint: "above" 483 705 basechar 0
LayerCount: 2
Fore
SplineSet
63 12 m 0
 63 31 74 31 90 31 c 0
 158 31 164 39 172 73 c 2
 307 616 l 2
 311 630 311 632 311 635 c 0
 311 652 284 652 253 652 c 0
 234 652 226 652 226 664 c 0
 226 683 237 683 253 683 c 2
 517 683 l 2
 642 683 718 614 718 535 c 0
 718 462 650 375 508 339 c 1
 559 321 594 279 594 223 c 0
 594 202 589 158 586 135 c 0
 583 109 580 85 580 59 c 0
 580 27 583 0 613 0 c 0
 644 0 674 32 691 88 c 0
 694 100 695 105 708 105 c 0
 721 105 723 99 723 92 c 0
 723 84 693 -22 609 -22 c 0
 546 -22 485 10 485 84 c 0
 485 103 489 117 500 164 c 0
 514 220 517 229 517 243 c 0xb8
 517 315 465 331 423 331 c 2
 315 331 l 1
 250 68 l 2
 246 54 246 52 246 48 c 0
 246 39 246 31 304 31 c 0
 324 31 331 31 331 18 c 0
 331 0 319 0 312 0 c 0
 273 0 232 3 193 3 c 0
 155 3 115 0 77 0 c 0
 74 0 63 0 63 12 c 0
321 353 m 1
 422 353 l 2
 490 353 540 376 570 405 c 0
 624 459 628 552 628 558 c 0
 628 652 530 652 466 652 c 0
 447 652 415 652 408 650 c 0
 401 648 393 646 386 616 c 2
 321 353 l 1
EndSplineSet
EndChar

StartChar: S
Encoding: 83 83 94
Width: 562
Flags: HW
TeX: 688 0
ItalicCorrection: 119
HStem: -22 31<275 347.5 265.5 364> 677 28<386.5 441 369.5 476>
VStem: 199 68<485.5 524.5> 470 68<175 218>
AnchorPoint: "below" 307 0 basechar 0
AnchorPoint: "above" 431 705 basechar 0
LayerCount: 2
Fore
SplineSet
74 -12 m 0
 74 -9 75 -6 77 1 c 2
 129 210 l 2
 133 225 135 227 147 227 c 0
 153 227 162 227 162 216 c 0
 162 214 161 212 161 210 c 0
 158 199 153 172 153 149 c 0
 153 45 228 9 303 9 c 0
 392 9 470 109 470 200 c 0
 470 236 459 258 448 272 c 1
 431 290 423 293 371 308 c 2
 322 322 l 2
 307 326 285 332 279 335 c 0
 221 362 199 415 199 467 c 0
 199 582 308 705 431 705 c 0
 451 705 522 704 561 637 c 1
 606 693 l 2
 615 704 616 705 621 705 c 0
 631 705 632 697 632 695 c 0
 632 691 631 685 630 681 c 2
 578 474 l 2
 574 457 571 456 560 456 c 0
 555 456 545 456 545 466 c 2
 546 480 l 1
 550 502 551 509 551 535 c 0
 551 609 523 677 429 677 c 0
 344 677 267 588 267 506 c 0
 267 465 284 433 318 418 c 0
 323 416 354 407 373 402 c 0
 468 374 480 371 505 340 c 0
 531 308 538 267 538 238 c 0
 538 112 427 -22 301 -22 c 0
 249 -22 185 -7 148 47 c 1
 138 34 112 2 101 -10 c 0
 93 -20 92 -22 85 -22 c 0
 79 -22 74 -18 74 -12 c 0
EndSplineSet
EndChar

StartChar: T
Encoding: 84 84 95
Width: 715
Flags: HW
TeX: 688 0
ItalicCorrection: 133
HStem: 0 31<215 229.5 497 512 512 519.5> 646 37
VStem: 175 631<457.5 671>
AnchorPoint: "below" 358 0 basechar 0
AnchorPoint: "above" 535 705 basechar 0
LayerCount: 2
Fore
SplineSet
175 463 m 0
 175 465 175 467 180 480 c 2
 239 659 l 2
 245 677 248 677 268 677 c 2
 781 677 l 2
 797 677 806 677 806 665 c 0
 806 661 806 656 805 652 c 2
 775 473 l 2
 772 455 770 452 757 452 c 0
 752 452 742 452 742 465 c 0
 742 467 742 469 744 480 c 0
 754 539 754 558 754 570 c 0
 754 632 731 646 627 646 c 0
 610 646 583 646 575 644 c 0
 567 643 559 641 552 611 c 2
 418 73 l 2
 414 59 414 57 414 54 c 0
 414 40 419 36 447 33 c 0
 450 33 481 31 497 31 c 2
 512 31 l 2
 527 31 537 31 537 20 c 0
 537 0 525 0 516 0 c 0
 465 0 411 3 359 3 c 0
 308 3 255 0 204 0 c 0
 199 0 187 0 187 12 c 0
 187 31 198 31 215 31 c 2
 231 31 l 2
 319 31 328 41 337 76 c 2
 471 613 l 2
 473 619 475 628 475 635 c 0
 475 642 475 646 452 646 c 2
 418 646 l 2
 289 646 261 625 214 484 c 1
 204 458 203 457 201 455 c 0
 198 452 194 452 190 452 c 0
 187 452 175 452 175 463 c 0
EndSplineSet
EndChar

StartChar: U
Encoding: 85 85 96
Width: 743
Flags: HW
TeX: 688 0
ItalicCorrection: 163
HStem: -22 31<358 431 358 443.5> 652 31<242.5 263.5 241 267.5 463 476.5 646.5 649 837 838.5>
VStem: 202 75<106 145 88.5 171>
AnchorPoint: "ogonek" 386 0 basechar 0
AnchorPoint: "below" 386 0 basechar 0
AnchorPoint: "above" 547 705 basechar 0
LayerCount: 2
Fore
SplineSet
202 166 m 0
 202 176 202 198 210 230 c 2
 306 616 l 2
 310 630 310 632 310 635 c 0
 310 652 283 652 252 652 c 0
 233 652 225 652 225 664 c 0
 225 683 238 683 244 683 c 0
 283 683 324 680 364 680 c 0
 403 680 444 683 482 683 c 0
 489 683 496 681 496 670 c 0
 496 652 487 652 466 652 c 0
 403 652 395 644 387 612 c 2
 287 210 l 2
 282 188 277 156 277 134 c 0
 277 43 332 9 384 9 c 0
 478 9 584 100 616 229 c 2
 705 585 l 2
 707 593 709 600 709 609 c 0
 709 630 701 650 649 652 c 0
 640 652 631 653 631 664 c 0
 631 683 644 683 649 683 c 0
 680 683 713 680 745 680 c 0
 776 680 809 683 839 683 c 0
 848 683 852 678 852 670 c 0
 852 653 840 652 837 652 c 0
 808 651 752 648 736 584 c 2
 645 218 l 2
 618 108 507 -22 380 -22 c 0
 286 -22 202 46 202 166 c 0
EndSplineSet
EndChar

StartChar: V
Encoding: 86 86 97
Width: 743
Flags: HW
TeX: 688 0
ItalicCorrection: 183
HStem: -22 21<358 372> 652 31<226 243.5 224.5 258 428 440>
VStem: 209 659<662.5 673 662.5 673.5>
AnchorPoint: "below" 372 0 basechar 0
AnchorPoint: "above" 547 705 basechar 0
LayerCount: 2
Fore
SplineSet
209 664 m 0
 209 683 222 683 227 683 c 0
 260 683 295 680 329 680 c 0
 367 680 407 683 444 683 c 0
 447 683 458 683 458 671 c 0
 458 652 447 652 433 652 c 0
 423 652 370 651 370 621 c 1
 421 97 l 1
 710 580 l 2
 714 587 725 607 725 620 c 0
 725 644 701 651 685 652 c 0
 677 653 669 653 669 664 c 0
 669 683 681 683 687 683 c 0
 716 683 749 680 779 680 c 0
 804 680 831 683 855 683 c 0
 866 683 868 674 868 672 c 0
 868 653 857 653 849 652 c 0
 812 649 777 638 737 571 c 2
 394 -3 l 2
 383 -21 378 -22 366 -22 c 0
 350 -22 349 -17 347 2 c 2
 287 618 l 2
 285 643 283 652 233 652 c 0
 219 652 209 652 209 664 c 0
EndSplineSet
EndChar

StartChar: W
Encoding: 87 87 98
Width: 998
Flags: HW
TeX: 688 0
ItalicCorrection: 183
HStem: -22 21<316.5 331.5 656.5 669> 652 31<225 241.5 224 254.5 426 433 565 582.5 772 776>
VStem: 208 916<667 672.5 667 673.5>
AnchorPoint: "below" 499 0 basechar 0
AnchorPoint: "above" 676 705 basechar 0
LayerCount: 2
Fore
SplineSet
208 664 m 0
 208 683 222 683 226 683 c 0
 257 683 292 680 324 680 c 0
 361 680 400 683 437 683 c 0
 440 683 451 683 451 671 c 0
 451 652 440 652 426 652 c 0
 359 651 360 626 361 605 c 2
 383 116 l 1
 616 544 l 2
 622 554 622 556 622 564 c 0
 622 565 619 627 618 631 c 0
 616 646 612 652 570 652 c 0
 560 652 549 652 549 664 c 0
 549 683 563 683 567 683 c 0
 598 683 633 680 665 680 c 0
 702 680 741 683 778 683 c 0
 784 683 792 681 792 672 c 0
 792 652 780 652 772 652 c 0
 707 651 701 632 701 615 c 0
 701 611 701 609 702 608 c 2
 724 116 l 1
 977 582 l 2
 983 593 988 602 988 614 c 0
 988 645 954 651 937 652 c 0
 930 652 921 653 921 664 c 0
 921 683 934 683 940 683 c 0
 972 683 1007 680 1039 680 c 0
 1063 680 1089 683 1112 683 c 0
 1124 683 1124 673 1124 672 c 0
 1124 662 1120 653 1110 652 c 0
 1062 648 1038 632 1004 570 c 2
 691 -4 l 2
 681 -22 673 -22 665 -22 c 0
 648 -22 648 -16 647 3 c 2
 625 501 l 1
 350 -2 l 2
 342 -17 339 -22 324 -22 c 0
 309 -22 307 -18 306 3 c 2
 278 620 l 2
 277 644 277 652 232 652 c 0
 218 652 208 652 208 664 c 0
EndSplineSet
EndChar

StartChar: X
Encoding: 88 88 99
Width: 743
Flags: HW
TeX: 688 0
ItalicCorrection: 158
HStem: 0 31<237.5 261 665.5 684> 652 31<243 261.5 242 277 462 464.5>
VStem: 51 774<10 675.5>
AnchorPoint: "below" 372 0 basechar 0
AnchorPoint: "above" 548 705 basechar 0
LayerCount: 2
Fore
SplineSet
51 12 m 0
 51 13 52 30 63 31 c 0
 96 33 152 36 211 104 c 2
 419 341 l 1
 316 620 l 2
 308 642 304 652 250 652 c 0
 236 652 226 652 226 664 c 0
 226 683 239 683 245 683 c 0
 278 683 313 680 347 680 c 0
 386 680 426 683 464 683 c 0
 471 683 478 681 478 670 c 0
 478 653 467 652 462 652 c 0
 425 649 405 630 405 623 c 0
 405 622 409 612 409 611 c 2
 482 412 l 1
 630 582 l 2
 648 603 651 614 651 622 c 0
 651 649 622 651 615 652 c 0
 612 652 603 653 603 664 c 0
 603 683 615 683 621 683 c 0
 654 683 691 680 725 680 c 0
 754 680 784 683 812 683 c 0
 818 683 825 680 825 671 c 0
 825 653 815 653 804 652 c 0
 728 647 691 606 667 580 c 1
 655 570 l 1
 492 383 l 1
 611 61 l 2
 618 42 622 31 676 31 c 0
 692 31 700 31 700 18 c 0
 700 0 688 0 682 0 c 0
 649 0 613 3 579 3 c 0
 541 3 501 0 463 0 c 0
 460 0 448 0 448 12 c 0
 448 27 457 30 464 31 c 0
 500 33 521 51 521 61 c 0
 521 64 519 69 518 73 c 2
 430 312 l 1
 238 93 l 1
 237 91 l 2
 236 89 235 87 233 85 c 0
 226 75 225 65 225 61 c 0
 225 51 230 34 260 31 c 0
 262 31 273 30 273 20 c 0
 273 0 259 0 254 0 c 0
 221 0 185 3 151 3 c 0
 122 3 91 0 63 0 c 0
 53 0 51 8 51 12 c 0
EndSplineSet
EndChar

StartChar: Y
Encoding: 89 89 100
Width: 743
Flags: HW
TeX: 688 0
ItalicCorrection: 193
HStem: 0 31<259 266 259 274 471 491.5> 652 31<219 237.5 218 249.5 427.5 439.5>
VStem: 202 672<662.5 672.5 662.5 673.5>
AnchorPoint: "below" 371 0 basechar 0
AnchorPoint: "above" 547 705 basechar 0
LayerCount: 2
Fore
SplineSet
202 664 m 0
 202 683 215 683 221 683 c 0
 254 683 291 680 325 680 c 0
 364 680 404 683 442 683 c 0
 446 683 456 683 456 671 c 0
 456 652 445 652 434 652 c 0
 421 652 378 651 378 628 c 0
 378 627 378 625 382 615 c 2
 477 315 l 1
 696 582 l 2
 698 585 721 612 721 629 c 0
 721 645 707 651 690 652 c 0
 684 652 675 653 675 664 c 0
 675 683 687 683 693 683 c 0
 723 683 755 680 786 680 c 0
 811 680 838 683 862 683 c 0
 874 683 874 673 874 672 c 0
 874 653 864 653 855 652 c 0
 807 648 769 627 722 570 c 2
 486 283 l 2
 479 275 479 273 474 256 c 0
 464 214 455 181 443 133 c 0
 436 104 424 56 424 48 c 0
 424 31 451 31 482 31 c 0
 501 31 509 31 509 19 c 0
 509 0 496 0 490 0 c 0
 452 0 410 3 371 3 c 0
 333 3 293 0 255 0 c 0
 252 0 241 0 241 12 c 0
 241 31 252 31 266 31 c 0
 340 32 341 35 354 90 c 0
 359 109 400 268 400 273 c 0
 400 277 398 283 396 288 c 2
 290 622 l 2
 283 645 273 652 226 652 c 0
 212 652 202 652 202 664 c 0
EndSplineSet
EndChar

StartChar: Z
Encoding: 90 90 101
Width: 613
Flags: HW
TeX: 688 0
ItalicCorrection: 145
HStem: 0 34<91 103 177 324 324 411> 652 31<389 468 468 608>
VStem: 80 624
AnchorPoint: "below" 309 0 basechar 0
AnchorPoint: "above" 485 705 basechar 0
LayerCount: 2
Fore
SplineSet
80 9 m 0
 80 21 86 28 91 34 c 2
 608 652 l 1
 468 652 l 2
 310 652 270 567 241 476 c 0
 236 462 235 458 223 458 c 0
 220 458 208 458 208 469 c 0
 208 470 210 480 211 482 c 2
 265 663 l 2
 271 682 272 683 294 683 c 2
 681 683 l 2
 698 683 704 683 704 674 c 0
 704 669 703 661 692 648 c 2
 177 34 l 1
 324 34 l 2
 498 34 532 127 569 242 c 0
 577 266 578 267 589 267 c 0
 595 267 605 267 605 255 c 0
 605 254 601 241 600 239 c 2
 532 18 l 2
 526 0 525 0 503 0 c 2
 103 0 l 2
 87 0 80 0 80 9 c 0
EndSplineSet
EndChar

StartChar: bracketleft
Encoding: 91 91 102
Width: 307
Flags: HW
TeX: 749 249
ItalicCorrection: 187
HStem: -250 23<127 197.991> 727 23<365 442.962>
DStem2: 58.2481 -250 121.248 -250 0.242599 0.970127<38.9921 1022.23>
LayerCount: 2
Fore
SplineSet
63 -236 m 0
 63 -232 64 -227 65 -223 c 2
 298 709 l 2
 306 743 306 750 329 750 c 2
 421 750 l 2
 430 750 443 749 443 739 c 0
 443 729 431 727 420 727 c 2
 365 727 l 1
 127 -227 l 1
 174 -227 l 2
 186 -227 198 -228 198 -238 c 0
 198 -249 186 -250 177 -250 c 2
 85 -250 l 2
 73 -250 63 -248 63 -236 c 0
EndSplineSet
EndChar

StartChar: backslash
Encoding: 92 92 103
Width: 511
Flags: HW
TeX: 749 249
VStem: 262 23<647.75 747.851> 350 23<-247.851 -147.83>
LayerCount: 2
Fore
SplineSet
262 722 m 1
 262 732 l 2
 262 740 264 748 272 748 c 0
 283 748 284 735 285 723 c 2
 373 -223 l 1
 373 -233 l 2
 373 -245 367 -248 363 -248 c 0
 352 -248 351 -235 350 -223 c 2
 262 722 l 1
EndSplineSet
EndChar

StartChar: bracketright
Encoding: 93 93 104
Width: 307
Flags: HW
TeX: 749 249
ItalicCorrection: 105
HStem: -250 23<-10.9652 67> 727 23<233.038 305>
DStem2: 61.2484 -250 122.997 -250 0.242599 0.970127<23.7082 1006.95>
LayerCount: 2
Fore
SplineSet
-11 -239 m 0
 -11 -229 1 -227 12 -227 c 2
 67 -227 l 1
 305 727 l 1
 256 727 l 2
 245 727 233 728 233 738 c 0
 233 748 246 750 255 750 c 2
 347 750 l 2
 359 750 369 748 369 736 c 0
 369 732 368 728 367 724 c 2
 133 -210 l 2
 125 -243 126 -250 103 -250 c 2
 10 -250 l 2
 1 -250 -11 -249 -11 -239 c 0
EndSplineSet
EndChar

StartChar: asciicircum
Encoding: 94 94 105
Width: 613
Flags: HW
TeX: 688 0
ItalicCorrection: 66
HStem: 575 51<452 474.84>
LayerCount: 2
Fore
SplineSet
248 476 m 0
 248 485 257 491 269 499 c 0
 442 618 451 626 460 626 c 2
 461 626 l 2
 470 626 469 624 589 498 c 0
 594 492 603 485 603 477 c 0
 603 470 595 461 587 461 c 2
 586 461 l 2
 578 461 577 463 453 575 c 1
 452 575 l 1
 281 469 l 2
 276 466 269 461 262 461 c 0
 254 461 248 470 248 476 c 0
EndSplineSet
EndChar

StartChar: underscore
Encoding: 95 95 106
Width: 766
Flags: HW
TeX: 0 232
HStem: -233 40<50.003 608.982>
LayerCount: 2
Fore
SplineSet
50 -213 m 0
 50 -205 54 -193 79 -193 c 2
 580 -193 l 2
 606 -193 609 -205 609 -213 c 0
 609 -234 584 -233 581 -233 c 2
 79 -233 l 2
 54 -233 50 -221 50 -213 c 0
EndSplineSet
EndChar

StartChar: quoteleft
Encoding: 8216 8216 107
Width: 307
Flags: HW
TeX: 688 0
ItalicCorrection: 124
HStem: 394 106<231.7 300.725> 672 20G<345 350.5>
VStem: 206 113<411.798 480.83>
LayerCount: 2
Fore
SplineSet
206 456 m 0
 206 502 233 596 319 673 c 0
 337 689 342 692 348 692 c 0
 353 692 358 689 358 683 c 0
 358 665 263 623 231 483 c 1
 246 494 257 500 275 500 c 0
 301 500 319 483 319 458 c 0
 319 426 289 394 254 394 c 0
 235 394 206 405 206 456 c 0
EndSplineSet
EndChar

StartChar: a
Encoding: 97 97 108
Width: 511
Flags: HW
TeX: 430 0
ItalicCorrection: 76
HStem: -11 22<207.5 247 421 450.5> 420 22<316.5 353 281.5 359>
VStem: 108 68<101.5 125 85 217>
AnchorPoint: "ogonek" 435 0 basechar 0
AnchorPoint: "affricate-below" 462 -194 basechar 0
AnchorPoint: "affricate-above" 685 694 basechar 0
AnchorPoint: "below" 226 0 basechar 0
AnchorPoint: "above" 337 442 basechar 0
LayerCount: 2
Fore
SplineSet
108 144 m 0
 108 290 226 442 337 442 c 0
 369 442 401 426 420 383 c 1
 421 388 428 422 460 422 c 0
 470 422 487 417 487 396 c 0
 487 391 487 389 483 375 c 2
 415 103 l 2
 408 75 408 59 408 52 c 0
 408 38 408 11 434 11 c 0
 468 11 487 74 501 130 c 0
 507 152 508 153 520 153 c 0
 527 153 535 153 535 143 c 0
 535 141 523 83 505 45 c 0
 490 14 469 -11 432 -11 c 0
 397 -11 360 10 349 59 c 1
 309 10 265 -11 229 -11 c 0
 154 -11 108 59 108 144 c 0
176 100 m 0
 176 70 184 11 231 11 c 0
 286 11 348 92 356 124 c 2
 403 313 l 2
 405 319 406 324 406 326 c 0
 406 368 381 420 337 420 c 0
 296 420 250 370 225 309 c 0
 207 267 176 150 176 100 c 0
EndSplineSet
EndChar

StartChar: b
Encoding: 98 98 109
Width: 460
Flags: HW
TeX: 688 0
ItalicCorrection: 63
HStem: -11 22<217.5 255.5 217.5 286> 420 22<320 359.5> 652 42
VStem: 115 57<99 129 69.5 160> 392 67<310 339.5 212.5 347>
AnchorPoint: "affricate-below" 411 -194 basechar 0
AnchorPoint: "affricate-above" 634 694 basechar 0
AnchorPoint: "below" 233 0 basechar 0
AnchorPoint: "above" 406 694 basechar 0
LayerCount: 2
Fore
SplineSet
115 141 m 0
 115 179 125 220 126 223 c 2
 225 618 l 2
 225 619 228 632 228 635 c 0
 228 645 226 652 178 652 c 0
 164 652 154 652 154 663 c 0
 154 682 165 683 177 684 c 2
 276 692 l 2
 279 693 289 694 292 694 c 0
 300 694 306 691 306 682 c 0
 306 680 304 672 303 669 c 2
 233 389 l 1
 267 421 301 442 339 442 c 0
 399 442 459 393 459 286 c 0
 459 139 342 -11 230 -11 c 0
 157 -11 115 57 115 141 c 0
172 107 m 0
 172 32 205 11 230 11 c 0
 281 11 324 81 336 106 c 0
 365 170 392 289 392 331 c 0
 392 363 382 420 337 420 c 0
 299 420 261 386 232 346 c 0
 217 326 217 324 210 300 c 0
 181 186 172 151 172 107 c 0
EndSplineSet
EndChar

StartChar: c
Encoding: 99 99 110
Width: 460
Flags: HW
TeX: 430 0
ItalicCorrection: 56
HStem: -11 22<232 267.5 232 321> 296 79 420 22<341.5 369.5>
VStem: 110 70<104.5 140.5 85 227> 385 85<320 380.5>
AnchorPoint: "affricate-below" 411 -194 basechar 0
AnchorPoint: "affricate-above" 634 694 basechar 0
AnchorPoint: "below" 260 0 basechar 0
AnchorPoint: "above" 362 442 basechar 0
LayerCount: 2
Fore
SplineSet
110 154 m 0
 110 300 239 442 363 442 c 0
 427 442 470 405 470 356 c 0
 470 318 446 296 419 296 c 0
 396 296 385 312 385 328 c 0
 385 330 385 371 435 377 c 1
 420 418 375 420 364 420 c 0
 319 420 269 385 233 320 c 0
 207 272 180 167 180 114 c 0
 180 56 205 11 259 11 c 0
 276 11 365 15 439 109 c 0
 447 119 448 120 452 120 c 0
 460 120 468 109 468 104 c 0
 468 89 385 -11 257 -11 c 0
 169 -11 110 55 110 154 c 0
EndSplineSet
EndChar

StartChar: d
Encoding: 100 100 111
Width: 511
Flags: HW
TeX: 688 0
ItalicCorrection: 103
HStem: -11 22<207.5 247 421 450.5> 420 22<316.5 341> 652 42
VStem: 108 68<101.5 125 85 217>
AnchorPoint: "affricate-below" 462 -194 basechar 0
AnchorPoint: "affricate-above" 685 694 basechar 0
AnchorPoint: "below" 282 0 basechar 0
AnchorPoint: "above" 399 694 basechar 0
LayerCount: 2
Fore
SplineSet
108 144 m 0
 108 290 226 442 337 442 c 0
 379 442 406 415 421 384 c 1
 479 618 l 2
 479 619 482 632 482 635 c 0
 482 645 480 652 432 652 c 0
 418 652 408 652 408 663 c 0
 408 682 419 683 431 684 c 2
 530 692 l 2
 533 693 543 694 546 694 c 0
 554 694 560 691 560 682 c 0
 560 680 558 672 557 669 c 2
 414 98 l 2
 408 74 408 59 408 52 c 0
 408 38 408 11 434 11 c 0
 468 11 487 74 501 130 c 0
 507 152 508 153 520 153 c 0
 527 153 535 153 535 143 c 0
 535 141 523 83 505 45 c 0
 490 14 469 -11 432 -11 c 0
 397 -11 360 10 349 59 c 1
 309 10 265 -11 229 -11 c 0
 154 -11 108 59 108 144 c 0
176 100 m 0
 176 70 184 11 231 11 c 0
 286 11 347 91 355 122 c 2
 403 314 l 2
 405 320 406 324 406 327 c 0
 406 346 396 375 386 391 c 0
 368 419 345 420 337 420 c 0
 296 420 250 370 225 309 c 0
 207 267 176 150 176 100 c 0
EndSplineSet
EndChar

StartChar: e
Encoding: 101 101 112
Width: 460
Flags: HW
TeX: 430 0
ItalicCorrection: 75
HStem: -11 22<226.5 267.5 226.5 321> 231 22<206 227 227 239 200 227> 420 22<357 382>
VStem: 114 69<119 140 101.5 252.5> 425 38<353.5 376>
AnchorPoint: "ogonek" 260 0 basechar 0
AnchorPoint: "affricate-below" 411 -194 basechar 0
AnchorPoint: "affricate-above" 634 694 basechar 0
AnchorPoint: "below" 260 0 basechar 0
AnchorPoint: "above" 362 442 basechar 0
LayerCount: 2
Fore
SplineSet
114 164 m 0
 114 341 257 442 362 442 c 0
 426 442 463 403 463 357 c 0
 463 350 463 285 384 253 c 0
 336 234 269 231 239 231 c 2
 200 231 l 1
 193 204 183 159 183 121 c 0
 183 82 194 11 259 11 c 0
 276 11 365 15 439 109 c 0
 447 119 448 120 452 120 c 0
 460 120 468 109 468 104 c 0
 468 89 385 -11 257 -11 c 0
 162 -11 114 74 114 164 c 0
206 253 m 1
 227 253 l 2
 260 253 425 253 425 359 c 0
 425 393 402 420 362 420 c 0
 352 420 249 417 206 253 c 1
EndSplineSet
EndChar

StartChar: f
Encoding: 102 102 113
Width: 306
Flags: HW
TeX: 688 194
ItalicCorrection: 211
HStem: -205 22<50 73 50 107> -164 80 400 31<143.5 219 153 213 283 359> 584 78 683 22<352 374>
VStem: -25 84<-126 -121.5> 368 84<621.5 626>
AnchorPoint: "affricate-below" 257 -194 basechar 0
AnchorPoint: "affricate-above" 480 694 basechar 0
AnchorPoint: "above" 350 694 basechar 0
AnchorPoint: "below" 81 -194 basechar 0
LayerCount: 2
Fore
SplineSet
-25 -139 m 0
 -25 -104 0 -84 25 -84 c 0
 41 -84 59 -94 59 -116 c 0
 59 -136 45 -160 15 -165 c 1
 26 -180 45 -183 55 -183 c 0
 91 -183 104 -131 112 -97 c 1
 118 -76 128 -35 140 27 c 2
 213 400 l 1
 151 400 l 2
 136 400 126 400 126 411 c 0
 126 431 137 431 153 431 c 2
 219 431 l 1
 240 541 l 2
 247 575 272 705 370 705 c 0
 411 705 452 682 452 639 c 0
 452 604 427 584 402 584 c 0
 386 584 368 594 368 616 c 0
 368 636 382 660 412 665 c 1
 399 681 378 683 370 683 c 0
 334 683 323 630 315 593 c 0
 300 523 297 505 283 431 c 1
 361 431 l 2
 378 431 386 431 386 418 c 0
 386 400 376 400 359 400 c 2
 277 400 l 1
 207 41 l 2
 200 5 159 -205 55 -205 c 0
 18 -205 -25 -184 -25 -139 c 0
EndSplineSet
EndChar

StartChar: g
Encoding: 103 103 114
Width: 460
Flags: HW
TeX: 430 194
ItalicCorrection: 88
HStem: -205 22<169.5 183.5 169.5 226.5> -171 77 0 22<207 257.5> 400 22 420 22<317.5 358.5 281 367>
VStem: 53 84<-134.5 -127.5> 110 68<110.5 133 103.5 223.5>
AnchorPoint: "affricate-below" 411 -194 basechar 0
AnchorPoint: "affricate-above" 634 694 basechar 0
AnchorPoint: "below" 177 -194 basechar 0
AnchorPoint: "above" 336 442 basechar 0
LayerCount: 2
Fore
SplineSet
53 -147 m 0
 53 -108 84 -94 102 -94 c 0
 128 -94 137 -113 137 -126 c 0
 137 -143 125 -164 105 -172 c 1
 132 -183 163 -183 176 -183 c 0
 191 -183 231 -183 271 -136 c 0
 299 -102 305 -81 317 -31 c 2
 338 53 l 1xf4
 326 41 283 0 232 0 c 0
 157 0 110 68 110 153 c 0
 110 294 225 442 337 442 c 0xea
 380 442 407 414 421 385 c 1
 425 414 448 422 460 422 c 0
 470 422 487 417 487 396 c 0
 487 392 487 390 483 375 c 2
 374 -63 l 2
 355 -139 279 -205 174 -205 c 0
 90 -205 53 -187 53 -147 c 0
178 109 m 0
 178 98 180 22 234 22 c 0
 289 22 350 100 358 132 c 2
 403 314 l 1
 406 328 l 1
 406 336 397 420 337 420 c 0
 298 420 254 375 229 321 c 0
 208 274 178 157 178 109 c 0
EndSplineSet
EndChar

StartChar: h
Encoding: 104 104 115
Width: 511
Flags: HW
TeX: 688 0
ItalicCorrection: 76
HStem: -11 22<399.5 439 399.5 454.5> 420 22<329.5 382> 652 42
VStem: 332 56<47 52.5 33 79.5> 406 61<323 364.5>
AnchorPoint: "affricate-below" 462 -194 basechar 0
AnchorPoint: "affricate-above" 685 694 basechar 0
AnchorPoint: "below" 228 0 basechar 0
AnchorPoint: "above" 402 694 basechar 0
LayerCount: 2
Fore
SplineSet
75 15 m 0
 75 17 76 26 77 28 c 2
 225 618 l 2
 225 619 228 632 228 635 c 0
 228 645 226 652 178 652 c 0
 164 652 154 652 154 663 c 0
 154 682 165 683 177 684 c 2
 276 692 l 2
 279 693 289 694 292 694 c 0
 300 694 306 691 306 682 c 0
 306 680 304 672 303 669 c 2
 230 377 l 1
 261 407 296 442 363 442 c 0
 412 442 467 420 467 338 c 0
 467 280 426 168 406 115 c 0
 398 91 388 65 388 40 c 0
 388 26 389 11 410 11 c 0
 468 11 495 109 503 136 c 0
 507 151 507 153 520 153 c 0
 527 153 535 153 535 143 c 0
 535 138 501 -11 408 -11 c 0
 360 -11 332 25 332 69 c 0
 332 90 335 99 348 133 c 1
 362 173 406 292 406 354 c 0
 406 375 404 420 360 420 c 0
 290 420 247 357 227 325 c 1
 209 293 208 291 199 255 c 0
 194 233 188 212 183 190 c 0
 176 162 144 32 140 17 c 0
 137 6 124 -11 103 -11 c 0
 84 -11 75 4 75 15 c 0
EndSplineSet
EndChar

StartChar: i
Encoding: 105 105 116
Width: 306
Flags: HW
TeX: 661 0
ItalicCorrection: 101
HStem: -11 22<202 235 202 251> 420 22<180 214.5> 575 81<281.5 288>
VStem: 128 56<49.5 52 25.5 79> 231 55<380 389.5 352.5 403.5> 244 82<608.5 622>
AnchorPoint: "above" 313 636 basechar 0
AnchorPoint: "ogonek" 207 0 basechar 0
AnchorPoint: "affricate-below" 257 -194 basechar 0
AnchorPoint: "affricate-above" 480 694 basechar 0
AnchorPoint: "below" 154 0 basechar 0
LayerCount: 2
Fore
SplineSet
244 608 m 0
 244 636 271 656 292 656 c 0
 306 656 326 648 326 623 c 0xf4
 326 594 298 575 278 575 c 0
 264 575 244 583 244 608 c 0
EndSplineSet
Refer: 36 305 S 1 0 0 1 0 0 3
EndChar

StartChar: j
Encoding: 106 106 117
Width: 306
Flags: HW
TeX: 661 194
ItalicCorrection: 144
HStem: -205 22<36 76 36 84> -174 80 420 22<208 246.5> 575 81<310.5 320>
VStem: -35 84<-128.5 -127.5> 261 60<372 375.5 345 389> 274 83<609.5 620>
AnchorPoint: "affricate-below" 257 -194 basechar 0
AnchorPoint: "affricate-above" 480 694 basechar 0
AnchorPoint: "below" 84 -194 basechar 0
LayerCount: 2
Fore
SplineSet
-35 -147 m 0
 -35 -108 -4 -94 14 -94 c 0
 40 -94 49 -113 49 -126 c 0
 49 -131 46 -163 11 -174 c 1
 13 -175 27 -183 45 -183 c 0
 107 -183 146 -105 159 -52 c 2
 254 329 l 2
 258 345 261 364 261 380 c 0
 261 398 259 420 234 420 c 0
 182 420 142 358 117 295 c 0
 111 279 111 278 98 278 c 0
 93 278 83 278 83 288 c 0
 83 295 136 442 235 442 c 0
 291 442 321 399 321 352 c 0
 321 338 317 322 316 319 c 2xfc
 223 -55 l 2
 202 -140 122 -205 46 -205 c 0
 2 -205 -35 -184 -35 -147 c 0
274 608 m 0
 274 632 298 656 323 656 c 0
 335 656 357 650 357 622 c 0xfa
 357 597 332 575 308 575 c 0
 284 575 274 595 274 608 c 0
EndSplineSet
EndChar

StartChar: k
Encoding: 107 107 118
Width: 460
Flags: HW
TeX: 688 0
ItalicCorrection: 107
HStem: -11 22<360.5 393> 326 81 420 22<412.5 446.5> 652 42
VStem: 294 64<141.5 174> 417 85<351.5 395>
AnchorPoint: "affricate-below" 411 -194 basechar 0
AnchorPoint: "affricate-above" 634 694 basechar 0
AnchorPoint: "below" 218 0 basechar 0
AnchorPoint: "above" 391 694 basechar 0
LayerCount: 2
Fore
SplineSet
75 15 m 0
 75 17 76 26 77 28 c 2
 225 618 l 2
 225 619 228 632 228 635 c 0
 228 645 226 652 178 652 c 0
 164 652 154 652 154 663 c 0
 154 682 165 683 177 684 c 2
 276 692 l 2
 279 693 289 694 292 694 c 0
 300 694 306 691 306 682 c 0
 306 680 304 672 303 669 c 2
 201 261 l 1
 236 278 252 294 309 360 c 0
 343 400 386 442 439 442 c 0
 484 442 502 408 502 382 c 0
 502 344 474 326 452 326 c 0
 426 326 417 345 417 358 c 0
 417 366 422 401 464 408 c 1
 463 409 456 420 437 420 c 0
 387 420 348 374 296 315 c 0
 269 284 248 263 225 249 c 1
 288 240 358 213 358 145 c 0
 358 132 358 131 353 110 c 0
 352 105 345 77 345 54 c 0
 345 34 347 11 374 11 c 0
 418 11 437 79 450 130 c 0
 456 152 457 153 469 153 c 0
 476 153 484 153 484 143 c 0
 484 140 470 79 448 41 c 0
 437 22 415 -11 371 -11 c 0
 334 -11 287 14 287 86 c 0
 287 96 287 103 291 120 c 0
 294 134 294 138 294 145 c 0
 294 203 230 224 193 229 c 1
 142 26 l 2
 140 17 133 -11 103 -11 c 0
 84 -11 75 4 75 15 c 0
EndSplineSet
EndChar

StartChar: l
Encoding: 108 108 119
Width: 255
Flags: HW
TeX: 688 0
ItalicCorrection: 103
HStem: -11 22<167 194 167 197> 652 42
VStem: 94 60<52.5 55.5 45 86.5>
AnchorPoint: "affricate-below" 206 -194 basechar 0
AnchorPoint: "affricate-above" 429 694 basechar 0
AnchorPoint: "below" 102 0 basechar 0
AnchorPoint: "above" 276 694 basechar 0
LayerCount: 2
Fore
SplineSet
94 79 m 0
 94 94 99 114 100 118 c 2
 225 618 l 2
 225 619 228 632 228 635 c 0
 228 645 226 652 178 652 c 0
 164 652 154 652 154 663 c 0
 154 682 165 683 177 684 c 2
 276 692 l 2
 279 693 289 694 292 694 c 0
 300 694 306 691 306 682 c 0
 306 680 304 672 303 669 c 2
 160 98 l 2
 154 74 154 59 154 52 c 0
 154 38 154 11 180 11 c 0
 208 11 227 53 244 123 c 1
 251 148 l 1
 254 153 260 153 265 153 c 0
 272 153 280 153 280 143 c 0
 280 140 266 76 249 41 c 0
 236 16 216 -11 178 -11 c 0
 130 -11 94 26 94 79 c 0
EndSplineSet
EndChar

StartChar: m
Encoding: 109 109 120
Width: 817
Flags: HW
TeX: 430 0
ItalicCorrection: 76
HStem: -11 22<706.5 746 706.5 761.5> 420 22<169.5 198 384 435 634 690>
VStem: 639 56<47 52.5 33 79.5> 713 61<323 361.5>
AnchorPoint: "affricate-below" 768 -194 basechar 0
AnchorPoint: "affricate-above" 991 694 basechar 0
AnchorPoint: "below" 408 0 basechar 0
AnchorPoint: "above" 518 442 basechar 0
LayerCount: 2
Fore
SplineSet
83 288 m 0
 83 290 96 349 115 389 c 1
 131 419 151 442 187 442 c 0
 230 442 264 412 271 363 c 1
 305 409 354 442 414 442 c 0
 459 442 511 423 519 354 c 1
 549 398 599 442 669 442 c 0
 716 442 774 422 774 338 c 0
 774 280 733 168 713 115 c 0
 705 91 695 65 695 40 c 0
 695 26 696 11 717 11 c 0
 775 11 802 109 810 136 c 0
 814 151 814 153 827 153 c 0
 834 153 842 153 842 143 c 0
 842 138 808 -11 715 -11 c 0
 667 -11 639 25 639 69 c 0
 639 90 642 99 655 133 c 1
 669 173 713 292 713 354 c 0
 713 369 713 420 667 420 c 0
 598 420 555 362 526 312 c 0
 514 291 514 289 501 240 c 0
 496 218 490 197 485 175 c 2
 445 15 l 1
 438 -4 421 -11 409 -11 c 0
 389 -11 381 4 381 15 c 0
 381 18 382 23 384 29 c 2
 449 289 l 2
 451 298 458 327 458 354 c 0
 458 369 458 420 412 420 c 0
 343 420 300 362 271 312 c 0
 259 291 259 289 246 240 c 0
 241 218 235 197 230 175 c 2
 190 15 l 1
 183 -4 166 -11 154 -11 c 0
 134 -11 126 4 126 15 c 0
 126 18 127 23 129 29 c 2
 204 329 l 2
 208 345 211 364 211 380 c 0
 211 391 211 420 185 420 c 0
 154 420 135 371 117 301 c 0
 112 279 111 278 98 278 c 0
 93 278 83 278 83 288 c 0
EndSplineSet
EndChar

StartChar: n
Encoding: 110 110 121
Width: 562
Flags: HW
TeX: 430 0
ItalicCorrection: 76
HStem: -11 22<450.5 490 450.5 505.5> 420 22<169.5 198 373 433>
VStem: 383 56<47 52.5 33 79.5> 457 61<323 364.5>
AnchorPoint: "affricate-below" 513 -194 basechar 0
AnchorPoint: "affricate-above" 736 694 basechar 0
AnchorPoint: "below" 280 0 basechar 0
AnchorPoint: "above" 390 442 basechar 0
LayerCount: 2
Fore
SplineSet
83 288 m 0
 83 290 96 349 115 389 c 1
 131 419 151 442 187 442 c 0
 230 442 264 412 271 363 c 1
 284 382 332 442 414 442 c 0
 463 442 518 420 518 338 c 0
 518 280 477 168 457 115 c 0
 449 91 439 65 439 40 c 0
 439 26 440 11 461 11 c 0
 519 11 546 109 554 136 c 0
 558 151 558 153 571 153 c 0
 578 153 586 153 586 143 c 0
 586 138 552 -11 459 -11 c 0
 411 -11 383 25 383 69 c 0
 383 90 386 99 399 133 c 1
 413 173 457 292 457 354 c 0
 457 375 455 420 411 420 c 0
 335 420 290 345 276 321 c 0
 259 292 259 291 246 240 c 0
 241 218 235 197 230 175 c 2
 190 15 l 1
 183 -4 166 -11 154 -11 c 0
 134 -11 126 4 126 15 c 0
 126 18 127 23 129 29 c 2
 204 329 l 2
 208 345 211 364 211 380 c 0
 211 391 211 420 185 420 c 0
 154 420 135 371 117 301 c 0
 112 279 111 278 98 278 c 0
 93 278 83 278 83 288 c 0
EndSplineSet
EndChar

StartChar: o
Encoding: 111 111 122
Width: 511
Flags: HW
TeX: 430 0
ItalicCorrection: 63
HStem: -11 22<236.5 280.5 236.5 318> 420 22<342.5 386.5>
VStem: 110 70<102.5 139 78 227> 439 70<295.5 325.5 204.5 346.5>
AnchorPoint: "ogonek" 259 0 basechar 0
AnchorPoint: "affricate-below" 462 -194 basechar 0
AnchorPoint: "affricate-above" 685 694 basechar 0
AnchorPoint: "below" 259 0 basechar 0
AnchorPoint: "above" 362 442 basechar 0
LayerCount: 2
Fore
SplineSet
110 154 m 0
 110 300 239 442 363 442 c 0
 450 442 509 373 509 278 c 0
 509 131 380 -11 256 -11 c 0
 173 -11 110 51 110 154 c 0
180 114 m 0
 180 42 217 11 256 11 c 0
 305 11 356 56 385 111 c 0
 417 171 439 274 439 317 c 0
 439 376 411 420 362 420 c 0
 323 420 275 390 238 329 c 0
 206 275 180 164 180 114 c 0
EndSplineSet
EndChar

StartChar: p
Encoding: 112 112 123
Width: 511
Flags: HW
TeX: 430 194
ItalicCorrection: 63
HStem: -194 31<30.5 35 30.5 39.5 191.5 209> -11 22<256 306.5 252 336.5> 420 22<169.5 198 365.5 410.5>
VStem: 443 67<310 339.5 211.5 347>
AnchorPoint: "affricate-below" 462 -194 basechar 0
AnchorPoint: "affricate-above" 685 694 basechar 0
AnchorPoint: "below" 235 -194 basechar 0
AnchorPoint: "above" 394 442 basechar 0
LayerCount: 2
Fore
SplineSet
14 -182 m 0
 14 -163 26 -163 35 -163 c 0
 74 -162 82 -159 90 -128 c 2
 204 330 l 2
 211 358 211 374 211 380 c 0
 211 391 211 420 185 420 c 0
 154 420 135 371 117 301 c 0
 112 279 111 278 98 278 c 0
 93 278 83 278 83 288 c 0
 83 290 96 349 115 389 c 1
 131 419 151 442 187 442 c 0
 212 442 257 430 269 372 c 1
 298 406 341 442 390 442 c 0
 450 442 510 393 510 286 c 0
 510 137 391 -11 282 -11 c 0
 230 -11 205 30 198 47 c 1
 162 -99 l 2
 158 -115 151 -141 151 -147 c 0
 151 -157 151 -163 202 -163 c 0
 216 -163 226 -163 226 -175 c 0
 226 -194 213 -194 207 -194 c 0
 176 -194 142 -191 110 -191 c 0
 82 -191 53 -194 26 -194 c 0
 19 -194 14 -189 14 -182 c 0
213 104 m 0
 213 96 223 11 281 11 c 0
 332 11 375 81 387 106 c 0
 416 170 443 289 443 331 c 0
 443 363 433 420 388 420 c 0
 333 420 271 341 263 307 c 2
 216 118 l 2
 214 110 213 107 213 104 c 0
EndSplineSet
EndChar

StartChar: q
Encoding: 113 113 124
Width: 460
Flags: HW
TeX: 430 194
ItalicCorrection: 88
HStem: -194 31<213.5 220 213.5 225 394 412> -11 22<207.5 249.5> 420 22<316.5 341>
VStem: 108 68<101.5 125 85 217>
AnchorPoint: "affricate-below" 411 -194 basechar 0
AnchorPoint: "affricate-above" 634 694 basechar 0
AnchorPoint: "below" 177 -194 basechar 0
AnchorPoint: "above" 336 442 basechar 0
LayerCount: 2
Fore
SplineSet
108 144 m 0
 108 290 226 442 337 442 c 0
 385 442 411 407 423 378 c 1
 439 406 475 441 486 441 c 0
 489 441 497 439 497 430 c 0
 497 428 495 420 494 417 c 2
 357 -129 l 2
 356 -135 354 -140 354 -147 c 0
 354 -157 354 -163 405 -163 c 0
 419 -163 429 -163 429 -175 c 0
 429 -194 416 -194 410 -194 c 0
 378 -194 342 -191 309 -191 c 0
 276 -191 241 -194 209 -194 c 0
 202 -194 196 -191 196 -182 c 0
 196 -163 207 -163 220 -163 c 0
 284 -162 285 -158 296 -115 c 0
 316 -36 315 -36 335 42 c 1
 307 15 270 -11 229 -11 c 0
 154 -11 108 59 108 144 c 0
176 100 m 0
 176 70 184 11 231 11 c 0
 286 11 347 91 355 122 c 2
 403 314 l 2
 405 320 406 324 406 327 c 0
 406 346 396 375 386 391 c 0
 368 419 345 420 337 420 c 0
 296 420 250 370 225 309 c 0
 207 267 176 150 176 100 c 0
EndSplineSet
EndChar

StartChar: r
Encoding: 114 114 125
Width: 421
Flags: HW
TeX: 430 0
ItalicCorrection: 107
HStem: -11 21<144 169> 326 79 420 22<169.5 198 356.5 392.5>
VStem: 405 84<359.5 360.5>
AnchorPoint: "affricate-below" 372 -194 basechar 0
AnchorPoint: "affricate-above" 595 694 basechar 0
AnchorPoint: "below" 157 0 basechar 0
AnchorPoint: "above" 293 442 basechar 0
LayerCount: 2
Fore
SplineSet
83 288 m 0
 83 290 96 349 115 389 c 1
 131 419 151 442 187 442 c 0
 220 442 259 423 270 370 c 1
 286 392 322 442 391 442 c 0
 424 442 489 431 489 379 c 0
 489 340 458 326 440 326 c 0
 414 326 405 345 405 358 c 0
 405 363 408 395 443 406 c 1
 423 420 395 420 390 420 c 0
 304 420 259 291 258 288 c 2
 193 26 l 2
 191 18 184 -11 154 -11 c 0
 134 -11 126 4 126 15 c 0
 126 18 127 23 129 29 c 2
 204 329 l 2
 208 345 211 364 211 380 c 0
 211 391 211 420 185 420 c 0
 154 420 135 371 117 301 c 0
 112 279 111 278 98 278 c 0
 93 278 83 278 83 288 c 0
EndSplineSet
EndChar

StartChar: s
Encoding: 115 115 126
Width: 408
Flags: HW
TeX: 430 0
ItalicCorrection: 82
HStem: -11 22<195 257.5 195 280> 68 80 302 68 420 22<271 324.5>
VStem: 154 56<306.5 320> 336 57<134 150>
AnchorPoint: "affricate-below" 359 -194 basechar 0
AnchorPoint: "affricate-above" 582 694 basechar 0
AnchorPoint: "below" 208 0 basechar 0
AnchorPoint: "above" 312 442 basechar 0
LayerCount: 2
Fore
SplineSet
76 86 m 0
 76 131 104 148 127 148 c 0
 148 148 161 135 161 116 c 0
 161 114 161 72 110 67 c 1
 126 16 184 11 206 11 c 0
 309 11 336 91 336 123 c 0
 336 177 291 187 247 197 c 0
 219 203 154 217 154 294 c 0
 154 346 195 442 312 442 c 0
 378 442 419 403 419 357 c 0
 419 314 393 302 376 302 c 0
 352 302 346 319 346 330 c 0
 346 340 354 367 386 371 c 1
 375 410 338 420 311 420 c 0
 231 420 210 352 210 328 c 0
 210 285 246 277 274 271 c 0
 315 262 393 244 393 157 c 0
 393 111 355 -11 205 -11 c 0
 134 -11 76 25 76 86 c 0
EndSplineSet
EndChar

StartChar: t
Encoding: 116 116 127
Width: 332
Flags: HW
TeX: 614 0
ItalicCorrection: 94
HStem: -11 22<192.5 234.5 192.5 254.5> 400 31<108 204 119 196 268 345> 606 20<269.5 287>
VStem: 119 60<54 55.5 44 86>
AnchorPoint: "affricate-below" 283 -194 basechar 0
AnchorPoint: "affricate-above" 506 694 basechar 0
AnchorPoint: "below" 184 0 basechar 0
AnchorPoint: "above" 284 626 basechar 0
LayerCount: 2
Fore
SplineSet
91 412 m 0
 91 431 102 431 119 431 c 2
 204 431 l 1
 243 590 l 2
 247 605 257 626 282 626 c 0
 292 626 309 621 309 600 c 0
 309 595 309 593 305 579 c 2
 268 431 l 1
 348 431 l 2
 364 431 373 431 373 419 c 0
 373 400 362 400 345 400 c 2
 260 400 l 1
 186 103 l 2
 179 75 179 59 179 52 c 0
 179 36 179 11 206 11 c 0
 263 11 303 86 321 134 c 1
 329 152 329 153 341 153 c 0
 348 153 356 153 356 143 c 0
 356 138 305 -11 204 -11 c 0
 152 -11 119 29 119 79 c 0
 119 93 123 109 124 113 c 2
 196 400 l 1
 116 400 l 2
 100 400 91 400 91 412 c 0
EndSplineSet
EndChar

StartChar: u
Encoding: 117 117 128
Width: 536
Flags: HW
TeX: 430 0
ItalicCorrection: 76
HStem: -11 22<247.5 292 247.5 293.5 448.5 476.5> 420 22<180 214.5>
VStem: 155 61<71.5 118.5 71.5 131> 231 56<379 386 351.5 404>
AnchorPoint: "ogonek" 461 0 basechar 0
AnchorPoint: "affricate-below" 487 -194 basechar 0
AnchorPoint: "affricate-above" 710 694 basechar 0
AnchorPoint: "below" 269 0 basechar 0
AnchorPoint: "above" 379 442 basechar 0
LayerCount: 2
Fore
SplineSet
83 288 m 0
 83 294 118 442 211 442 c 0
 254 442 287 411 287 361 c 0
 287 342 282 328 274 307 c 0
 249 239 216 149 216 88 c 0
 216 55 225 11 270 11 c 0
 314 11 343 41 362 69 c 0
 371 82 371 84 376 102 c 2
 449 394 l 2
 451 402 458 431 488 431 c 0
 508 431 516 416 516 405 c 0
 516 402 515 397 513 391 c 2
 441 103 l 2
 434 75 434 59 434 52 c 0
 434 38 434 11 460 11 c 0
 494 11 513 74 527 130 c 0
 533 152 534 153 546 153 c 0
 553 153 561 153 561 143 c 0
 561 141 549 83 531 45 c 0
 516 14 495 -11 458 -11 c 0
 439 -11 396 -5 378 49 c 1
 354 19 320 -11 267 -11 c 0
 213 -11 155 18 155 105 c 0
 155 157 181 231 207 301 c 0
 221 340 231 367 231 391 c 0
 231 417 220 420 209 420 c 0
 151 420 124 325 116 294 c 0
 112 280 111 278 98 278 c 0
 93 278 83 278 83 288 c 0
EndSplineSet
EndChar

StartChar: v
Encoding: 118 118 129
Width: 460
Flags: HW
TeX: 430 0
ItalicCorrection: 107
HStem: -11 22<255 339.5 255 363> 420 22<180 214.5>
VStem: 156 61<77.5 123 77.5 132.5> 231 56<379 386 351.5 404> 404 89<389.5 393.5 363 407.5>
AnchorPoint: "affricate-below" 411 -194 basechar 0
AnchorPoint: "affricate-above" 634 694 basechar 0
AnchorPoint: "below" 282 0 basechar 0
AnchorPoint: "above" 328 442 basechar 0
LayerCount: 2
Fore
SplineSet
83 288 m 0
 83 294 118 442 211 442 c 0
 254 442 287 411 287 361 c 0
 287 342 281 327 276 311 c 0
 249 239 217 152 217 94 c 0
 217 61 228 11 282 11 c 0
 397 11 444 262 444 290 c 0
 444 311 441 343 417 369 c 0
 411 376 404 383 404 396 c 0
 404 419 429 442 452 442 c 0
 481 442 493 411 493 376 c 0
 493 350 447 -11 279 -11 c 0
 220 -11 156 18 156 109 c 0
 156 156 176 216 207 301 c 0
 221 340 231 367 231 391 c 0
 231 417 220 420 209 420 c 0
 151 420 124 325 116 294 c 0
 112 280 111 278 98 278 c 0
 93 278 83 278 83 288 c 0
EndSplineSet
EndChar

StartChar: w
Encoding: 119 119 130
Width: 664
Flags: HW
TeX: 430 0
ItalicCorrection: 107
HStem: -11 22<276.5 301 474 522> 420 22<180 214.5>
VStem: 157 61<95 125 91.5 125.5> 231 56<379 386 351.5 404> 372 61<73 112> 608 89<389.5 393.5 349.5 407.5>
AnchorPoint: "affricate-below" 615 -194 basechar 0
AnchorPoint: "affricate-above" 838 694 basechar 0
AnchorPoint: "below" 393 0 basechar 0
AnchorPoint: "above" 478 442 basechar 0
LayerCount: 2
Fore
SplineSet
83 288 m 0
 83 294 118 442 211 442 c 0
 254 442 287 411 287 361 c 0
 287 342 282 327 275 308 c 0
 244 226 218 152 218 98 c 0
 218 85 218 11 288 11 c 0
 341 11 372 94 372 105 c 0
 372 119 373 140 380 168 c 2
 437 396 l 2
 439 404 446 431 475 431 c 0
 495 431 503 416 503 405 c 0
 503 401 493 361 487 339 c 2
 445 171 l 2
 434 127 433 103 433 94 c 0
 433 52 449 11 499 11 c 0
 545 11 577 52 599 104 c 0
 616 145 648 250 648 290 c 0
 648 311 645 343 621 369 c 0
 615 376 608 383 608 396 c 0
 608 419 633 442 656 442 c 0
 685 442 697 411 697 376 c 0
 697 323 658 169 628 101 c 1
 598 30 556 -11 496 -11 c 0
 437 -11 397 16 382 53 c 1
 352 2 317 -11 285 -11 c 0
 268 -11 223 -8 191 20 c 0
 165 44 157 78 157 112 c 0
 157 139 157 165 207 301 c 0
 221 340 231 367 231 391 c 0
 231 417 220 420 209 420 c 0
 151 420 124 325 116 294 c 0
 112 280 111 278 98 278 c 0
 93 278 83 278 83 288 c 0
EndSplineSet
EndChar

StartChar: x
Encoding: 120 120 131
Width: 463
Flags: HW
TeX: 430 0
ItalicCorrection: 120
HStem: -11 22<140.5 165 326 357> 27 78 326 80 420 22<215 249.5 406.5 431.5>
VStem: 53 84<65.5 67.5> 434 84<351.5 404.5>
AnchorPoint: "affricate-below" 414 -194 basechar 0
AnchorPoint: "affricate-above" 637 694 basechar 0
AnchorPoint: "below" 232 0 basechar 0
AnchorPoint: "above" 342 442 basechar 0
LayerCount: 2
Fore
SplineSet
53 51 m 0
 53 84 78 105 103 105 c 0
 116 105 137 99 137 73 c 0
 137 58 128 33 98 25 c 1
 115 11 139 11 142 11 c 0
 202 11 223 91 239 156 c 0
 250 202 251 206 262 247 c 0
 271 284 283 333 283 357 c 0
 283 397 264 420 235 420 c 0
 195 420 143 381 116 295 c 0
 111 279 111 278 98 278 c 0
 93 278 83 278 83 288 c 0
 83 311 137 442 237 442 c 0
 262 442 311 434 333 374 c 1
 343 393 376 442 431 442 c 0
 460 442 518 430 518 379 c 0
 518 340 487 326 469 326 c 0
 443 326 434 345 434 358 c 0
 434 359 434 396 474 406 c 1
 458 420 433 420 430 420 c 0
 383 420 356 365 342 313 c 0
 334 280 319 218 308 176 c 0
 300 142 289 99 289 75 c 0
 289 23 316 11 336 11 c 0
 378 11 428 50 455 136 c 0
 460 152 461 153 473 153 c 0
 480 153 488 153 488 143 c 0
 488 123 437 -11 334 -11 c 0
 308 -11 259 0 239 57 c 1
 222 27 189 -11 141 -11 c 0
 95 -11 53 12 53 51 c 0
EndSplineSet
EndChar

StartChar: y
Encoding: 121 121 132
Width: 485
Flags: HW
TeX: 430 194
ItalicCorrection: 88
HStem: -205 15 -137 80 -11 22<247.5 290> 411 20<473 498> 420 22<180 214.5>
VStem: 99 85<-97 -91> 155 61<71.5 118.5 71.5 131> 231 56<379 386 351.5 404>
AnchorPoint: "affricate-below" 436 -194 basechar 0
AnchorPoint: "affricate-above" 659 694 basechar 0
AnchorPoint: "below" 181 -194 basechar 0
AnchorPoint: "above" 379 442 basechar 0
LayerCount: 2
Fore
SplineSet
83 288 m 0
 83 294 118 442 211 442 c 0
 254 442 287 411 287 361 c 0
 287 342 282 328 274 307 c 0
 249 239 216 149 216 88 c 0
 216 55 225 11 270 11 c 0xeb
 329 11 369 71 376 100 c 2
 449 394 l 2
 451 402 458 431 488 431 c 0
 508 431 516 416 516 405 c 0
 516 402 514 397 513 391 c 2
 415 -3 l 2
 390 -102 299 -205 195 -205 c 0
 140 -205 99 -171 99 -119 c 0
 99 -63 138 -57 150 -57 c 0
 168 -57 184 -68 184 -89 c 0
 184 -105 172 -132 141 -137 c 0
 134 -138 133 -139 133 -140 c 0
 133 -145 147 -183 195 -183 c 0
 245 -183 319 -139 357 26 c 1xf5
 344 13 313 -11 267 -11 c 0
 213 -11 155 18 155 105 c 0
 155 157 181 231 207 301 c 0
 221 340 231 367 231 391 c 0
 231 417 220 420 209 420 c 0
 151 420 124 325 116 294 c 0
 112 280 111 278 98 278 c 0
 93 278 83 278 83 288 c 0
EndSplineSet
EndChar

StartChar: z
Encoding: 122 122 133
Width: 408
Flags: HW
TeX: 430 0
ItalicCorrection: 122
HStem: -11 64<282 313.5 282 330.5> 64 22<171.5 183> 345 22<362.5 370> 378 64<232.5 261>
VStem: 62 402
AnchorPoint: "affricate-below" 359 -194 basechar 0
AnchorPoint: "affricate-above" 582 694 basechar 0
AnchorPoint: "below" 230 0 basechar 0
AnchorPoint: "above" 340 442 basechar 0
LayerCount: 2
Fore
SplineSet
62 -1 m 0
 62 9 110 83 166 138 c 2
 330 301 l 2
 346 317 355 328 370 345 c 1
 355 345 344 345 311 360 c 0
 289 370 271 378 251 378 c 0
 214 378 185 353 177 331 c 0
 172 319 171 317 159 317 c 0
 151 317 144 319 144 328 c 0
 144 348 187 442 261 442 c 0
 293 442 310 419 322 403 c 0
 341 377 351 367 369 367 c 0
 385 367 398 372 431 429 c 0
 437 441 438 442 450 442 c 0
 456 442 464 442 464 432 c 0
 464 423 416 347 357 289 c 2
 212 146 l 2
 184 118 163 93 156 85 c 1
 161 86 169 86 174 86 c 0
 194 86 206 82 236 69 c 0
 256 60 272 53 292 53 c 0
 335 53 383 87 401 137 c 0
 405 150 406 153 418 153 c 0
 421 153 433 153 433 143 c 0
 433 119 379 -11 282 -11 c 0
 251 -11 236 8 220 28 c 1
 202 53 194 64 172 64 c 0
 134 64 107 19 93 -2 c 0
 89 -9 88 -11 77 -11 c 0
 71 -11 62 -11 62 -1 c 0
EndSplineSet
EndChar

StartChar: braceleft
Encoding: 123 123 134
Width: 511
Flags: HW
TeX: 749 249
ItalicCorrection: 147
HStem: -250 21<309.374 357.841> 717 33<507.413 601.429>
VStem: 191 64<-198.225 -46.7741> 258 64<55.0772 208.993>
DStem2: 312 363 374 352 0.2859 0.958259<-55.1988 358.527>
LayerCount: 2
Fore
SplineSet
155 249 m 0
 155 264 173 260 201 267 c 0
 246 279 294 315 312 363 c 0
 316 374 314 363 374 604 c 0
 380 627 387 671 447 710 c 0
 489 737 544 750 586 750 c 0
 601 750 603 743 603 739 c 0
 603 723 576 730 540 717 c 0
 451 684 441 610 438 600 c 0
 376 352 379 363 374 352 c 0
 351 297 300 267 238 249 c 1
 299 228 322 191 322 152 c 0
 322 113 255 -110 255 -145 c 0
 255 -225 350 -228 352 -229 c 0
 356 -231 358 -235 358 -238 c 0
 358 -244 352 -250 339 -250 c 0
 296 -250 191 -229 191 -143 c 0
 191 -105 258 118 258 154 c 0
 258 201 223 230 182 237 c 0
 172 239 155 237 155 249 c 0
EndSplineSet
EndChar

StartChar: bar
Encoding: 124 124 135
Width: 307
Flags: HW
TeX: 749 249
ItalicCorrection: 105
DStem2: 69.2473 -249 111.248 -249 0.242599 0.970127<22.2841 1016.58>
LayerCount: 2
Fore
SplineSet
76 -228 m 0
 76 -222 78 -216 79 -210 c 2
 312 720 l 2
 313 724 317 749 335 749 c 0
 344 749 354 740 354 728 c 0
 354 721 355 727 314 564 c 2
 119 -218 l 2
 116 -228 112 -249 95 -249 c 0
 83 -249 76 -239 76 -228 c 0
EndSplineSet
EndChar

StartChar: braceright
Encoding: 125 125 136
Width: 511
Flags: HW
TeX: 749 249
ItalicCorrection: 22
HStem: -250 33<33.2431 126.718> 729 21<279.189 325.461>
VStem: 313 64<291.073 444.934> 380 64<545.921 697.418>
DStem2: 197 -100 247 -146 0.258675 0.965964<-82.6132 317.824>
LayerCount: 2
Fore
SplineSet
32 -239 m 0
 32 -222 53 -232 94 -217 c 0
 182 -184 194 -111 197 -100 c 0
 259 147 256 137 261 148 c 0
 284 203 335 232 397 251 c 1
 362 262 313 290 313 349 c 0
 313 388 380 608 380 644 c 0
 380 724 285 728 283 729 c 0
 277 732 274 740 279 745 c 0
 283 749 289 750 295 750 c 0
 340 750 444 728 444 642 c 0
 444 603 377 383 377 346 c 0
 377 296 416 269 453 263 c 0
 463 261 480 262 480 250 c 0
 480 235 458 240 433 233 c 0
 385 220 341 186 323 138 c 0
 305 89 263 -114 247 -146 c 0
 211 -220 113 -250 49 -250 c 0
 34 -250 32 -243 32 -239 c 0
EndSplineSet
EndChar

StartChar: asciitilde
Encoding: 126 126 137
Width: 613
Flags: HW
TeX: 661 0
ItalicCorrection: 115
HStem: 566 36<494.045 589.656> 632 36<331.408 425.915>
LayerCount: 2
Fore
SplineSet
248 577 m 0
 248 590 326 668 390 668 c 0
 455 668 489 602 542 602 c 0
 595 602 643 657 656 664 c 0
 664 668 672 664 672 656 c 0
 672 649 665 643 661 639 c 0
 636 614 582 566 530 566 c 0
 465 566 432 632 376 632 c 0
 319 632 274 569 257 569 c 0
 252 569 248 572 248 577 c 0
EndSplineSet
EndChar

StartChar: Abreve
Encoding: 258 258 139
Width: 743
Flags: HW
TeX: 891 0
HStem: 0 31<615.536 689.897> 1 23<439.026 499.084> 230 30<307 515> 696 20<540 558.5> 753 36<500.552 636.234>
VStem: 59 145<9 75.5> 449 23<824.504 888.565> 528 162<12 75> 696 32<840.386 886.961>
DStem2: 190 113 289 230 0.493698 0.869633<-33.9594 150.623 185.599 561.797> 568 688 493 587 0.0690778 -0.997611<95.5779 423.316 453.383 610.51>
AnchorPoint: "below" 370 0 basechar 0
AnchorPoint: "above" 584 858 basechar 0
LayerCount: 2
Fore
SplineSet
449 854 m 0
 449 872 452 889 463 889 c 0
 471 889 473 884 473 875 c 0
 473 871 472 865 472 860 c 0x3f80
 472 809 522 789 565 789 c 0
 614 789 671 815 696 858 c 0
 707 876 707 889 718 889 c 0
 722 889 728 887 728 878 c 0
 728 847 665 753 562 753 c 0
 498 753 449 793 449 854 c 0
EndSplineSet
Refer: 76 65 S 1 0 0 1 0 0 3
AlternateSubs2: "Stilistic set 01 subtable" Abreve.vn
AlternateSubs2: "Latin alternatives subtable" Abreve.vn
Substitution2: "Latin Vietnamese substitutions subtable" Abreve.vn
EndChar

StartChar: Aogonek
Encoding: 260 260 140
Width: 743
Flags: HW
TeX: 688 194
HStem: -216 44<520.513 603.74> 0 34<613.643 689.98> 1 25<440.086 506.077> 230 30<307 515> 696 20G<539.5 557.5>
VStem: 59 145<9 75.5> 458 48<-157.966 -68.8385> 528 162<9.5 80>
DStem2: 191 115 289 230 0.495157 0.868803<-36.1327 148.438 183.415 559.613> 568 692 493 587 0.0685779 -0.997646<99.6095 427.348 457.415 615.048>
AnchorPoint: "above" 546 705 basechar 0
LayerCount: 2
Fore
SplineSet
59 14 m 0
 59 55 121 -8 191 115 c 2
 517 687 l 2
 522 697 530 716 549 716 c 0
 566 716 567 703 568 692 c 2
 610 81 l 2
 612 59 609 39 634 34 c 0
 663 28 690 37 690 17 c 0
 690 2 678 0 662 0 c 0xdf
 647 0 627 3 612 3 c 0
 568 3 506 -63 506 -111 c 0
 506 -145 532 -172 564 -172 c 0
 607 -172 627 -129 638 -124 c 0
 646 -120 655 -126 652 -137 c 0
 648 -150 607 -216 541 -216 c 0
 497 -216 458 -183 458 -134 c 0
 458 -79 502 -34 553 3 c 1
 494 3 469 1 457 1 c 0
 443 1 440 6 440 12 c 0
 440 18 443 24 445 26 c 0
 456 36 482 26 510 40 c 0
 525 47 528 57 528 72 c 0
 528 88 525 104 517 230 c 1
 289 230 l 1
 226 118 204 86 204 65 c 0
 204 26 260 38 260 18 c 0
 260 15 258 12 256 8 c 0
 252 2 248 1 237 1 c 0
 220 1 203 3 151 3 c 0
 116 3 94 1 80 1 c 0xbf
 64 1 59 4 59 14 c 0
307 260 m 1x9f
 515 260 l 1
 493 587 l 1
 307 260 l 1x9f
EndSplineSet
Ligature2: "Latin ligatures subtable" A uni0328
EndChar

StartChar: Ccaron
Encoding: 268 268 142
Width: 715
Flags: HW
TeX: 891 0
ItalicCorrection: 145
HStem: -22 31<339.816 478.744> 674 31<500.48 640.08> 800 62<582.879 647.02>
VStem: 149 88<130 344.908> 661 35<188.171 248.761> 719 91<462.212 696.5>
AnchorPoint: "below" 401 0 basechar 0
AnchorPoint: "above" 622 910 basechar 0
LayerCount: 2
Fore
SplineSet
497 920 m 0
 497 925 501 930 507 930 c 0
 522 930 604 862 621 862 c 0
 634 862 752 930 767 930 c 0
 772 930 777 927 777 921 c 0
 777 914 771 908 762 902 c 0
 643 819 619 800 610 800 c 0
 600 800 589 815 581 823 c 0
 498 912 497 911 497 920 c 0
EndSplineSet
Refer: 78 67 S 1 0 0 1 0 0 3
EndChar

StartChar: Dcaron
Encoding: 270 270 143
Width: 755
Flags: HW
TeX: 891 0
ItalicCorrection: 94
HStem: 0 31<63.1642 159.344 244.006 453.968> 652 31<226.094 308.692 393.112 602.038> 800 62<510.879 575.02>
VStem: 691 83<336.444 554.668>
DStem2: 151.993 0 230.996 0 0.242599 0.970127<64.2652 651.905>
AnchorPoint: "below" 346 0 basechar 0
AnchorPoint: "above" 579 932 basechar 0
LayerCount: 2
Fore
SplineSet
425 920 m 0
 425 925 429 930 435 930 c 0
 450 930 532 862 549 862 c 0
 562 862 680 930 695 930 c 0
 700 930 705 927 705 921 c 0
 705 914 699 908 690 902 c 0
 571 819 547 800 538 800 c 0
 528 800 517 815 509 823 c 0
 426 912 425 911 425 920 c 0
EndSplineSet
Refer: 79 68 S 1 0 0 1 0 0 3
EndChar

StartChar: Ecaron
Encoding: 282 282 144
Width: 678
Flags: HW
TeX: 891 0
ItalicCorrection: 120
HStem: 0 31<62.0844 150.435 245.009 505.519> 338 31<325 471.759> 650 30<228.188 306.489 394.215 653.875> 800 62<496.879 561.02>
VStem: 526 33<421.052 483.752> 688 54<489.855 626.071>
DStem2: 150.994 0 232.476 0 0.242599 0.970127<125.467 368.176 400.19 649.677>
AnchorPoint: "below" 341 0 basechar 0
AnchorPoint: "above" 576 935 basechar 0
LayerCount: 2
Fore
SplineSet
411 920 m 0
 411 925 415 930 421 930 c 0
 436 930 518 862 535 862 c 0
 548 862 666 930 681 930 c 0
 686 930 691 927 691 921 c 0
 691 914 685 908 676 902 c 0
 557 819 533 800 524 800 c 0
 514 800 503 815 495 823 c 0
 412 912 411 911 411 920 c 0
EndSplineSet
Refer: 80 69 S 1 0 0 1 0 0 3
EndChar

StartChar: Eogonek
Encoding: 280 280 145
Width: 678
Flags: HW
TeX: 688 194
ItalicCorrection: 120
HStem: -216 43<422.433 505.371> -0 31<245.007 451 469.179 503.717> 338 31<325 471.759> 650 30<224.09 306.64 395.117 653.21>
VStem: 359 49<-158.601 -69.271> 526 33<421.052 483.752>
DStem2: 97.2283 -216 178.48 -216 0.242599 0.970127<288.311 590.767 622.781 872.268>
AnchorPoint: "above" 490 705 basechar 0
LayerCount: 2
Fore
SplineSet
62 14 m 0
 62 48 132 17 157 46 c 0
 163 53 166 59 175 95 c 2
 302 603 l 2
 305 615 307 624 307 631 c 0
 307 647 294 649 247 650 c 0
 237 650 224 649 224 663 c 0
 224 679 238 680 247 680 c 2
 722 680 l 2
 734 680 742 677 742 664 c 0
 742 655 743 664 719 477 c 0
 717 461 709 456 703 456 c 0
 700 456 688 456 688 471 c 0
 688 484 694 506 694 548 c 0
 694 642 642 650 543 650 c 2
 430 650 l 1
 391 649 392 637 376 572 c 2
 325 369 l 1
 403 369 l 2
 475 369 504 379 526 460 c 0
 528 470 531 484 545 484 c 0
 556 484 559 478 559 471 c 0
 559 465 557 457 556 452 c 0
 498 221 503 227 491 223 c 0
 482 220 472 224 472 235 c 0
 472 248 481 271 481 295 c 0
 481 335 448 338 396 338 c 2
 317 338 l 1
 249 66 l 2
 247 56 245 49 245 44 c 0
 245 32 254 31 273 31 c 2
 374 31 l 2
 552 31 584 74 654 241 c 0
 660 254 666 257 672 257 c 0
 683 257 685 252 685 245 c 0
 685 237 681 227 681 227 c 1
 592 9 593 8 585 3 c 0
 578 -1 568 0 558 -0 c 2
 509 -0 l 2
 472 0 408 -58 408 -111 c 0
 408 -146 434 -173 465 -173 c 0
 512 -173 529 -123 545 -123 c 0
 547 -123 554 -125 554 -132 c 0
 554 -148 510 -216 443 -216 c 0
 399 -216 359 -184 359 -134 c 0
 359 -75 415 -24 451 -0 c 1
 84 -0 l 2
 76 0 62 0 62 14 c 0
EndSplineSet
EndChar

StartChar: Gbreve
Encoding: 286 286 146
Width: 773
Flags: HW
TeX: 891 0
ItalicCorrection: 87
HStem: -22 31<341.125 485.363> 241 31<506.237 608.985 700.666 765.504> 674 31<502.96 667.9> 753 36<528.307 662.133>
VStem: 149 88<129.818 345.732> 475 24<823.797 888.411> 732 23<854.953 888.858>
LayerCount: 2
Fore
SplineSet
149 244 m 0
 149 477 360 705 573 705 c 0
 667 705 715 669 729 657 c 1
 778 693 784 698 791 701 c 0
 800 706 810 703 810 692 c 0
 810 686 811 691 777 556 c 0
 774 545 772 535 758 535 c 0
 728 535 763 582 712 631 c 0
 678 664 625 674 587 674 c 0
 484 674 388 606 330 518 c 0
 271 429 237 291 237 207 c 0
 237 58 335 9 412 9 c 0
 483 9 559 49 583 111 c 0
 587 122 610 208 610 219 c 0
 610 232 603 241 547 241 c 2
 532 241 l 2
 515 241 506 245 506 254 c 0
 506 257 507 260 509 263 c 0
 513 270 516 272 529 272 c 0
 542 272 580 269 656 269 c 0
 711 269 737 271 749 271 c 0
 762 271 766 266 766 260 c 0
 766 253 760 245 755 243 c 0
 742 238 714 246 700 229 c 0
 689 215 672 130 643 19 c 0
 640 9 636 2 630 2 c 0
 617 2 598 37 589 61 c 1
 541 3 462 -22 394 -22 c 0
 247 -22 149 90 149 244 c 0
475 854 m 0
 475 872 479 889 490 889 c 0
 498 889 500 884 500 875 c 0
 500 871 499 865 499 860 c 0
 499 809 550 789 593 789 c 0
 647 789 709 818 732 875 c 0
 734 881 738 889 745 889 c 0
 749 889 755 887 755 878 c 0
 755 847 692 753 589 753 c 0
 528 753 475 791 475 854 c 0
EndSplineSet
EndChar

StartChar: Lcaron
Encoding: 317 317 148
Width: 627
Flags: HW
TeX: 891 0
HStem: -0 31<61.1619 158.051 246.004 442.416> 652 31<224.094 306.608 399.066 515.839> 673 105<584.789 654.3>
VStem: 567 115<691.608 760.026> 598 24<230.113 256.855>
DStem2: 150.744 -0 232.994 -0 0.242599 0.970127<66.1619 650.477>
LayerCount: 2
Fore
SplineSet
545 554 m 0
 545 571 623 591 655 690 c 1
 640 679 629 673 611 673 c 0
 585 673 567 689 567 714 c 0
 567 744 594 778 632 778 c 0
 662 778 682 755 682 719 c 0xb0
 682 636 582 545 555 545 c 0
 549 545 545 549 545 554 c 0
EndSplineSet
Refer: 87 76 S 1 0 0 1 0 -0 3
EndChar

StartChar: Lslash
Encoding: 321 321 149
Width: 627
Flags: HW
TeX: 688 0
HStem: 0 31<61.0652 157.613 245.005 438.582> 652 31<224.25 307.583 397.806 515.839>
DStem2: 150.979 0 232.245 0 0.242599 0.970127<65.7702 305.115 327.426 427.804 447.731 592.736> 237 341 225 296 0.803557 0.595228<-130.347 -36.4279 125.839 322.245>
LayerCount: 2
Fore
SplineSet
61 14 m 0
 61 32 79 32 100 32 c 2
 103 32 l 2
 124 32 148 32 160 49 c 0
 167 60 164 51 225 296 c 1
 164 251 155 243 147 243 c 0
 139 243 134 249 134 257 c 0
 134 269 151 279 237 341 c 1
 241 359 308 622 308 633 c 0
 308 663 243 645 229 656 c 0
 226 658 224 661 224 665 c 0
 224 673 231 683 244 683 c 0
 256 683 294 680 368 680 c 0
 446 680 484 683 497 683 c 0
 507 683 516 681 516 669 c 0
 515 652 504 652 481 652 c 2
 476 652 l 2
 399 652 392 641 383 603 c 0
 345 453 341 434 337 415 c 1
 480 521 l 2
 488 527 494 529 499 529 c 0
 506 529 509 524 511 517 c 0
 513 506 502 499 495 494 c 0
 306 355 327 380 318 342 c 2
 250 71 l 2
 247 59 245 50 245 44 c 0
 245 33 252 31 270 31 c 2
 350 31 l 2
 572 31 569 245 603 256 c 0
 611 259 622 254 622 244 c 0
 622 238 621 240 543 19 c 0
 538 4 535 0 520 0 c 2
 84 0 l 2
 71 0 61 2 61 14 c 0
EndSplineSet
EndChar

StartChar: Ncaron
Encoding: 327 327 151
Width: 743
Flags: HW
TeX: 891 0
ItalicCorrection: 163
HStem: 1 31<62.1436 140.93> 652 31<227.19 313 773.954 850.925> 800 62<546.879 611.02>
VStem: 62 144<8.5 78.5> 706 145<605 674>
DStem2: 150.989 0 185.493 0 0.242599 0.970127<84.6663 642.239> 409 653 340 615 0.339839 -0.940484<12.2895 539.356> 556.49 0 589.998 0 0.242599 0.970127<150.496 627.593>
LayerCount: 2
Fore
SplineSet
461 920 m 0
 461 925 465 930 471 930 c 0
 486 930 568 862 585 862 c 0
 598 862 716 930 731 930 c 0
 736 930 741 927 741 921 c 0
 741 914 735 908 726 902 c 0
 607 819 583 800 574 800 c 0
 564 800 553 815 545 823 c 0
 462 912 461 911 461 920 c 0
EndSplineSet
Refer: 89 78 S 1 0 0 1 -0 0 3
EndChar

StartChar: Eng
Encoding: 330 330 152
Width: 780
Flags: HW
TeX: 688 0
ItalicCorrection: 170
HStem: -22 23<483.684 565.11> 3 28<62.214 157.358> 66 96<445.409 501.579> 652 31<225.095 307.643> 679 31<520.916 658.641>
VStem: 308 91<594.533 674> 413 102<79.9713 145.568> 744 80<406.599 602.797>
DStem2: 145.992 -22 226.993 -22 0.242599 0.970127<95.6423 658.114>
LayerCount: 2
Fore
SplineSet
62 14 m 0
 62 30 74 31 86 31 c 2
 92 31 l 1
 161 33 161 39 173 86 c 2
 302 604 l 2
 305 617 308 626 308 633 c 0
 308 651 288 652 267 652 c 2
 258 652 l 2xf7
 232 652 225 655 225 666 c 0
 225 673 230 683 248 683 c 0xf7
 263 683 293 680 358 680 c 0
 370 680 379 682 385 682 c 0
 392 682 399 679 399 669 c 0
 399 661 395 647 387 616 c 1
 441 663 516 710 615 710 c 0
 733 710 824 631 824 513 c 0
 824 474 814 442 806 410 c 0
 731 108 736 128 727 108 c 0
 691 31 609 -22 531 -22 c 0
 464 -22 413 21 413 86 c 0
 413 144 450 162 474 162 c 0
 502 162 515 144 515 124 c 0
 515 102 498 66 453 66 c 2
 445 66 l 1
 460 12 500 1 528 1 c 0
 555 1 627 25 662 163 c 2
 725 415 l 2
 733 448 744 477 744 516 c 0
 744 612 682 679 589 679 c 0xef
 509 679 438 634 390 580 c 0
 371 559 372 555 367 537 c 2
 251 74 l 2
 249 65 247 58 247 51 c 0
 247 15 330 47 330 18 c 0
 330 9 326 0 310 0 c 0
 298 0 263 3 192 3 c 0
 137 3 105 1 86 1 c 0
 66 1 62 4 62 14 c 0
EndSplineSet
EndChar

StartChar: Ohungarumlaut
Encoding: 336 336 153
Width: 766
Flags: HW
TeX: 855 0
ItalicCorrection: 94
HStem: -22 27<327.463 445.189> 680 25<490.161 608.349> 750 120
VStem: 147 91<121.13 356.535> 449 211 701 86<342.563 561.772>
AnchorPoint: "below" 384 0 basechar 0
AnchorPoint: "above" 597 851 basechar 0
LayerCount: 2
Fore
SplineSet
601 764 m 0
 601 778 608 779 757 861 c 0
 762 864 774 871 786 871 c 0
 803 871 813 857 813 843 c 0
 813 820 793 811 777 805 c 0
 633 755 622 750 615 750 c 0
 608 750 601 756 601 764 c 0
EndSplineSet
Refer: 268 -1 S 1 0 0 1 115 252 2
Refer: 90 79 S 1 0 0 1 0 -0 3
EndChar

StartChar: Rcaron
Encoding: 344 344 155
Width: 729
Flags: HW
TeX: 891 0
ItalicCorrection: 38
HStem: -22 23<590.164 643.003> 0 31<246.486 327.852> 1 37<63.9521 165.073> 330 23<320 472.913> 652 31<226.065 308.736 392.207 579.906> 800 62<494.879 559.02>
VStem: 484 96<18.7307 189.551> 515 78<141.028 290.257> 627 90<462.15 605.425> 687 35<44.7264 103.621>
DStem2: 146.493 -22 225.975 -22 0.242599 0.970127<139.287 382.122 405.89 674.536>
AnchorPoint: "below" 307 0 basechar 0
AnchorPoint: "above" 540 932 basechar 0
LayerCount: 2
Fore
SplineSet
409 920 m 0
 409 925 413 930 419 930 c 0
 434 930 516 862 533 862 c 0x1c
 546 862 664 930 679 930 c 0
 684 930 689 927 689 921 c 0
 689 914 683 908 674 902 c 0
 555 819 531 800 522 800 c 0
 512 800 501 815 493 823 c 0
 410 912 409 911 409 920 c 0
EndSplineSet
Refer: 93 82 S 1 0 0 1 0 0 3
EndChar

StartChar: Scaron
Encoding: 352 352 157
Width: 562
Flags: HW
TeX: 891 0
ItalicCorrection: 119
HStem: -22 31<226.065 362.873> 677 28<371.038 489.276> 800 62<456.879 521.02>
VStem: 74 78<-13.5 181.715> 199 67<442.014 560.536> 470 67<139.361 268.237> 546 32<456.058 533.28> 551 80<503.237 696.5>
AnchorPoint: "below" 307 0 basechar 0
AnchorPoint: "above" 482 910 basechar 0
LayerCount: 2
Fore
SplineSet
371 920 m 0
 371 925 375 930 381 930 c 0
 396 930 478 862 495 862 c 0xfc
 508 862 626 930 641 930 c 0
 646 930 651 927 651 921 c 0
 651 914 645 908 636 902 c 0
 517 819 493 800 484 800 c 0
 474 800 463 815 455 823 c 0
 372 912 371 911 371 920 c 0
EndSplineSet
Refer: 94 83 S 1 0 0 1 0 0 3
EndChar

StartChar: Scedilla
Encoding: 350 350 158
Width: 562
Flags: HW
TeX: 688 170
ItalicCorrection: 119
HStem: -192 22<154.099 272> -21 21G<81 90> 677 28<371.244 489.058>
VStem: 74 78<-12.5 181.715> 199 67<443.07 560.497> 321 65<-146.065 -77.4422> 470 67<140.902 268.182> 551 80<503.736 696.5>
LayerCount: 2
Fore
SplineSet
74 -9 m 0
 74 1 128 208 128 208 c 2
 132 223 139 227 145 227 c 0
 149 227 159 225 159 215 c 0
 159 203 152 180 152 149 c 0
 152 37 239 9 302 9 c 0
 392 9 470 108 470 200 c 0
 470 250 446 278 423 290 c 0
 403 300 304 324 276 337 c 0
 246 351 199 389 199 467 c 0
 199 588 311 705 431 705 c 0
 508 705 543 666 560 637 c 1
 598 684 611 704 621 704 c 0
 625 704 631 701 631 692 c 0
 631 688 579 476 578 474 c 0
 574 460 567 456 561 456 c 0
 555 456 545 459 545 471 c 0
 545 481 551 496 551 536 c 0
 551 661 472 677 429 677 c 0
 346 677 266 591 266 505 c 0
 266 369 443 428 509 334 c 0
 529 306 537 272 537 238 c 0
 537 123 446 3 333 -19 c 1
 325 -53 l 1
 353 -59 386 -72 386 -108 c 0
 386 -175 296 -192 187 -192 c 2
 178 -192 l 2
 165 -192 156 -192 154 -184 c 0
 153 -179 155 -170 176 -170 c 2
 193 -170 l 1
 233 -169 321 -164 321 -108 c 0
 321 -88 303 -78 291 -74 c 0
 277 -70 260 -73 260 -57 c 0
 260 -50 265 -35 268 -20 c 1
 191 -11 162 27 147 47 c 1
 107 -3 96 -21 84 -21 c 0
 78 -21 74 -16 74 -9 c 0
EndSplineSet
EndChar

StartChar: Tcaron
Encoding: 356 356 159
Width: 715
Flags: HW
TeX: 891 0
ItalicCorrection: 133
HStem: 0 31<187.313 319.822 414.491 533.922> 647 30<311.179 472.993 558.564 725.968> 800 62<532.879 597.02>
VStem: 753 51<528.161 669>
DStem2: 316.245 0 398.245 0 0.242599 0.970127<76.0872 652.812>
AnchorPoint: "below" 358 0 basechar 0
AnchorPoint: "above" 593 938 basechar 0
LayerCount: 2
Fore
SplineSet
447 920 m 0
 447 925 451 930 457 930 c 0
 472 930 554 862 571 862 c 0
 584 862 702 930 717 930 c 0
 722 930 727 927 727 921 c 0
 727 914 721 908 712 902 c 0
 593 819 569 800 560 800 c 0
 550 800 539 815 531 823 c 0
 448 912 447 911 447 920 c 0
EndSplineSet
Refer: 95 84 S 1 0 0 1 0 0 3
EndChar

StartChar: Tcommaaccent
Encoding: 354 354 160
Width: 715
Flags: HW
TeX: 688 170
ItalicCorrection: 133
HStem: -192 22<205.004 324.129> 0 31<187.463 319.62 414.266 527.67> 647 30<307.817 472.995 559.297 725.533>
VStem: 372 65<-146.453 -76.8983> 753 51<528.185 668.5>
DStem2: 276.236 -192 341.24 -192 0.242599 0.970127<158.941 201.005 272.196 848.783>
LayerCount: 2
Fore
SplineSet
176 466 m 0
 176 476 240 661 240 661 c 2
 245 675 251 677 265 677 c 2
 782 677 l 2
 797 677 804 675 804 662 c 0
 804 653 772 469 772 469 c 2
 769 457 763 453 756 453 c 0
 752 453 742 455 742 467 c 0
 742 483 753 527 753 571 c 0
 753 612 745 647 647 647 c 2
 609 647 l 2
 563 647 560 645 548 600 c 2
 420 87 l 2
 416 72 413 62 413 54 c 0
 413 36 428 31 502 31 c 0
 512 31 522 33 529 28 c 0
 537 22 535 9 528 4 c 0
 521 -2 512 1 501 1 c 0
 490 1 434 3 390 3 c 1
 376 -53 l 1
 385 -55 437 -65 437 -109 c 0
 437 -124 432 -165 360 -182 c 0
 317 -192 274 -192 224 -192 c 0
 211 -192 205 -186 205 -181 c 0
 205 -175 211 -170 225 -170 c 2
 242 -170 l 2
 353 -170 372 -132 372 -108 c 0
 372 -62 312 -81 312 -57 c 0
 312 -48 316 -30 325 3 c 1
 250 3 220 0 206 0 c 0
 192 0 187 6 187 12 c 0
 187 19 192 26 195 28 c 0
 199 30 204 31 209 31 c 2
 227 31 l 1
 310 32 325 36 336 78 c 2
 467 603 l 2
 471 618 473 628 473 634 c 0
 473 646 466 647 432 647 c 2
 397 647 l 2
 274 647 253 599 211 479 c 0
 206 466 203 453 189 453 c 0
 182 453 176 457 176 466 c 0
EndSplineSet
EndChar

StartChar: Uhungarumlaut
Encoding: 368 368 161
Width: 743
Flags: HW
TeX: 855 0
ItalicCorrection: 163
HStem: -22 31<328.829 452.83> 639 43<752.474 849.01> 652 31<225.078 307.51 636.189 698.498> 750 120
VStem: 201 75<70.8501 253.977> 437 211 709 142<604 674>
DStem2: 145.481 -22 227.983 -22 0.242599 0.970127<196.379 673.707> 553.73 -22 585.23 -22 0.242599 0.970127<163.129 649.363>
AnchorPoint: "below" 386 0 basechar 0
AnchorPoint: "above" 589 873 basechar 0
LayerCount: 2
Fore
SplineSet
589 764 m 0
 589 778 597 780 745 861 c 0
 750 864 762 871 774 871 c 0x9e
 791 871 801 857 801 843 c 0
 801 820 781 811 765 805 c 0
 621 755 610 750 603 750 c 0
 596 750 589 756 589 764 c 0
EndSplineSet
Refer: 268 -1 S 1 0 0 1 103 252 2
Refer: 96 85 S 1 0 0 1 0 0 3
EndChar

StartChar: Uring
Encoding: 366 366 162
Width: 743
Flags: HW
TeX: 891 0
ItalicCorrection: 163
HStem: -22 31<328.829 452.83> 639 43<752.474 849.01> 652 31<225.078 307.51 636.189 698.498> 730 23<547.254 624.616> 891 22<579.172 653.962>
VStem: 201 75<70.8501 253.977> 507 29<762.043 849.199> 666 30<793.121 882.261> 709 142<604 674>
DStem2: 145.481 -22 227.983 -22 0.242599 0.970127<196.379 673.707> 553.73 -22 585.23 -22 0.242599 0.970127<163.129 649.363>
LayerCount: 2
Fore
SplineSet
507 800 m 0
 507 855 562 913 624 913 c 0
 665 913 696 885 696 843 c 0
 696 786 638 730 579 730 c 0
 538 730 507 758 507 800 c 0
536 794 m 0
 536 768 552 753 584 753 c 0
 660 753 666 837 666 849 c 0x9f80
 666 875 651 891 619 891 c 0
 544 891 536 809 536 794 c 0
EndSplineSet
Refer: 96 85 S 1 0 0 1 0 -0 3
EndChar

StartChar: Zcaron
Encoding: 381 381 165
Width: 613
Flags: HW
TeX: 891 0
ItalicCorrection: 145
HStem: 0 33<177 426.707> 652 31<374.505 608> 800 62<475.879 540.02>
DStem2: 97 43 177 33 0.642779 0.766052<43.7618 794.986>
AnchorPoint: "below" 309 0 basechar 0
AnchorPoint: "above" 542 932 basechar 0
LayerCount: 2
Fore
SplineSet
390 920 m 0
 390 925 394 930 400 930 c 0
 415 930 497 862 514 862 c 0
 527 862 645 930 660 930 c 0
 665 930 670 927 670 921 c 0
 670 914 664 908 655 902 c 0
 536 819 512 800 503 800 c 0
 493 800 482 815 474 823 c 0
 391 912 390 911 390 920 c 0
EndSplineSet
Refer: 101 90 S 1 0 0 1 0 0 3
EndChar

StartChar: IJ
Encoding: 306 306 167
Width: 845
Flags: HW
TeX: 688 0
ItalicCorrection: 140
HStem: -22 23<485.231 568.816> 0 33<57.2688 160.711 248.008 335.907> 66 96<447.228 501.859> 652 31<220.092 307.665 397.471 497.924 669.162 779.053>
VStem: 414 101<79.9713 146.125>
DStem2: 146.492 -22 227.741 -22 0.242599 0.970127<94.9803 674.11> 619.236 -22 697.987 -22 0.242599 0.970127<157.162 671.251>
LayerCount: 2
Fore
SplineSet
57 13 m 0
 57 36 80 29 123 33 c 0x78
 168 38 166 56 176 96 c 2
 296 577 l 2
 303 606 308 622 308 633 c 0
 308 649 296 651 249 652 c 0
 241 652 230 651 225 656 c 0
 222 658 220 662 220 666 c 0
 220 674 227 683 240 683 c 0
 244 683 249 682 253 682 c 0
 289 681 325 680 362 680 c 0
 432 680 467 683 479 683 c 0
 489 683 498 680 498 669 c 0
 498 645 472 654 433 650 c 0
 388 645 390 626 380 587 c 2
 260 107 l 2
 253 78 248 61 248 50 c 0
 248 34 259 32 307 31 c 0
 315 31 326 32 331 27 c 0
 334 24 336 21 336 18 c 0
 336 10 328 0 316 0 c 0x78
 312 0 307 1 303 1 c 0xb8
 271 2 238 3 196 3 c 0
 124 3 89 0 77 0 c 0
 67 0 57 2 57 13 c 0
414 86 m 0
 414 145 450 162 475 162 c 0
 497 162 515 147 515 124 c 0
 515 101 498 66 454 66 c 2
 446 66 l 1
 458 16 499 1 529 1 c 0
 580 1 633 59 656 130 c 0
 661 146 665 161 669 177 c 2
 777 610 l 2
 779 618 780 624 780 630 c 0
 780 648 766 651 696 652 c 1
 691 652 l 2
 678 652 669 656 669 665 c 0xb8
 669 670 671 683 690 683 c 0
 694 683 770 680 831 680 c 0
 887 680 915 682 924 682 c 0
 933 682 940 679 940 669 c 0
 940 640 891 662 870 642 c 0
 862 634 859 622 856 612 c 2
 745 166 l 2
 740 148 736 130 729 113 c 0
 699 41 619 -22 532 -22 c 0
 465 -22 414 21 414 86 c 0
EndSplineSet
Ligature2: "Latin Dutch ligatures subtable" I J
EndChar

StartChar: dcroat
Encoding: 273 273 169
Width: 511
Flags: HW
TeX: 688 0
ItalicCorrection: 103
HStem: -11 23<201.693 269.035 414.714 456.495> 419 23<302.755 368.749> 531 32<357.193 457 530 580.863> 655 37<412.548 480.424>
VStem: 107 68<51.6799 220.771> 481 77<587.185 685.116> 502 32<79.4231 152.952>
DStem2: 321.473 -11 386.992 -11 0.242599 0.970127<82.0929 348.27 406.133 558.688 607.441 661.894>
LayerCount: 2
Fore
SplineSet
107 144 m 0
 107 291 226 442 336 442 c 0
 387 442 410 405 420 383 c 1
 457 531 l 1
 380 531 l 2
 372 531 361 530 357 539 c 0
 356 541 355 543 355 545 c 0
 355 553 363 563 377 563 c 2
 465 563 l 1
 473 598 481 619 481 632 c 0
 481 662 430 646 415 655 c 0
 408 659 408 670 412 676 c 0
 418 685 418 683 523 692 c 0
 529 693 535 694 541 694 c 0
 554 694 558 688 558 680 c 0xfc
 558 677 540 601 530 563 c 1
 559 563 l 2
 569 563 581 562 581 549 c 0
 581 533 566 531 557 531 c 2
 522 531 l 1
 502 446 512 489 417 109 c 0
 412 90 408 72 408 51 c 0
 408 18 424 12 434 12 c 0
 475 12 495 109 502 135 c 0
 506 149 513 153 519 153 c 0
 530 153 534 146 534 139 c 0xfa
 534 135 533 130 532 127 c 0
 514 56 491 -11 431 -11 c 0
 398 -11 362 8 350 59 c 1
 323 29 281 -11 229 -11 c 0
 156 -11 107 54 107 144 c 0
175 100 m 0xf8
 175 64 186 12 231 12 c 0
 283 12 338 83 350 108 c 0
 352 112 405 312 405 328 c 0
 405 345 391 419 336 419 c 0
 304 419 272 389 251 358 c 0
 203 289 175 138 175 100 c 0xf8
EndSplineSet
AlternateSubs2: "Stilistic set 01 subtable" dcroat.vn
AlternateSubs2: "Latin alternatives subtable" dcroat.vn
Substitution2: "Latin Vietnamese substitutions subtable" dcroat.vn
EndChar

StartChar: section
Encoding: 167 167 170
Width: 460
Flags: HW
TeX: 688 194
HStem: -206 23<140.805 225.035> -115 63<108.195 141.225> 552 63<441.775 474.805> 683 23<357.718 443.32>
VStem: 77 68<-110.511 -57.4072> 147 43<184.527 298.562> 221 42<481.871 592.557> 319 43<-92.7787 20.3746> 393 43<202.233 315.94> 438 68<557.407 610.649>
LayerCount: 2
Fore
SplineSet
77 -109 m 0
 77 -60 104 -52 118 -52 c 0
 132 -52 145 -62 145 -78 c 0
 145 -93 134 -112 108 -115 c 1
 117 -176 161 -183 180 -183 c 0
 257 -183 319 -85 319 -30 c 0
 319 30 246 55 219 73 c 0
 171 106 147 155 147 210 c 0
 147 302 209 367 264 394 c 1
 236 426 221 461 221 506 c 0
 221 616 315 706 403 706 c 0
 460 706 506 667 506 609 c 0
 506 560 479 552 465 552 c 0
 451 552 438 562 438 578 c 0
 438 597 454 613 475 615 c 1
 468 675 422 683 403 683 c 0
 325 683 263 584 263 530 c 0
 263 472 338 444 360 430 c 0
 399 405 436 359 436 290 c 0
 436 210 386 140 320 106 c 1
 347 73 362 39 362 -6 c 0
 362 -116 268 -206 180 -206 c 0
 121 -206 77 -165 77 -109 c 0
190 234 m 0
 190 167 300 128 300 128 c 1
 327 128 393 207 393 266 c 0
 393 328 322 348 284 376 c 1
 225 348 190 273 190 234 c 0
EndSplineSet
EndChar

StartChar: aogonek
Encoding: 261 261 172
Width: 511
Flags: HW
TeX: 430 194
ItalicCorrection: 76
HStem: -216 39<352.807 437.072> -11 23<201.693 269.035 414.964 456.413> 419 23<300.321 368.832>
VStem: 107 68<51.2447 220.93> 288 48<-162.533 -78.4594> 501 33<78.2412 153.686>
DStem2: 268.977 -216 335.227 -216 0.242599 0.970127<294.677 559.882 617.744 645.458>
AnchorPoint: "above" 336 442 basechar 0
LayerCount: 2
Fore
SplineSet
107 144 m 0
 107 292 226 442 336 442 c 0
 379 442 402 416 420 383 c 1
 428 417 449 421 459 421 c 0
 476 421 487 409 487 395 c 0
 487 391 487 387 484 376 c 2
 418 115 l 2
 413 95 408 73 408 52 c 0
 408 18 424 12 434 12 c 0
 471 12 491 91 501 131 c 0
 505 148 513 154 520 154 c 0
 528 154 534 147 534 140 c 0
 534 131 517 57 491 22 c 0
 471 -5 449 -11 431 -11 c 0
 427 -11 424 -10 421 -10 c 1
 378 -38 336 -73 336 -117 c 0
 336 -153 367 -177 397 -177 c 0
 444 -177 456 -134 472 -134 c 0
 479 -134 482 -140 481 -146 c 0
 477 -164 437 -216 376 -216 c 0
 329 -216 288 -185 288 -138 c 0
 288 -86 341 -35 394 -3 c 1
 394 -2 l 1
 370 10 358 29 350 59 c 1
 323 29 281 -11 229 -11 c 0
 156 -11 107 52 107 144 c 0
175 100 m 0
 175 64 186 12 231 12 c 0
 283 12 338 83 350 108 c 0
 352 112 405 312 405 328 c 0
 405 345 391 419 336 419 c 0
 302 419 271 387 251 358 c 0
 203 289 175 138 175 100 c 0
EndSplineSet
EndChar

StartChar: dcaron
Encoding: 271 271 175
Width: 511
Flags: HW
TeX: 688 0
ItalicCorrection: 103
HStem: -11 23<201.693 269.035 414.931 456.981> 419 23<302.755 368.749> 631 105<615.944 686.3> 674 20<541 547>
VStem: 107 68<51.6799 220.771> 481 78<610.708 685.245> 503 31<84.7575 152.893> 599 115<649.608 718.593>
DStem2: 320.242 -11 386.49 -11 0.242599 0.970127<83.1302 348.569 406.431 635.332>
LayerCount: 2
Fore
SplineSet
576 513 m 0
 576 530 655 549 687 648 c 1
 672 637 661 631 643 631 c 0
 617 631 599 647 599 672 c 0
 599 702 625 736 663 736 c 0
 693 736 714 713 714 677 c 0xe9
 714 594 614 503 587 503 c 0
 581 503 576 508 576 513 c 0
EndSplineSet
Refer: 111 100 S 1 0 0 1 0 -0 3
EndChar

StartChar: eogonek
Encoding: 281 281 177
Width: 460
Flags: HW
TeX: 430 194
ItalicCorrection: 75
HStem: -216 41<274.202 355.38> -11 22<221.798 294.503> 230 23<205 326.904> 419 23<316.315 399.837>
VStem: 113 69<65.7954 228.47> 210 48<-161.338 -71.7926> 425 37<306.036 401.872>
AnchorPoint: "above" 362 442 basechar 0
LayerCount: 2
Fore
SplineSet
113 165 m 0
 113 345 258 442 362 442 c 0
 420 442 462 408 462 357 c 0
 462 318 439 266 358 244 c 0
 313 232 258 230 204 230 c 2
 199 230 l 1
 191 195 182 159 182 122 c 0
 182 73 200 11 259 11 c 0
 278 11 363 18 431 100 c 0
 437 107 444 117 451 118 c 0
 459 119 467 112 467 104 c 0
 467 94 450 73 428 54 c 0
 373 6 258 -32 258 -114 c 0
 258 -146 283 -175 316 -175 c 0
 362 -175 382 -124 396 -124 c 0
 399 -124 405 -125 405 -133 c 0
 405 -150 359 -216 295 -216 c 0
 251 -216 210 -184 210 -136 c 0
 210 -86 250 -40 296 -8 c 1
 283 -10 269 -11 256 -11 c 0
 170 -11 113 59 113 165 c 0
205 253 m 1
 324 253 425 274 425 358 c 0
 425 393 400 419 362 419 c 0
 331 419 241 397 205 253 c 1
EndSplineSet
EndChar

StartChar: gbreve
Encoding: 287 287 178
Width: 460
Flags: HW
TeX: 641 194
ItalicCorrection: 88
HStem: -206 23<104.129 224.839> 0 23<204.193 272.077> 419 23<300.39 369.565> 504 37<294.647 435.951>
VStem: 52 83<-165.676 -103.906> 109 69<62.478 233.584> 245 23<574.369 636.566> 406 81<305.081 398.849> 500 24<602.693 636.693>
DStem2: 273.232 -206 338.239 -206 0.242599 0.970127<81.4003 266.975 288.763 551.784 609.193 634.723>
LayerCount: 2
Fore
SplineSet
245 603 m 0
 245 620 248 637 259 637 c 0
 267 637 268 630 268 621 c 2
 268 610 l 2xf380
 268 554 327 541 362 541 c 0
 420 541 480 573 500 622 c 0
 502 628 507 637 514 637 c 0
 518 637 524 634 524 625 c 0
 524 595 463 504 359 504 c 0
 294 504 245 544 245 603 c 0
EndSplineSet
Refer: 114 103 S 1 0 0 1 0 0 3
EndChar

StartChar: lcaron
Encoding: 318 318 180
Width: 255
Flags: HW
TeX: 688 0
ItalicCorrection: 103
HStem: -11 23<159.619 201.511> 631 105<360.944 431.3> 674 20<285 291.5>
VStem: 93 60<16.5852 157.414> 226 78<615.002 685.131> 344 115<649.608 718.593>
DStem2: 66.7399 -11 132.492 -11 0.242599 0.970127<94.6383 663.031>
LayerCount: 2
Fore
SplineSet
322 513 m 0
 322 530 400 549 432 648 c 1
 417 637 406 631 388 631 c 0
 362 631 344 647 344 672 c 0
 344 702 370 736 408 736 c 0
 438 736 459 713 459 677 c 0xdc
 459 594 359 503 332 503 c 0
 326 503 322 508 322 513 c 0
EndSplineSet
Refer: 119 108 S 1 0 0 1 -0 0 3
EndChar

StartChar: lslash
Encoding: 322 322 181
Width: 319
Flags: HW
TeX: 688 0
ItalicCorrection: 103
HStem: -11 23<171.455 213.485> 674 20G<298 306>
VStem: 105 60<17.0297 159.867> 238 78<611.813 685.228> 261 30<89.3959 152.856>
AnchorPoint: "above" 287 694 basechar 0
LayerCount: 2
Fore
SplineSet
68 266 m 0
 68 276 78 282 151 335 c 0
 171 350 170 352 175 373 c 0
 227 581 238 621 238 634 c 0
 238 666 166 637 166 667 c 0
 166 684 186 684 199 685 c 0
 233 688 296 694 300 694 c 0
 312 694 316 688 316 680 c 0xf0
 316 678 316 675 315 672 c 2
 249 407 l 1
 319 458 337 474 347 474 c 0
 349 474 350 474 352 473 c 0
 356 470 360 465 360 460 c 0
 360 449 351 447 254 374 c 0
 234 359 236 357 231 337 c 0
 166 76 165 81 165 51 c 0
 165 17 181 12 191 12 c 0
 235 12 254 122 261 141 c 0
 264 149 272 153 278 153 c 0
 285 153 291 149 291 142 c 0
 291 129 275 70 258 38 c 0
 240 4 217 -11 189 -11 c 0
 142 -11 105 26 105 79 c 0
 105 100 103 85 157 303 c 1
 94 257 92 252 81 252 c 0xe8
 72 252 68 261 68 266 c 0
EndSplineSet
EndChar

StartChar: nacute
Encoding: 324 324 182
Width: 562
Flags: HW
TeX: 641 0
ItalicCorrection: 76
HStem: -11 23<443.026 493.481> 418 24<159.833 203.661 360.33 441.125>
VStem: 83 24<278.145 307.906> 383 56<12.0743 122.776> 457 61<244.197 407.814> 553 33<88.707 152.889>
LayerCount: 2
Fore
SplineSet
347 514 m 0
 347 525 343 520 490 639 c 0
 497 645 507 651 518 651 c 0
 533 651 546 638 546 623 c 0
 546 604 528 593 515 585 c 0
 370 501 368 499 361 499 c 0
 353 499 347 507 347 514 c 0
EndSplineSet
Refer: 121 110 S 1 0 0 1 0 0 3
EndChar

StartChar: eng
Encoding: 331 331 184
Width: 562
Flags: HW
TeX: 430 194
ItalicCorrection: 76
HStem: -205 22<238.336 285.767> -170 79<235 269.05> -11 21G<144.5 170> 418 24<160.265 204.089 358.919 441.804>
VStem: 194 83<-161.758 -100.162> 457 61<243.1 407.097>
DStem2: 69.2325 -205 134.233 -205 0.242599 0.970127<228.671 593.642>
AnchorPoint: "affricate-below" 513 -194 basechar 0
AnchorPoint: "affricate-above" 736 694 basechar 0
AnchorPoint: "below" 231 -194 basechar 0
AnchorPoint: "above" 390 442 basechar 0
LayerCount: 2
Fore
SplineSet
83 290 m 0
 83 295 90 321 96 341 c 0
 107 378 129 442 187 442 c 0
 206 442 261 432 269 362 c 1
 297 398 341 442 413 442 c 0
 459 442 518 420 518 337 c 0
 518 270 464 135 457 112 c 0
 435 33 395 -205 268 -205 c 0
 229 -205 194 -181 194 -144 c 0
 194 -118 213 -91 243 -91 c 0
 262 -91 277 -104 277 -123 c 0
 277 -142 265 -163 235 -170 c 1
 247 -178 257 -183 265 -183 c 0
 324 -183 364 26 388 105 c 0
 391 115 457 277 457 353 c 0
 457 385 448 419 410 419 c 0
 319 419 265 304 258 285 c 0
 254 273 257 284 194 34 c 0
 193 30 187 -11 153 -11 c 0
 136 -11 126 2 126 16 c 0
 126 27 130 39 132 46 c 2
 199 312 l 2
 203 328 210 356 210 380 c 0
 210 412 194 418 184 418 c 0
 140 418 123 316 114 291 c 0
 111 282 103 278 97 278 c 0
 91 278 83 280 83 290 c 0
EndSplineSet
EndChar

StartChar: sacute
Encoding: 347 347 188
Width: 409
Flags: HW
TeX: 641 0
ItalicCorrection: 82
HStem: -11 22<152.248 266.728> 67 81<108.521 149.884> 302 68<352.168 384.429> 419 23<259.052 354.153> 499 152
VStem: 75 84<77.9711 137.481> 153 57<285.794 369.208> 270 199 335 57<77.7936 171.966> 347 71<308.275 363.192>
AnchorPoint: "below" 208 0 basechar 0
AnchorPoint: "above" 359 631 basechar 0
LayerCount: 2
Fore
SplineSet
75 86 m 0
 75 132 106 148 126 148 c 0
 146 148 159 135 159 116 c 0
 159 97 144 68 108 67 c 1
 121 34 152 11 207 11 c 0
 325 11 335 105 335 123 c 0xfc80
 335 194 256 189 213 205 c 1
 184 217 153 246 153 293 c 0
 153 330 178 442 310 442 c 0
 373 442 418 408 418 356 c 0
 418 315 393 302 376 302 c 0
 360 302 347 314 347 330 c 0xfa40
 347 346 359 365 385 370 c 1
 372 410 336 419 309 419 c 0
 224 419 210 348 210 328 c 0
 210 240 340 301 384 200 c 0
 389 188 392 175 392 158 c 0xfa80
 392 123 370 -11 206 -11 c 0
 129 -11 75 28 75 86 c 0
EndSplineSet
Refer: 13 180 S 1 0 0 1 -76 0 2
EndChar

StartChar: scaron
Encoding: 353 353 189
Width: 409
Flags: HW
TeX: 641 0
ItalicCorrection: 134
HStem: -11 22<152.505 266.341> 67 81<108.521 149.884> 302 68<352.168 384.429> 419 23<258.684 354.957> 488 149
VStem: 75 84<77.9711 137.481> 154 57<288.973 370.967> 220 280 335 57<76.3001 165.48> 347 71<308.275 363.192>
AnchorPoint: "below" 208 0 basechar 0
AnchorPoint: "above" 356 617 basechar 0
LayerCount: 2
Fore
SplineSet
75 86 m 0
 75 132 106 148 126 148 c 0
 146 148 159 135 159 116 c 0
 159 97 144 68 108 67 c 1
 112 58 128 11 207 11 c 0
 323 11 335 102 335 120 c 0xfc80
 335 220 154 166 154 295 c 0
 154 331 177 442 309 442 c 0
 372 442 418 408 418 356 c 0
 418 315 393 302 376 302 c 0
 360 302 347 314 347 330 c 0xfa40
 347 346 359 365 385 370 c 1
 372 410 336 419 309 419 c 0
 224 419 211 349 211 330 c 0
 211 251 341 289 382 199 c 0
 387 187 392 173 392 155 c 0xfa80
 392 122 370 -11 206 -11 c 0
 129 -11 75 28 75 86 c 0
EndSplineSet
Refer: 19 711 S 1 0 0 1 -26 0 2
EndChar

StartChar: scedilla
Encoding: 351 351 190
Width: 409
Flags: HW
TeX: 430 170
ItalicCorrection: 82
HStem: -193 23<52.0376 171.752> 67 80<109.944 151.049> 302 68<352.111 385.413> 419 23<258.585 356.057>
VStem: 76 83<75.6609 137.92> 153 57<286.07 368.259> 219 65<-146.497 -77.9276> 336 56<77.4986 171.436> 347 71<307.847 362.199>
LayerCount: 2
Fore
SplineSet
52 -181 m 0
 52 -176 56 -170 73 -170 c 2
 90 -170 l 1
 201 -169 219 -133 219 -109 c 0
 219 -63 158 -80 158 -57 c 0
 158 -50 162 -38 170 -8 c 1
 123 2 76 29 76 86 c 0
 76 133 105 147 125 147 c 0
 148 147 159 132 159 115 c 0
 159 102 151 69 109 67 c 1
 120 38 140 22 175 14 c 1
 183 22 185 22 207 22 c 2
 219 22 l 2
 231 22 235 18 239 14 c 1
 322 29 336 103 336 123 c 0xfb
 336 182 272 191 267 192 c 0
 242 198 153 205 153 294 c 0
 153 325 175 442 310 442 c 0
 374 442 418 407 418 355 c 0
 418 323 401 302 375 302 c 0
 358 302 347 315 347 330 c 0xf680
 347 337 350 362 386 370 c 1
 374 410 336 419 309 419 c 0
 224 419 210 348 210 328 c 0
 210 310 221 285 252 276 c 0
 282 267 392 262 392 157 c 0
 392 126 374 5 234 -10 c 1
 223 -53 l 1
 251 -59 284 -73 284 -109 c 0xf7
 284 -176 196 -192 85 -192 c 0
 83 -192 79 -193 75 -193 c 0
 65 -193 52 -191 52 -181 c 0
EndSplineSet
EndChar

StartChar: tcaron
Encoding: 357 357 191
Width: 332
Flags: HW
TeX: 688 0
ItalicCorrection: 94
HStem: -11 23<185.245 242.738> 400 30<92.1262 195 268 369.807> 594 106<382.128 451.3>
VStem: 119 60<16.16 158.195> 324 31<105.881 152.811> 365 115<612.608 682.503>
DStem2: 92.4907 -11 157.991 -11 0.242599 0.970127<94.5163 423.591 470.404 643.603>
LayerCount: 2
Fore
SplineSet
92 413 m 0
 92 429 106 430 114 430 c 0
 124 430 134 431 144 431 c 0
 164 431 183 430 203 430 c 1
 246 617 251 626 282 626 c 0
 298 626 309 614 309 599 c 0
 309 586 268 430 268 430 c 1
 347 430 l 2
 355 430 366 431 370 422 c 0
 373 414 369 405 362 402 c 0
 358 400 347 399 337 399 c 2
 319 399 l 2
 299 399 280 400 260 400 c 1
 257 387 253 373 250 360 c 2
 190 117 l 2
 185 96 179 74 179 52 c 0
 179 32 183 12 207 12 c 0
 277 12 320 130 324 140 c 0
 328 150 336 153 342 153 c 0
 348 153 355 149 355 142 c 0
 355 126 300 -11 204 -11 c 0
 153 -11 119 27 119 79 c 0
 119 96 123 113 126 123 c 2
 195 400 l 1
 114 400 l 2
 103 400 92 400 92 413 c 0
342 476 m 0
 342 493 420 512 452 611 c 1
 437 600 426 594 408 594 c 0
 382 594 365 611 365 636 c 0
 365 666 391 700 429 700 c 0
 459 700 480 676 480 640 c 0
 480 557 379 466 352 466 c 0
 346 466 342 471 342 476 c 0
EndSplineSet
EndChar

StartChar: tcommaaccent
Encoding: 355 355 192
Width: 332
Flags: HW
TeX: 614 170
ItalicCorrection: 94
HStem: -192 22<52.0109 168.588> 400 30<91.0401 195 267 370.921>
VStem: 119 59<22.2564 160.011> 219 65<-146.515 -77.3837> 322 33<100.292 152.947>
LayerCount: 2
Fore
SplineSet
52 -181 m 0
 52 -172 61 -170 73 -170 c 2
 90 -170 l 1
 201 -169 219 -132 219 -108 c 0
 219 -62 158 -81 158 -57 c 0
 158 -50 162 -37 170 -5 c 1
 147 6 119 28 119 79 c 0
 119 102 116 84 195 400 c 1
 113 400 l 2
 102 400 91 400 91 414 c 0
 91 422 97 430 114 430 c 0
 124 430 133 431 143 431 c 0
 163 431 183 430 203 430 c 1
 246 617 250 625 281 625 c 0
 297 625 308 614 308 599 c 0
 308 586 267 430 267 430 c 1
 350 430 l 2
 360 430 371 430 371 417 c 0
 371 401 359 399 335 399 c 2
 319 399 l 2
 299 399 280 400 260 400 c 1
 233 275 178 96 178 52 c 0
 178 40 179 33 183 22 c 1
 209 22 l 2
 219 22 229 22 236 19 c 1
 283 44 305 96 322 136 c 0
 325 143 329 152 338 153 c 0
 348 154 357 149 355 138 c 0
 352 121 310 20 235 -6 c 1
 223 -53 l 1
 251 -59 284 -72 284 -108 c 0
 284 -191 142 -192 84 -192 c 2
 80 -192 l 2
 67 -192 52 -192 52 -181 c 0
EndSplineSet
EndChar

StartChar: uhungarumlaut
Encoding: 369 369 193
Width: 537
Flags: HW
TeX: 641 0
ItalicCorrection: 200
HStem: -11 23<241.752 306.478 439.958 483.566> 419 23<175.315 225.343> 499 152
VStem: 83 33<278.158 341.17> 163 59<30.9833 235.703> 229 57<308.848 418.923> 283 199 436 199 538 22<130.752 150.955>
AnchorPoint: "below" 269 0 basechar 0
AnchorPoint: "above" 426 631 basechar 0
LayerCount: 2
Fore
SplineSet
83 290 m 0
 83 297 118 442 211 442 c 0
 256 442 286 407 286 362 c 0
 286 320 262 290 252 264 c 0
 246 248 222 161 222 93 c 0
 222 59 228 12 270 12 c 0
 310 12 364 56 385 139 c 2
 446 384 l 2
 447 390 454 430 488 430 c 0
 506 430 514 418 514 402 c 0
 514 398 514 394 513 390 c 0
 480 247 434 95 434 52 c 0
 434 17 450 12 460 12 c 0
 511 12 522 143 538 151 c 0
 546 155 560 152 560 140 c 0
 560 133 549 88 537 59 c 0
 516 6 489 -11 457 -11 c 0xfc80
 408 -11 387 23 376 53 c 1
 354 23 319 -11 267 -11 c 0
 226 -11 163 9 163 119 c 0
 163 179 184 255 189 269 c 0
 196 287 229 345 229 390 c 0
 229 415 215 419 206 419 c 0
 150 419 124 324 116 296 c 0
 115 292 112 278 97 278 c 0
 90 278 83 281 83 290 c 0
EndSplineSet
Refer: 17 733 S 1 0 0 1 14 0 2
EndChar

StartChar: uring
Encoding: 367 367 194
Width: 537
Flags: HW
TeX: 641 0
ItalicCorrection: 76
HStem: -11 23<235.306 311.574 440.426 482.999> 419 22<175.212 224.044> 500 22<353.806 448.523> 638 23<377.426 473.133>
VStem: 83 32<277.06 340.269> 152 62<26.7295 194.353> 229 57<307.016 418.424> 317 30<526.864 608.32> 479 29<554.266 632.525> 536 24<122.094 152.855>
LayerCount: 2
Fore
SplineSet
83 291 m 0
 83 298 118 441 211 441 c 0
 256 441 286 406 286 361 c 0
 286 310 214 181 214 82 c 0
 214 21 248 12 270 12 c 0
 332 12 370 81 374 92 c 0
 377 100 377 107 379 115 c 2
 446 383 l 2
 448 389 453 430 488 430 c 0
 505 430 514 416 514 407 c 0
 514 389 500 337 446 123 c 0
 444 114 434 80 434 52 c 0
 434 30 440 12 460 12 c 0
 510 12 522 141 536 150 c 0
 539 152 542 153 546 153 c 0
 553 153 560 149 560 140 c 1
 560 140 543 35 497 2 c 0
 485 -7 471 -11 457 -11 c 0
 430 -11 393 2 378 49 c 1
 353 20 321 -11 266 -11 c 0
 213 -11 152 11 152 98 c 0
 152 198 229 333 229 390 c 0
 229 410 219 419 206 419 c 0
 150 419 122 320 115 296 c 0
 111 282 104 277 98 277 c 0
 93 277 83 280 83 291 c 0
317 554 m 0
 317 580 331 661 434 661 c 0
 480 661 508 645 508 606 c 0
 508 582 498 500 392 500 c 0
 338 500 317 521 317 554 c 0
347 552 m 0
 347 525 369 522 399 522 c 0
 450 522 463 536 475 586 c 0
 477 593 479 600 479 608 c 0
 479 636 455 638 426 638 c 0
 379 638 363 627 351 575 c 0
 349 568 347 560 347 552 c 0
EndSplineSet
EndChar

StartChar: ydieresis
Encoding: 255 255 195
Width: 485
Flags: HW
TeX: 641 194
ItalicCorrection: 88
HStem: -206 23<156.551 236.977> -137 80<131.695 174.055> -11 23<235.537 312.367> 419 22<177.486 226.181> 553 106<270.161 340.839 446.803 519.202>
VStem: 83 24<278.144 308.391> 99 84<-126.199 -67.0369> 153 61<26.7295 194.737> 230 56<307.84 418.603> 252 107<571.045 640.955> 429 108<571.047 640.953>
DStem2: 297.487 -206 363.734 -206 0.242599 0.970127<116.518 239.507 249.263 643.211>
AnchorPoint: "above" 428 639 basechar 0
LayerCount: 2
Fore
SplineSet
83 290 m 0
 83 302 120 441 210 441 c 0
 255 441 286 407 286 361 c 0
 286 313 214 180 214 82 c 0xfda0
 214 21 248 12 270 12 c 0
 309 12 346 40 368 80 c 0
 374 91 376 103 379 115 c 2
 446 383 l 2
 447 389 454 430 488 430 c 0
 501 430 515 420 515 403 c 0
 515 395 512 387 510 379 c 2
 420 19 l 2
 410 -20 404 -47 379 -87 c 0
 337 -154 269 -206 195 -206 c 0
 140 -206 99 -171 99 -119 c 0
 99 -72 129 -57 149 -57 c 0
 169 -57 183 -71 183 -89 c 0xfa20
 183 -104 172 -135 131 -137 c 1
 144 -173 170 -183 194 -183 c 0
 254 -183 311 -122 343 -24 c 0
 348 -8 353 9 357 26 c 1
 327 1 302 -11 266 -11 c 0
 214 -11 153 11 153 98 c 0xf920
 153 199 230 333 230 391 c 0
 230 404 225 419 207 419 c 0
 140 419 118 289 107 281 c 0
 104 279 101 278 97 278 c 0
 90 278 83 282 83 290 c 0
429 596 m 0
 429 629 461 659 493 659 c 0
 519 659 537 640 537 616 c 0
 537 583 505 553 473 553 c 0xf820
 449 553 429 570 429 596 c 0
EndSplineSet
Refer: 57 46 S 1 0 0 1 140 553 2
EndChar

StartChar: zdotaccent
Encoding: 380 380 198
Width: 408
Flags: HW
TeX: 661 0
ItalicCorrection: 122
HStem: -11 64<233.59 346.224> 63 23<154.412 197.022> 344 23<342.691 369> 377 65<201.704 305.527> 575 80<337.998 401.341>
VStem: 329 81<583.468 646.193> 398 33<104.689 151.946>
AnchorPoint: "below" 230 0 basechar 0
AnchorPoint: "above" 388 635 basechar 0
LayerCount: 2
Fore
SplineSet
329 608 m 0
 329 631 351 655 377 655 c 0
 395 655 410 642 410 622 c 0
 410 600 389 575 363 575 c 0xfc
 345 575 329 588 329 608 c 0
EndSplineSet
Refer: 133 122 S 1 0 0 1 0 -0 3
EndChar

StartChar: ij
Encoding: 307 307 199
Width: 562
Flags: HW
TeX: 661 194
ItalicCorrection: 101
HStem: -206 23<267.07 338.063> -173 79<266 295.308> -11 23<187.674 236.033> 419 23<177.419 225.051 451.994 508.441> 575 80<252.998 316.002 538.998 603.07>
VStem: 128 56<12.5932 123.188> 220 83<-164.905 -103.794> 230 56<307.106 418.801> 244 81<583.807 646.193> 516 60<271.156 413.668> 530 82<584.031 646.193>
DStem2: 374.988 -206 440.238 -206 0.242599 0.970127<82.1671 589.184>
LayerCount: 2
Fore
SplineSet
84 290 m 0
 84 300 119 442 210 442 c 0
 255 442 286 407 286 361 c 0xfd
 286 309 184 96 184 40 c 0
 184 19 195 12 208 12 c 0
 221 12 238 20 255 40 c 0
 301 96 290 153 317 153 c 0
 324 153 331 149 331 140 c 0
 331 125 291 -11 204 -11 c 0
 159 -11 128 23 128 69 c 0
 128 122 230 334 230 390 c 0
 230 411 218 419 205 419 c 0
 192 419 176 411 160 392 c 0
 114 336 124 278 97 278 c 0
 90 278 84 281 84 290 c 0
220 -146 m 0
 220 -118 243 -94 269 -94 c 0
 288 -94 303 -108 303 -127 c 0
 303 -146 290 -165 266 -173 c 1
 276 -179 286 -183 300 -183 c 0
 344 -183 387 -139 409 -68 c 0
 413 -55 416 -43 419 -30 c 2
 505 312 l 2
 515 351 516 366 516 379 c 0
 516 408 504 419 487 419 c 0
 413 419 373 288 364 281 c 0
 358 276 347 276 342 282 c 0
 336 288 340 298 343 304 c 0
 352 328 402 441 491 441 c 0
 544 441 576 401 576 352 c 0xfe40
 576 332 569 310 563 283 c 2
 483 -35 l 2
 479 -52 475 -70 468 -86 c 0
 437 -156 367 -206 300 -206 c 0
 253 -206 220 -182 220 -146 c 0
244 608 m 0
 244 631 266 655 292 655 c 0
 310 655 325 642 325 622 c 0xfc80
 325 599 303 575 277 575 c 0
 259 575 244 588 244 608 c 0
530 608 m 0xfc20
 530 631 552 655 578 655 c 0
 595 655 612 642 612 622 c 0
 612 595 585 575 564 575 c 0
 546 575 530 589 530 608 c 0xfc20
EndSplineSet
Ligature2: "Latin Dutch ligatures subtable" i j
EndChar

StartChar: exclamdown
Encoding: 161 161 200
Width: 307
Flags: HW
TeX: 499 194
ItalicCorrection: 75
HStem: -216 529<101 228> 394 105<227.789 300.031>
VStem: 57 110<-198.494 -107.507> 210 108<412.047 480.34>
LayerCount: 2
Fore
SplineSet
57 -176 m 0
 57 -164 62 -153 65 -143 c 2
 204 281 l 2
 207 291 211 313 228 313 c 0
 235 313 242 309 242 298 c 0
 242 290 238 271 236 260 c 2
 167 -149 l 2
 166 -158 159 -216 101 -216 c 0
 76 -216 57 -199 57 -176 c 0
EndSplineSet
Refer: 368 183 S 1 0 0 1 51 205 2
EndChar

StartChar: questiondown
Encoding: 191 191 201
Width: 511
Flags: HW
TeX: 499 194
HStem: -216 22<161.77 252.281> -11 80<368.264 396> 290 23<293.593 347.655> 394 106<330.161 402.202>
VStem: 83 36<-160.788 -40.3659> 219 33<213.19 255.097> 312 108<412.047 481.955> 353 35<208.254 288.287> 359 82<-6.71467 59.7231>
LayerCount: 2
Fore
SplineSet
83 -93 m 0
 83 -35 113 18 147 52 c 0
 172 78 316 187 332 204 c 0
 343 216 353 236 353 257 c 0
 353 280 341 290 326 290 c 0
 302 290 267 265 252 229 c 0
 250 224 249 217 245 213 c 0
 237 205 219 206 219 220 c 0
 219 244 263 313 328 313 c 0
 366 313 388 283 388 244 c 0xfd
 388 210 373 177 356 157 c 0
 345 144 329 132 217 43 c 0
 198 28 119 -22 119 -106 c 0
 119 -156 152 -194 204 -194 c 0
 281 -194 353 -123 396 -11 c 1
 364 -10 359 8 359 21 c 0
 359 46 383 69 407 69 c 0
 426 69 441 56 441 37 c 0xfc80
 441 -6 357 -216 203 -216 c 0
 131 -216 83 -164 83 -93 c 0
312 437 m 0
 312 467 342 500 376 500 c 0
 402 500 420 481 420 457 c 0
 420 424 388 394 356 394 c 0xfe
 332 394 312 411 312 437 c 0
EndSplineSet
EndChar

StartChar: sterling
Encoding: 163 163 202
Width: 769
Flags: HW
TeX: 688 0
HStem: -11 42<397.001 524.939> -11 23<129.328 194.418> 97 42<146.043 255.199> 332 31<256.191 330 403 503.817> 481 80<617.47 666> 684 23<540.963 623.11>
VStem: 87 38<13.6907 73.7381> 585 34<93.91 147.76> 667 30<563.186 640.296>
DStem2: 241.49 -11 308.489 -11 0.242599 0.970127<142.761 354.226 402.009 643.111>
LayerCount: 2
Fore
SplineSet
87 38 m 0
 87 79 139 139 217 139 c 0
 235 139 254 136 276 127 c 1
 287 157 299 209 330 332 c 1
 276 332 l 2
 269 332 260 332 256 339 c 0
 255 341 254 343 254 345 c 0
 254 354 263 363 279 363 c 2
 338 363 l 1
 347 403 379 532 388 554 c 0
 423 642 505 707 582 707 c 0
 651 707 697 654 697 574 c 0
 697 494 665 481 643 481 c 0
 624 481 609 494 609 513 c 0
 609 530 622 561 660 561 c 0
 662 561 664 560 666 560 c 1
 666 565 667 571 667 577 c 0
 667 643 633 684 582 684 c 0
 531 684 481 635 456 564 c 0
 442 525 419 423 403 363 c 1
 483 363 l 2
 493 363 504 362 504 350 c 0
 504 332 488 332 473 332 c 2
 395 332 l 1
 391 313 354 165 348 147 c 0
 342 130 333 114 325 99 c 1
 366 73 411 31 468 31 c 0
 532 31 572 91 585 124 c 0
 590 136 591 148 605 148 c 0
 612 148 619 144 619 135 c 0
 619 112 562 -11 452 -11 c 0xbf80
 390 -11 350 24 297 61 c 1
 296 61 l 1
 263 25 210 -11 153 -11 c 0
 114 -11 87 9 87 38 c 0
125 38 m 0
 125 22 137 12 155 12 c 0
 175 12 219 25 256 84 c 1
 238 91 219 97 200 97 c 0x7f80
 154 97 125 62 125 38 c 0
EndSplineSet
EndChar

StartChar: Agrave
Encoding: 192 192 203
Width: 743
Flags: HW
TeX: 855 0
HStem: 0 31<615.536 689.897> 1 23<439.026 499.084> 230 30<307 515> 696 20<540 558.5>
VStem: 59 145<9 75.5> 528 162<12 75>
DStem2: 190 113 289 230 0.493698 0.869633<-33.9594 150.623 185.599 561.797> 568 688 493 587 0.0690778 -0.997611<95.5779 423.316 453.383 610.51>
AnchorPoint: "below" 370 0 basechar 0
AnchorPoint: "above" 580 840 basechar 0
LayerCount: 2
Fore
SplineSet
448 834 m 0
 448 849 464 871 485 871 c 0
 495 871 503 866 511 860 c 0
 622 776 624 777 624 767 c 0x3c
 624 760 618 750 608 750 c 0
 603 750 605 750 474 805 c 0
 462 810 448 817 448 834 c 0
EndSplineSet
Refer: 76 65 S 1 0 0 1 -0 0 3
AlternateSubs2: "Stilistic set 01 subtable" Agrave.vn
AlternateSubs2: "Latin alternatives subtable" Agrave.vn
Substitution2: "Latin Vietnamese substitutions subtable" Agrave.vn
EndChar

StartChar: Acircumflex
Encoding: 194 194 205
Width: 743
Flags: HW
TeX: 891 0
HStem: 0 31<615.536 689.897> 1 23<439.026 499.084> 230 30<307 515> 696 20<540 558.5>
VStem: 59 145<9 75.5> 528 162<12 75>
DStem2: 190 113 289 230 0.493698 0.869633<-33.9594 150.623 185.599 561.797> 568 688 493 587 0.0690778 -0.997611<95.5779 423.316 453.383 610.51>
AnchorPoint: "below" 370 0 basechar 0
AnchorPoint: "above" 587 869 basechar 0
LayerCount: 2
Fore
SplineSet
433 755 m 0
 433 762 440 768 445 773 c 0
 584 898 584 900 593 900 c 0
 604 900 614 881 621 869 c 0
 686 764 687 762 687 756 c 0
 687 748 678 741 670 741 c 0x3c
 660 741 658 747 585 847 c 1
 573 838 561 828 466 751 c 0
 464 750 455 741 447 741 c 0
 439 741 433 747 433 755 c 0
EndSplineSet
Refer: 76 65 S 1 0 0 1 -0 0 3
AlternateSubs2: "Stilistic set 01 subtable" Acircumflex.vn
AlternateSubs2: "Latin alternatives subtable" Acircumflex.vn
Substitution2: "Latin Vietnamese substitutions subtable" Acircumflex.vn
EndChar

StartChar: Atilde
Encoding: 195 195 206
Width: 743
Flags: HW
TeX: 891 0
HStem: 0 31<615.536 689.897> 1 23<439.026 499.084> 230 30<307 515> 696 20<540 558.5> 800 36<607.907 698.264> 855 36<464.306 556.297>
VStem: 59 145<9 75.5> 528 162<12 75>
DStem2: 190 113 289 230 0.493698 0.869633<-33.9594 150.623 185.599 561.797> 568 688 493 587 0.0690778 -0.997611<95.5779 423.316 453.383 610.51>
AnchorPoint: "below" 370 0 basechar 0
AnchorPoint: "above" 585 860 basechar 0
LayerCount: 2
Fore
SplineSet
397 811 m 0
 397 817 402 823 406 827 c 0
 433 853 476 891 522 891 c 0
 579 891 608 836 655 836 c 0
 690 836 722 864 743 882 c 0
 758 895 767 888 767 880 c 0
 767 867 697 800 642 800 c 0
 586 800 556 855 508 855 c 0
 459 855 423 802 406 802 c 0x3f
 401 802 397 806 397 811 c 0
EndSplineSet
Refer: 76 65 S 1 0 0 1 -0 -0 3
AlternateSubs2: "Stilistic set 01 subtable" Atilde.vn
AlternateSubs2: "Latin alternatives subtable" Atilde.vn
Substitution2: "Latin Vietnamese substitutions subtable" Atilde.vn
EndChar

StartChar: Aring
Encoding: 197 197 208
Width: 743
Flags: HW
TeX: 855 0
HStem: 0 31<614.694 689.903> 1 41<60.6027 151.077> 230 30<307 515> 890 23<556.304 624.846>
VStem: 59 145<9 74.5> 475 29<727.514 828.287> 639 28<779.769 878.671>
DStem2: 197 125 307 260 0.494009 0.869457<-47.1558 136.742 171.718 547.916> 571 639 493 587 0.069039 -0.997614<46.4909 374.23 404.296 563.769>
LayerCount: 2
Fore
SplineSet
59 14 m 0
 59 38 87 26 122 42 c 0x7e
 157 58 178 92 197 125 c 2
 522 697 l 1
 482 712 475 749 475 772 c 0
 475 845 539 913 598 913 c 0
 643 913 667 877 667 835 c 0
 667 775 623 714 567 697 c 1
 569 678 570 658 571 639 c 2
 607 119 l 2
 613 32 606 33 667 31 c 0
 675 31 690 31 690 17 c 0
 690 6 682 0 670 0 c 0xbe
 659 0 628 3 564 3 c 0
 503 3 470 1 458 1 c 0x7e
 448 1 440 3 440 13 c 0
 440 50 528 8 528 70 c 0
 528 89 523 129 517 230 c 1
 289 230 l 1
 206 84 204 83 204 66 c 0
 204 22 259 42 259 16 c 0
 259 8 253 0 239 0 c 0xbe
 230 0 203 3 149 3 c 0
 116 3 95 1 81 1 c 0
 65 1 59 4 59 14 c 0
307 260 m 1
 515 260 l 1
 493 587 l 1
 307 260 l 1
504 764 m 0
 504 735 521 717 550 717 c 0x3e
 621 717 639 814 639 843 c 0
 639 873 622 890 592 890 c 0
 517 890 504 783 504 764 c 0
EndSplineSet
EndChar

StartChar: AE
Encoding: 198 198 209
Width: 883
Flags: HW
TeX: 688 0
ItalicCorrection: 120
HStem: -0 31<211.082 259.91 344.145 417.657 498.006 713.065> 313 31<359 487 571 707.881> 652 31<431.092 505 646.811 864.992>
VStem: 59 146<9 75> 763 33<393.622 459.77> 900 48<486.207 673.5>
DStem2: 196 119 341 313 0.502253 0.864721<46.9344 240.583 276.429 615.228> 408.728 -0 485.728 -0 0.242599 0.970127<102.58 322.638 373.091 646.589>
AnchorPoint: "below" 442 0 basechar 0
AnchorPoint: "above" 623 705 basechar 0
LayerCount: 2
Fore
SplineSet
59 14 m 0
 59 47 107 11 162 71 c 0
 175 85 186 102 196 119 c 2
 505 651 l 1
 492 651 481 652 468 652 c 2
 454 652 l 2
 438 652 431 658 431 666 c 0
 431 673 436 683 455 683 c 2
 926 683 l 2
 938 683 948 681 948 666 c 0
 948 657 923 473 923 473 c 2
 921 462 914 458 907 458 c 0
 896 458 893 464 893 476 c 0
 893 492 900 519 900 557 c 0
 900 642 858 652 763 652 c 2
 693 652 l 2
 678 652 665 653 655 646 c 0
 643 637 646 646 591 424 c 0
 584 397 577 371 571 344 c 1
 642 344 l 2
 714 344 740 353 763 437 c 0
 765 447 769 460 782 460 c 0
 793 460 796 453 796 446 c 0
 796 438 740 216 739 213 c 0
 736 201 728 197 722 197 c 0
 718 197 708 200 708 210 c 0
 708 223 718 249 718 271 c 0
 718 310 685 313 641 313 c 2
 564 313 l 1
 564 313 498 55 498 44 c 0
 498 32 506 31 527 31 c 2
 602 31 l 2
 769 31 793 86 858 241 c 0
 863 253 871 257 877 257 c 0
 884 257 891 252 891 245 c 0
 891 238 881 219 800 20 c 0
 793 4 790 0 774 -0 c 2
 366 -0 l 2
 356 0 347 0 344 8 c 0
 342 14 343 22 348 26 c 0
 358 36 398 24 415 43 c 0
 424 53 422 53 487 313 c 1
 341 313 l 1
 223 109 205 84 205 66 c 0
 205 28 248 34 256 26 c 0
 258 24 260 20 260 17 c 0
 260 9 253 0 240 0 c 0
 222 0 205 3 152 3 c 0
 118 3 96 1 82 1 c 0
 65 1 59 4 59 14 c 0
359 344 m 1
 495 344 l 1
 559 601 l 2
 562 613 564 621 564 628 c 0
 564 642 556 647 536 649 c 1
 359 344 l 1
EndSplineSet
EndChar

StartChar: Ccedilla
Encoding: 199 199 210
Width: 715
Flags: HW
TeX: 688 170
ItalicCorrection: 145
HStem: -192 22<246.099 364.875> -20 29<341.917 360 425 478.589> 674 31<500.187 641.797>
VStem: 149 88<128.755 344.213> 413 65<-146.949 -77.8213> 663 34<189.481 250.803> 719 91<462.689 696.5>
AnchorPoint: "above" 569 705 basechar 0
LayerCount: 2
Fore
SplineSet
149 245 m 0
 149 478 364 705 569 705 c 0
 605 705 676 697 719 620 c 1
 791 702 790 704 800 704 c 0
 804 704 810 701 810 692 c 0
 810 687 810 688 748 440 c 0
 744 424 738 419 731 419 c 0
 726 419 715 422 715 433 c 0
 715 441 719 453 719 492 c 0
 719 585 679 674 577 674 c 0
 477 674 380 599 326 513 c 0
 270 424 237 287 237 206 c 0
 237 57 332 9 407 9 c 0
 518 9 625 108 663 228 c 0
 667 240 669 251 683 251 c 0
 690 251 697 247 697 238 c 0
 697 199 602 1 425 -20 c 1
 417 -53 l 1
 445 -60 478 -74 478 -109 c 0
 478 -184 366 -192 275 -192 c 2
 270 -192 l 2
 257 -192 248 -192 246 -184 c 0
 244 -178 247 -170 267 -170 c 2
 286 -170 l 1
 327 -169 413 -164 413 -108 c 0
 413 -91 398 -79 382 -74 c 0
 367 -70 352 -73 352 -57 c 0
 352 -50 357 -31 360 -20 c 1
 229 -1 149 104 149 245 c 0
EndSplineSet
EndChar

StartChar: Egrave
Encoding: 200 200 211
Width: 678
Flags: HW
TeX: 855 0
ItalicCorrection: 120
HStem: -0 31<62.0844 150.435 245.009 505.519> 338 31<325 471.759> 650 30<228.188 306.489 394.215 653.875>
VStem: 526 33<421.052 483.752> 688 54<489.855 626.071>
DStem2: 150.994 -0 232.476 -0 0.242599 0.970127<125.467 368.176 400.19 649.677>
AnchorPoint: "below" 341 0 basechar 0
AnchorPoint: "above" 561 876 basechar 0
LayerCount: 2
Fore
SplineSet
449 834 m 0
 449 852 467 871 486 871 c 0
 501 871 509 862 605 790 c 0
 613 784 625 776 625 767 c 0
 625 760 619 750 609 750 c 0
 604 750 604 750 474 805 c 0
 462 810 449 817 449 834 c 0
EndSplineSet
Refer: 80 69 S 1 0 0 1 -0 -0 3
AlternateSubs2: "Stilistic set 01 subtable" Egrave.vn
AlternateSubs2: "Latin alternatives subtable" Egrave.vn
Substitution2: "Latin Vietnamese substitutions subtable" Egrave.vn
EndChar

StartChar: Eacute
Encoding: 201 201 212
Width: 678
Flags: HW
TeX: 855 0
ItalicCorrection: 120
HStem: 0 31<62.0844 150.435 245.009 505.519> 338 31<325 471.759> 650 30<228.188 306.489 394.215 653.875>
VStem: 526 33<421.052 483.752> 688 54<489.855 626.071>
DStem2: 150.994 0 232.476 0 0.242599 0.970127<125.467 368.176 400.19 649.677>
AnchorPoint: "below" 341 0 basechar 0
AnchorPoint: "above" 561 876 basechar 0
LayerCount: 2
Fore
SplineSet
487 765 m 0
 487 777 484 774 643 861 c 0
 648 864 660 871 672 871 c 0
 689 871 699 857 699 843 c 0
 699 820 679 811 663 805 c 0
 519 755 508 750 501 750 c 0
 492 750 487 757 487 765 c 0
EndSplineSet
Refer: 80 69 S 1 0 0 1 -0 0 3
AlternateSubs2: "Stilistic set 01 subtable" Eacute.vn
AlternateSubs2: "Latin alternatives subtable" Eacute.vn
Substitution2: "Latin Vietnamese substitutions subtable" Eacute.vn
EndChar

StartChar: Ecircumflex
Encoding: 202 202 213
Width: 678
Flags: HW
TeX: 891 0
ItalicCorrection: 120
HStem: 0 31<62.0844 150.435 245.009 505.519> 338 31<325 471.759> 650 30<228.188 306.489 394.215 653.875>
VStem: 526 33<421.052 483.752> 688 54<489.855 626.071>
DStem2: 150.994 0 232.476 0 0.242599 0.970127<125.467 368.176 400.19 649.677>
AnchorPoint: "below" 341 0 basechar 0
AnchorPoint: "above" 568 905 basechar 0
LayerCount: 2
Fore
SplineSet
407 755 m 0
 407 762 415 768 420 773 c 0
 559 898 559 900 568 900 c 0
 579 900 589 881 596 869 c 0
 661 764 661 762 661 756 c 0
 661 748 653 741 645 741 c 0
 635 741 633 747 560 847 c 1
 548 838 536 828 441 751 c 0
 439 750 430 741 422 741 c 0
 414 741 407 747 407 755 c 0
EndSplineSet
Refer: 80 69 S 1 0 0 1 -0 0 3
AlternateSubs2: "Stilistic set 01 subtable" Ecircumflex.vn
AlternateSubs2: "Latin alternatives subtable" Ecircumflex.vn
Substitution2: "Latin Vietnamese substitutions subtable" Ecircumflex.vn
EndChar

StartChar: Igrave
Encoding: 204 204 215
Width: 385
Flags: HW
TeX: 855 0
ItalicCorrection: 158
HStem: 0 33<57.4446 160.711 248.008 335.907> 656 27<220.509 305.531 405.554 497.981>
DStem2: 151.993 0 233.243 0 0.242599 0.970127<72.3029 651.432>
AnchorPoint: "below" 193 0 basechar 0
AnchorPoint: "above" 412 873 basechar 0
LayerCount: 2
Fore
SplineSet
283 834 m 0
 283 849 299 871 320 871 c 0
 330 871 338 866 346 860 c 0
 457 776 459 777 459 767 c 0
 459 760 453 750 443 750 c 0
 438 750 440 750 309 805 c 0
 297 810 283 817 283 834 c 0
EndSplineSet
Refer: 84 73 S 1 0 0 1 -0 0 3
AlternateSubs2: "Stilistic set 01 subtable" Igrave.vn
AlternateSubs2: "Latin alternatives subtable" Igrave.vn
Substitution2: "Latin Vietnamese substitutions subtable" Igrave.vn
EndChar

StartChar: Icircumflex
Encoding: 206 206 217
Width: 385
Flags: HW
TeX: 891 0
ItalicCorrection: 158
HStem: 0 33<57.4446 160.711 248.008 335.907> 656 27<220.509 305.531 405.554 497.981>
DStem2: 151.993 0 233.243 0 0.242599 0.970127<72.3029 651.432>
AnchorPoint: "below" 193 0 basechar 0
AnchorPoint: "above" 419 902 basechar 0
LayerCount: 2
Fore
SplineSet
255 755 m 0
 255 762 262 768 267 773 c 0
 406 898 406 900 415 900 c 0
 426 900 436 881 443 869 c 0
 507 764 509 762 509 756 c 0
 509 748 500 741 492 741 c 0
 482 741 480 746 407 847 c 1
 395 838 383 828 288 751 c 0
 286 750 277 741 269 741 c 0
 261 741 255 748 255 755 c 0
EndSplineSet
Refer: 84 73 S 1 0 0 1 0 0 3
EndChar

StartChar: Idieresis
Encoding: 207 207 218
Width: 385
Flags: HW
TeX: 891 0
ItalicCorrection: 158
HStem: 0 33<57.4446 160.711 248.008 335.907> 656 27<220.509 305.531 405.554 497.981> 786 105<275.944 349.211> 786 106<455.161 525.839>
VStem: 259 108<803.592 873.429> 437 107<804.045 873.955>
DStem2: 151.993 0 233.243 0 0.242599 0.970127<72.3029 651.432>
AnchorPoint: "below" 193 0 basechar 0
AnchorPoint: "above" 417 894 basechar 0
LayerCount: 2
Fore
SplineSet
259 829 m 0
 259 862 291 891 323 891 c 0
 349 891 367 872 367 848 c 0
 367 818 337 786 303 786 c 0xec
 277 786 259 805 259 829 c 0
EndSplineSet
Refer: 6 -1 S 1 0 0 1 32 26 2
Refer: 84 73 S 1 0 0 1 -0 0 3
EndChar

StartChar: Eth
Encoding: 208 208 219
Width: 755
Flags: HW
TeX: 688 0
ItalicCorrection: 94
HStem: -0 31<244.007 456.504> 320 30<143.116 232 319 487.809> 652 31<225.104 308.464 392.875 601.581>
VStem: 691 83<340.226 553.453>
DStem2: 151.978 -0 230.978 -0 0.242599 0.970127<110.278 329.854 380.064 599.902>
LayerCount: 2
Fore
SplineSet
63 14 m 0
 63 48 130 18 157 44 c 0
 168 54 164 50 232 320 c 1
 217 320 202 319 187 319 c 2
 169 319 l 2
 153 319 143 320 143 333 c 0
 143 348 158 351 173 351 c 0
 179 351 185 350 189 350 c 2
 240 350 l 1
 262 444 309 614 309 632 c 0
 309 650 288 652 267 652 c 2
 257 652 l 2
 244 652 233 652 229 657 c 0
 227 660 225 663 225 666 c 0
 225 675 234 683 248 683 c 2
 556 683 l 2
 730 683 774 536 774 438 c 0
 774 240 610 0 385 -0 c 2
 85 -0 l 2
 72 0 63 2 63 14 c 0
244 44 m 0
 244 32 253 31 278 31 c 2
 375 31 l 2
 486 31 560 104 596 157 c 0
 650 236 691 392 691 478 c 0
 691 557 658 652 525 652 c 2
 428 652 l 2
 390 652 391 641 372 565 c 2
 319 350 l 1
 464 350 l 2
 476 350 491 348 491 338 c 0
 491 335 491 332 488 328 c 0
 484 321 475 319 467 319 c 0
 464 319 461 320 459 320 c 2
 311 320 l 1
 290 227 244 60 244 44 c 0
EndSplineSet
EndChar

StartChar: Ntilde
Encoding: 209 209 220
Width: 743
Flags: HW
TeX: 891 0
ItalicCorrection: 163
HStem: 1 31<62.1436 140.93> 652 31<227.19 313 773.954 850.925> 800 36<607.907 698.264> 855 36<465.814 556.297>
VStem: 62 144<8.5 78.5> 706 145<605 674>
DStem2: 150.989 0 185.493 0 0.242599 0.970127<84.6663 642.239> 409 653 340 615 0.339839 -0.940484<12.2895 539.356> 556.49 0 589.998 0 0.242599 0.970127<150.496 627.593>
LayerCount: 2
Fore
SplineSet
397 811 m 0
 397 823 466 891 522 891 c 0
 579 891 608 836 655 836 c 0
 690 836 722 864 743 882 c 0
 758 895 767 888 767 880 c 0
 767 867 697 800 642 800 c 0
 586 800 556 855 508 855 c 0
 459 855 423 802 406 802 c 0
 401 802 397 806 397 811 c 0
EndSplineSet
Refer: 89 78 S 1 0 0 1 -0 0 3
EndChar

StartChar: Ograve
Encoding: 210 210 221
Width: 766
Flags: HW
TeX: 855 0
ItalicCorrection: 94
HStem: -22 27<327.463 445.189> 680 25<490.161 608.349>
VStem: 147 91<121.13 356.535> 701 86<342.563 561.772>
AnchorPoint: "below" 384 0 basechar 0
AnchorPoint: "above" 597 851 basechar 0
LayerCount: 2
Fore
SplineSet
486 834 m 0
 486 852 503 871 522 871 c 0
 537 871 545 862 641 790 c 0
 649 784 662 776 662 767 c 0
 662 760 655 750 645 750 c 0
 640 750 641 750 511 805 c 0
 499 810 486 817 486 834 c 0
EndSplineSet
Refer: 90 79 S 1 0 0 1 -0 -0 3
AlternateSubs2: "Stilistic set 01 subtable" Ograve.vn
AlternateSubs2: "Latin alternatives subtable" Ograve.vn
Substitution2: "Latin Vietnamese substitutions subtable" Ograve.vn
EndChar

StartChar: Ocircumflex
Encoding: 212 212 223
Width: 766
Flags: HW
TeX: 891 0
ItalicCorrection: 94
HStem: -22 27<327.463 445.189> 680 25<490.161 608.349>
VStem: 147 91<121.13 356.535> 701 86<342.563 561.772>
AnchorPoint: "below" 384 0 basechar 0
AnchorPoint: "above" 604 880 basechar 0
LayerCount: 2
Fore
SplineSet
444 755 m 0
 444 762 452 768 457 773 c 0
 596 898 596 900 605 900 c 0
 616 900 626 881 633 869 c 0
 697 765 698 763 698 756 c 0
 698 748 690 741 682 741 c 0
 672 741 670 746 597 847 c 1
 585 838 573 828 478 751 c 0
 476 750 467 741 459 741 c 0
 451 741 444 747 444 755 c 0
EndSplineSet
Refer: 90 79 S 1 0 0 1 0 0 3
AlternateSubs2: "Stilistic set 01 subtable" Ocircumflex.vn
AlternateSubs2: "Latin alternatives subtable" Ocircumflex.vn
Substitution2: "Latin Vietnamese substitutions subtable" Ocircumflex.vn
EndChar

StartChar: Otilde
Encoding: 213 213 224
Width: 766
Flags: HW
TeX: 891 0
ItalicCorrection: 94
HStem: -22 27<327.463 445.189> 680 25<490.161 608.349> 800 36<619.836 710.187> 855 36<477.091 567.761>
VStem: 147 91<121.13 356.535> 701 86<342.563 561.772>
AnchorPoint: "below" 384 0 basechar 0
AnchorPoint: "above" 602 871 basechar 0
LayerCount: 2
Fore
SplineSet
409 811 m 0
 409 823 477 891 534 891 c 0
 590 891 620 836 668 836 c 0
 716 836 753 889 770 889 c 0
 775 889 779 885 779 880 c 0
 779 869 711 800 654 800 c 0
 598 800 567 855 519 855 c 0
 470 855 434 802 417 802 c 0
 412 802 409 806 409 811 c 0
EndSplineSet
Refer: 90 79 S 1 0 0 1 0 0 3
AlternateSubs2: "Stilistic set 01 subtable" Otilde.vn
AlternateSubs2: "Latin alternatives subtable" Otilde.vn
Substitution2: "Latin Vietnamese substitutions subtable" Otilde.vn
EndChar

StartChar: Odieresis
Encoding: 214 214 225
Width: 766
Flags: HW
TeX: 891 0
ItalicCorrection: 94
HStem: -22 27<327.463 445.189> 680 25<490.161 608.349> 786 105<466.128 539.056> 786 106<646.161 716.839>
VStem: 147 91<121.13 356.535> 449 107<803.571 873.408> 628 107<804.045 873.955> 701 86<342.563 561.772>
AnchorPoint: "below" 384 0 basechar 0
AnchorPoint: "above" 602 872 basechar 0
LayerCount: 2
Fore
SplineSet
449 829 m 0
 449 859 478 891 512 891 c 0
 538 891 556 872 556 848 c 0
 556 815 524 786 492 786 c 0xec
 466 786 449 805 449 829 c 0
EndSplineSet
Refer: 57 46 S 1 0 0 1 516 786 2
Refer: 90 79 S 1 0 0 1 0 0 3
EndChar

StartChar: OE
Encoding: 338 338 226
Width: 985
Flags: HW
TeX: 688 0
ItalicCorrection: 120
HStem: -0 31<582.009 816.739> 339 31<662 827.105> 652 31<731.815 965> 682 23<511.905 617.535>
VStem: 161 91<119.134 367.988> 884 33<419.622 485.735> 995 32<458.077 553.319> 1001 48<481.388 672.5>
AnchorPoint: "above" 710 705 basechar 0
LayerCount: 2
Fore
SplineSet
161 236 m 0
 161 476 375 705 570 705 c 0xdd
 629 705 642 683 722 683 c 2
 1029 683 l 2
 1041 683 1049 679 1049 666 c 0xed
 1049 660 1035 546 1027 486 c 0xee
 1027 485 1025 458 1010 458 c 0
 998 458 995 464 995 476 c 0xee
 995 492 1001 519 1001 555 c 0
 1001 646 953 652 857 652 c 2
 777 652 l 2xed
 741 652 733 652 722 610 c 2
 662 370 l 1
 757 370 l 2
 842 370 865 391 884 461 c 0
 887 471 889 486 903 486 c 0
 914 486 917 479 917 472 c 0
 917 464 861 242 860 239 c 0
 857 227 849 223 843 223 c 0
 837 223 829 226 829 236 c 0
 829 249 838 271 838 294 c 0
 838 338 798 339 745 339 c 2
 654 339 l 1
 654 339 582 53 582 44 c 0
 582 31 595 31 609 31 c 2
 697 31 l 2
 853 31 887 68 957 235 c 0
 962 247 966 257 980 257 c 0
 986 257 992 253 992 245 c 0
 992 237 987 226 904 23 c 0
 895 1 890 0 874 -0 c 2
 546 -0 l 2
 475 0 447 -22 388 -22 c 0
 273 -22 161 67 161 236 c 0
252 220 m 0
 252 98 304 1 397 1 c 0
 426 1 457 7 479 28 c 0
 518 64 531 131 610 449 c 0
 635 549 642 584 642 618 c 0
 642 649 632 682 567 682 c 0xdc
 412 682 252 447 252 220 c 0
EndSplineSet
EndChar

StartChar: Oslash
Encoding: 216 216 227
Width: 766
Flags: HW
TeX: 731 48
ItalicCorrection: 94
HStem: -22 23<322.675 445.284> 683 22<491.394 610.146>
VStem: 148 73<118.357 337.74> 715 73<340.791 563.396>
DStem2: 174 24 221 40 0.657899 0.753107<-90.7303 42.9709 97.0823 767.232 822.096 955.764>
LayerCount: 2
Fore
SplineSet
117 -47 m 0
 117 -40 115 -44 174 24 c 2
 204 58 l 1
 204 59 l 1
 193 72 148 130 148 236 c 0
 148 473 358 705 558 705 c 0
 652 705 704 654 715 643 c 1
 722 652 730 660 789 728 c 0
 794 733 800 741 808 741 c 0
 814 741 819 736 819 730 c 0
 819 722 822 727 762 658 c 2
 732 624 l 1
 742 609 788 553 788 445 c 0
 788 204 577 -22 377 -22 c 0
 284 -22 233 29 222 40 c 1
 221 40 l 1
 138 -56 136 -58 128 -58 c 0
 122 -58 117 -53 117 -47 c 0
221 195 m 0
 221 157 224 135 238 97 c 1
 685 609 l 1
 662 648 618 683 553 683 c 0
 472 683 399 630 352 575 c 0
 252 458 221 264 221 195 c 0
250 73 m 1
 274 34 318 1 383 1 c 0
 416 1 508 11 591 113 c 0
 685 228 715 418 715 486 c 0
 715 524 712 546 698 585 c 1
 250 73 l 1
EndSplineSet
EndChar

StartChar: Ugrave
Encoding: 217 217 228
Width: 743
Flags: HW
TeX: 855 0
ItalicCorrection: 163
HStem: -22 31<328.829 452.83> 639 43<752.474 849.01> 652 31<225.078 307.51 636.189 698.498>
VStem: 201 75<70.8501 253.977> 709 142<604 674>
DStem2: 145.481 -22 227.983 -22 0.242599 0.970127<196.379 673.707> 553.73 -22 585.23 -22 0.242599 0.970127<163.129 649.363>
AnchorPoint: "below" 386 0 basechar 0
AnchorPoint: "above" 589 873 basechar 0
LayerCount: 2
Fore
SplineSet
475 834 m 0
 475 849 490 871 511 871 c 0
 521 871 530 866 538 860 c 0
 649 776 650 777 650 767 c 0x98
 650 760 644 750 634 750 c 0
 629 750 632 750 501 805 c 0
 489 810 475 817 475 834 c 0
EndSplineSet
Refer: 96 85 S 1 0 0 1 -0 0 3
AlternateSubs2: "Stilistic set 01 subtable" Ugrave.vn
AlternateSubs2: "Latin alternatives subtable" Ugrave.vn
Substitution2: "Latin Vietnamese substitutions subtable" Ugrave.vn
EndChar

StartChar: Ucircumflex
Encoding: 219 219 230
Width: 743
Flags: HW
TeX: 891 0
ItalicCorrection: 163
HStem: -22 31<328.829 452.83> 639 43<752.474 849.01> 652 31<225.078 307.51 636.189 698.498>
VStem: 201 75<70.8501 253.977> 709 142<604 674>
DStem2: 145.481 -22 227.983 -22 0.242599 0.970127<196.379 673.707> 553.73 -22 585.23 -22 0.242599 0.970127<163.129 649.363>
AnchorPoint: "below" 386 0 basechar 0
AnchorPoint: "above" 596 902 basechar 0
LayerCount: 2
Fore
SplineSet
445 755 m 0
 445 762 453 768 458 773 c 0
 597 898 597 900 606 900 c 0
 617 900 627 881 634 869 c 0
 699 764 699 763 699 757 c 0
 699 749 691 741 683 741 c 0x98
 673 741 671 747 598 847 c 1
 586 838 574 828 479 751 c 0
 477 750 468 741 460 741 c 0
 452 741 445 747 445 755 c 0
EndSplineSet
Refer: 96 85 S 1 0 0 1 -0 0 3
EndChar

StartChar: Thorn
Encoding: 222 222 233
Width: 627
Flags: HW
TeX: 688 0
ItalicCorrection: 102
HStem: 0 31<64.0818 159.631 244.374 326.915> 177 31<282 439.994> 521 31<368 518.007> 651 32<227.115 309.889>
VStem: 555 91<324.447 487.821>
DStem2: 153.741 0 229.738 0 0.242599 0.970127<71.0265 200.887 232.902 555.474 587.489 651.723>
LayerCount: 2
Fore
SplineSet
64 14 m 0
 64 31 81 32 100 32 c 2
 111 32 l 2
 170 32 166 49 187 133 c 2
 305 606 l 2
 308 618 310 627 310 633 c 0
 310 650 293 652 274 652 c 0
 269 652 263 651 258 651 c 0
 241 651 227 652 227 665 c 0
 227 679 237 683 247 683 c 2
 248 683 l 2
 259 683 294 680 362 680 c 0
 428 680 461 682 472 682 c 0
 486 682 490 676 490 670 c 0
 490 636 425 664 398 640 c 0
 384 628 386 620 368 552 c 1
 488 552 l 2
 601 552 646 479 646 409 c 0
 646 314 560 203 440 181 c 0
 421 177 401 177 382 177 c 2
 274 177 l 1
 274 177 244 62 244 50 c 0
 244 33 265 31 285 31 c 2
 297 31 l 2
 314 31 327 31 327 17 c 0
 327 9 321 0 307 0 c 0
 296 0 261 3 193 3 c 0
 127 3 98 1 84 1 c 0
 71 1 64 4 64 14 c 0
282 208 m 1
 378 208 l 2
 480 208 555 321 555 417 c 0
 555 462 538 521 468 521 c 2
 360 521 l 1
 282 208 l 1
EndSplineSet
EndChar

StartChar: Germandbls
Encoding: 61699 61699 234
Width: 1073
Flags: HW
TeX: 688 0
ItalicCorrection: 119
HStem: -22 31<226.721 362.873 737.721 874.079> 677 28<371.02 489.163 882.02 1000.06>
VStem: 74 78<-13.5 181.715> 199 67<440.876 560.698> 470 67<139.361 268.181> 546 32<456.058 533.28> 551 80<503.237 694.5> 586 77<-12 181.715> 710 67<440.721 560.698> 981 67<139.761 268.181> 1056 33<456.02 533.28> 1062 80<503.237 694.5>
LayerCount: 2
Fore
SplineSet
74 -9 m 0
 74 1 128 208 128 208 c 2
 132 223 139 227 145 227 c 0
 149 227 159 225 159 215 c 0
 159 203 152 180 152 149 c 0
 152 37 239 9 302 9 c 0
 392 9 470 108 470 200 c 0
 470 317 359 298 276 337 c 0
 231 358 199 403 199 467 c 0
 199 588 311 705 431 705 c 0
 508 705 543 666 560 637 c 1
 613 702 612 704 622 704 c 0
 628 704 631 697 631 692 c 0xfac0
 631 688 631 688 578 475 c 0xfcc0
 574 460 567 456 561 456 c 0
 555 456 546 459 546 471 c 0xfcc0
 546 481 551 498 551 535 c 0
 551 661 473 677 428 677 c 0
 346 677 266 592 266 505 c 0
 266 371 437 425 505 339 c 0
 528 310 537 274 537 238 c 0
 537 113 428 -22 299 -22 c 0
 201 -22 163 26 147 47 c 1
 105 -6 94 -21 84 -21 c 0
 80 -21 74 -18 74 -9 c 0
586 -9 m 0
 586 -4 587 2 588 7 c 0
 642 225 639 222 651 226 c 0
 659 229 670 226 670 215 c 0
 670 203 663 180 663 149 c 0
 663 37 750 9 813 9 c 0
 904 9 981 110 981 200 c 0
 981 317 869 298 786 337 c 0
 741 358 710 402 710 467 c 0
 710 588 822 705 942 705 c 0
 1019 705 1053 666 1070 637 c 1
 1123 702 1123 704 1133 704 c 0
 1139 704 1142 697 1142 692 c 0xf9d0
 1142 688 1142 688 1089 475 c 0
 1085 460 1078 456 1072 456 c 0xf8e0
 1066 456 1056 459 1056 471 c 0xf8e0
 1056 481 1062 498 1062 535 c 0
 1062 661 984 677 939 677 c 0
 857 677 777 592 777 505 c 0
 777 371 948 425 1016 339 c 0
 1039 310 1048 274 1048 238 c 0
 1048 113 939 -22 810 -22 c 0
 712 -22 674 26 658 47 c 1
 616 -6 605 -21 595 -21 c 0
 587 -21 586 -15 586 -9 c 0
EndSplineSet
EndChar

StartChar: acircumflex
Encoding: 226 226 237
Width: 511
Flags: HW
TeX: 641 0
ItalicCorrection: 76
HStem: -11 23<201.693 269.035 414.931 457.386> 419 23<302.796 368.832>
VStem: 107 68<51.2447 220.753> 502 32<82.375 152.952>
DStem2: 320.242 -11 386.491 -11 0.242599 0.970127<83.5005 348.569 406.431 433.175>
AnchorPoint: "below" 226 0 basechar 0
AnchorPoint: "above" 381 616 basechar 0
LayerCount: 2
Fore
SplineSet
249 484 m 0
 249 493 247 489 369 603 c 0
 393 625 403 636 412 636 c 0
 423 636 421 635 497 502 c 0
 498 500 503 492 503 486 c 0
 503 478 495 470 487 470 c 0
 477 470 472 479 436 533 c 0
 425 549 413 566 403 583 c 1
 284 481 l 2
 282 479 272 470 264 470 c 0
 257 470 249 476 249 484 c 0
EndSplineSet
Refer: 108 97 S 1 0 0 1 0 0 3
AlternateSubs2: "Stilistic set 01 subtable" acircumflex.vn
AlternateSubs2: "Latin alternatives subtable" acircumflex.vn
Substitution2: "Latin Vietnamese substitutions subtable" acircumflex.vn
EndChar

StartChar: aring
Encoding: 229 229 240
Width: 511
Flags: HW
TeX: 641 0
ItalicCorrection: 76
HStem: -11 23<201.693 269.035 414.931 457.386> 419 23<302.796 368.832> 500 22<322.578 402.534> 638 23<346.28 427.592>
VStem: 107 68<51.2447 220.753> 281 30<530.637 608.668> 438 30<552.494 629.919> 502 32<82.375 152.952>
DStem2: 320.242 -11 386.491 -11 0.242599 0.970127<83.5005 348.569 406.431 433.175>
LayerCount: 2
Fore
SplineSet
281 564 m 0
 281 613 335 661 394 661 c 0
 435 661 468 635 468 597 c 0
 468 548 414 500 355 500 c 0
 314 500 281 526 281 564 c 0
311 560 m 0
 311 533 331 522 360 522 c 0
 432 522 438 585 438 601 c 0
 438 627 418 638 389 638 c 0
 325 638 311 587 311 560 c 0
EndSplineSet
Refer: 108 97 S 1 0 0 1 -0 -0 3
EndChar

StartChar: ae
Encoding: 230 230 241
Width: 715
Flags: HW
TeX: 430 0
ItalicCorrection: 75
HStem: -11 22<202.143 264.621 474.83 563.015> 230 23<449 584.488> 419 23<300.438 372.993 567.556 654.095>
VStem: 108 68<52.4315 226.926> 680 37<305.185 401.368>
AnchorPoint: "below" 366 0 basechar 0
AnchorPoint: "above" 477 442 basechar 0
LayerCount: 2
Fore
SplineSet
108 147 m 0
 108 302 228 442 336 442 c 0
 390 442 412 405 425 385 c 1
 431 411 436 441 465 441 c 0
 481 441 488 427 488 418 c 0
 488 414 487 407 483 389 c 1
 519 417 563 442 617 442 c 0
 673 442 717 408 717 357 c 0
 717 337 710 267 605 242 c 0
 561 232 508 230 456 230 c 2
 443 230 l 1
 436 200 429 167 429 133 c 0
 429 58 462 11 512 11 c 0
 542 11 605 25 661 98 c 0
 666 104 673 118 682 118 c 0
 688 118 696 112 696 103 c 0
 696 80 611 -11 512 -11 c 0
 435 -11 394 50 383 113 c 1
 371 95 310 -11 228 -11 c 0
 156 -11 108 55 108 147 c 0
176 104 m 0
 176 64 187 11 230 11 c 0
 270 11 325 60 363 136 c 0
 382 174 378 172 381 196 c 0
 388 258 410 310 410 332 c 0
 410 351 396 419 337 419 c 0
 302 419 269 387 249 358 c 0
 205 295 176 149 176 104 c 0
449 253 m 1
 538 253 680 257 680 358 c 0
 680 393 654 419 616 419 c 0
 554 419 480 363 449 253 c 1
EndSplineSet
EndChar

StartChar: ccedilla
Encoding: 231 231 242
Width: 460
Flags: HW
TeX: 430 170
ItalicCorrection: 56
HStem: -192 22<103.008 222.167> 296 81<393.945 434.195> 419 23<320.445 406.785>
VStem: 109 70<63.1257 233.638> 270 65<-145.669 -77.4766> 385 84<306.192 367.651>
AnchorPoint: "above" 362 442 basechar 0
LayerCount: 2
Fore
SplineSet
103 -181 m 0
 103 -172 112 -170 124 -170 c 2
 141 -170 l 1
 253 -169 270 -132 270 -108 c 0
 270 -62 209 -81 209 -58 c 0
 209 -51 213 -38 221 -7 c 1
 135 15 109 92 109 153 c 0
 109 298 236 442 363 442 c 0
 422 442 469 407 469 356 c 0
 469 312 439 296 419 296 c 0
 399 296 385 309 385 328 c 0
 385 339 392 373 435 377 c 1
 422 404 396 419 365 419 c 0
 234 419 179 196 179 114 c 0
 179 75 189 39 228 17 c 1
 236 22 238 22 248 22 c 2
 270 22 l 2
 282 22 285 18 289 14 c 1
 408 41 434 118 453 118 c 2
 454 118 l 1
 460 117 466 113 466 105 c 0
 466 99 463 92 455 82 c 0
 415 33 358 1 285 -10 c 1
 274 -53 l 1
 302 -59 335 -74 335 -109 c 0
 335 -185 221 -192 130 -192 c 2
 124 -192 l 2
 114 -192 103 -191 103 -181 c 0
EndSplineSet
EndChar

StartChar: ecircumflex
Encoding: 234 234 245
Width: 460
Flags: HW
TeX: 641 0
ItalicCorrection: 75
HStem: -11 22<222.271 316.621> 230 23<205 326.781> 419 23<315.536 399.631>
VStem: 113 69<65.7071 227.944> 425 37<306.307 401.872>
AnchorPoint: "below" 260 0 basechar 0
AnchorPoint: "above" 406 616 basechar 0
LayerCount: 2
Fore
SplineSet
223 484 m 0
 223 493 221 489 343 603 c 0
 367 625 377 636 386 636 c 0
 397 636 405 618 413 603 c 0
 477 492 478 493 478 486 c 0
 478 478 469 470 461 470 c 0
 451 470 446 479 410 533 c 0
 399 549 387 566 377 583 c 1
 257 481 l 2
 255 479 246 470 238 470 c 0
 231 470 223 476 223 484 c 0
EndSplineSet
Refer: 112 101 S 1 0 0 1 -0 -0 3
AlternateSubs2: "Stilistic set 01 subtable" ecircumflex.vn
AlternateSubs2: "Latin alternatives subtable" ecircumflex.vn
Substitution2: "Latin Vietnamese substitutions subtable" ecircumflex.vn
EndChar

StartChar: edieresis
Encoding: 235 235 246
Width: 460
Flags: HW
TeX: 641 0
ItalicCorrection: 75
HStem: -11 22<222.271 316.621> 230 23<205 326.781> 419 23<315.536 399.631> 553 106<255.969 326.839 433.803 506.202>
VStem: 113 69<65.7071 227.944> 238 107<571.045 640.953> 416 108<571.047 640.953> 425 37<306.307 401.872>
AnchorPoint: "below" 260 0 basechar 0
AnchorPoint: "above" 411 639 basechar 0
LayerCount: 2
Fore
SplineSet
238 596 m 0
 238 629 270 659 302 659 c 0
 328 659 345 640 345 616 c 0
 345 586 315 553 281 553 c 0
 255 553 238 572 238 596 c 0
416 596 m 0
 416 629 448 659 480 659 c 0
 506 659 524 640 524 616 c 0
 524 583 492 553 460 553 c 0xfe
 436 553 416 570 416 596 c 0
EndSplineSet
Refer: 112 101 S 1 0 0 1 -0 0 3
EndChar

StartChar: igrave
Encoding: 236 236 247
Width: 306
Flags: HW
TeX: 641 0
ItalicCorrection: 76
HStem: -11 23<188.279 237.963> 419 22<175.343 226.194>
VStem: 83 32<277.057 338.913> 128 56<12.5932 123.034> 230 55<310.103 418.576>
AnchorPoint: "below" 154 0 basechar 0
AnchorPoint: "above" 311 631 basechar 0
LayerCount: 2
Fore
SplineSet
172 614 m 0
 172 635 193 651 209 651 c 0
 227 651 231 644 289 563 c 0
 302 545 319 525 319 515 c 0
 319 505 309 499 302 499 c 0
 294 499 287 507 189 587 c 0
 181 594 172 601 172 614 c 0
EndSplineSet
Refer: 36 305 S 1 0 0 1 0 0 3
AlternateSubs2: "Stilistic set 01 subtable" igrave.vn
AlternateSubs2: "Latin alternatives subtable" igrave.vn
Substitution2: "Latin Vietnamese substitutions subtable" igrave.vn
Ligature2: "Latin ligatures excepting Turkic subtable" i gravecomb
EndChar

StartChar: icircumflex
Encoding: 238 238 249
Width: 306
Flags: HW
TeX: 641 0
ItalicCorrection: 76
HStem: -11 23<188.279 237.963> 419 22<175.343 226.194>
VStem: 83 32<277.057 338.913> 128 56<12.5932 123.034> 230 55<310.103 418.576>
AnchorPoint: "below" 154 0 basechar 0
AnchorPoint: "above" 308 616 basechar 0
LayerCount: 2
Fore
SplineSet
117 484 m 0
 117 493 114 489 236 603 c 0
 260 625 270 636 279 636 c 0
 290 636 299 618 307 603 c 0
 370 492 371 492 371 485 c 0
 371 477 362 470 354 470 c 0
 344 470 340 479 304 533 c 0
 293 549 281 566 271 583 c 1
 151 481 l 2
 149 479 139 470 131 470 c 0
 124 470 117 476 117 484 c 0
EndSplineSet
Refer: 36 305 S 1 0 0 1 0 -0 3
Ligature2: "Latin ligatures excepting Turkic subtable" i uni0302
EndChar

StartChar: idieresis
Encoding: 239 239 250
Width: 306
Flags: HW
TeX: 641 0
ItalicCorrection: 76
HStem: -11 23<188.279 237.963> 419 22<175.343 226.194> 553 106<178.789 251.211 357.969 428.839>
VStem: 83 32<277.057 338.913> 128 56<12.5932 123.034> 161 108<571 641.408> 230 55<310.103 418.576> 340 107<571.045 640.953>
AnchorPoint: "above" 314 639 basechar 0
LayerCount: 2
Fore
SplineSet
161 597 m 0
 161 627 191 659 225 659 c 0
 251 659 269 640 269 616 c 0xf5
 269 580 234 553 205 553 c 0
 179 553 161 573 161 597 c 0
340 596 m 0
 340 629 372 659 404 659 c 0
 430 659 447 640 447 616 c 0
 447 586 417 553 383 553 c 0xf1
 357 553 340 572 340 596 c 0
EndSplineSet
Refer: 36 305 S 1 0 0 1 -0 0 3
Ligature2: "Latin ligatures excepting Turkic subtable" i uni0308
EndChar

StartChar: eth
Encoding: 240 240 251
Width: 511
Flags: HW
TeX: 688 0
ItalicCorrection: 107
HStem: -11 25<213.195 310.246> 425 22<312.51 399.29> 672 20G<283.5 292 516 562.087>
VStem: 96 71<66.5866 241.438> 447 86<212.949 436.897>
DStem2: 236 533 244 510 0.893308 0.449445<0 145.344 211.027 354.135>
LayerCount: 2
Fore
SplineSet
96 153 m 0
 96 300 235 447 364 447 c 0
 418 447 442 412 453 392 c 1
 445 471 424 521 382 580 c 1
 244 510 l 1
 236 533 l 1
 366 598 l 1
 336 631 299 658 259 677 c 1
 275 688 280 692 287 692 c 0
 297 692 362 670 416 624 c 1
 556 694 l 1
 563 671 l 1
 435 607 l 1
 499 542 533 459 533 357 c 0
 533 289 514 219 503 187 c 0
 462 73 355 -11 252 -11 c 0
 159 -11 96 59 96 153 c 0
167 118 m 0
 167 35 222 14 259 14 c 0
 268 14 310 16 354 55 c 0
 427 121 447 264 447 309 c 0
 447 380 412 425 360 425 c 0
 311 425 267 394 238 355 c 0
 189 289 167 150 167 118 c 0
EndSplineSet
EndChar

StartChar: ograve
Encoding: 242 242 253
Width: 511
Flags: HW
TeX: 641 0
ItalicCorrection: 63
HStem: -11 23<217.861 300.796> 419 23<319.205 398.255>
VStem: 108 71<62.3155 235.057> 438 70<194.614 368.39>
AnchorPoint: "below" 259 0 basechar 0
AnchorPoint: "above" 409 631 basechar 0
LayerCount: 2
Fore
SplineSet
274 614 m 0
 274 635 296 651 311 651 c 0
 330 651 340 632 347 623 c 0
 408 538 421 524 421 515 c 0
 421 505 411 499 404 499 c 0
 396 499 382 510 290 587 c 0
 283 594 274 601 274 614 c 0
EndSplineSet
Refer: 122 111 S 1 0 0 1 0 -0 3
AlternateSubs2: "Stilistic set 01 subtable" ograve.vn
AlternateSubs2: "Latin alternatives subtable" ograve.vn
Substitution2: "Latin Vietnamese substitutions subtable" ograve.vn
EndChar

StartChar: ocircumflex
Encoding: 244 244 255
Width: 511
Flags: HW
TeX: 641 0
ItalicCorrection: 63
HStem: -11 23<217.861 300.796> 419 23<319.205 398.255>
VStem: 108 71<62.3155 235.057> 438 70<194.614 368.39>
AnchorPoint: "below" 259 0 basechar 0
AnchorPoint: "above" 406 616 basechar 0
LayerCount: 2
Fore
SplineSet
249 484 m 0
 249 493 246 489 368 603 c 0
 392 625 402 636 411 636 c 0
 422 636 421 635 497 502 c 0
 498 500 503 492 503 486 c 0
 503 478 494 470 486 470 c 0
 476 470 472 479 436 533 c 0
 425 549 413 566 403 583 c 1
 283 481 l 2
 281 479 271 470 263 470 c 0
 256 470 249 476 249 484 c 0
EndSplineSet
Refer: 122 111 S 1 0 0 1 0 0 3
AlternateSubs2: "Stilistic set 01 subtable" ocircumflex.vn
AlternateSubs2: "Latin alternatives subtable" ocircumflex.vn
Substitution2: "Latin Vietnamese substitutions subtable" ocircumflex.vn
EndChar

